<?xml version="1.0" encoding="utf-8"?>
<!-- Generator: Adobe Illustrator 25.1.0, SVG Export Plug-In . SVG Version: 6.00 Build 0)  -->
<svg version="1.1" id="Capa_1" xmlns="http://www.w3.org/2000/svg" xmlns:xlink="http://www.w3.org/1999/xlink" x="0px" y="0px"
	 viewBox="0 0 150 175" style="enable-background:new 0 0 150 175;" xml:space="preserve">
<style type="text/css">
	.st0{fill:url(#SVGID_1_);}
	.st1{fill:url(#SVGID_2_);}
	.st2{fill:none;stroke:url(#SVGID_3_);}
	.st3{fill-rule:evenodd;clip-rule:evenodd;fill:url(#SVGID_4_);}
	.st4{fill-rule:evenodd;clip-rule:evenodd;fill:url(#SVGID_5_);}
	.st5{fill-rule:evenodd;clip-rule:evenodd;fill:url(#SVGID_6_);}
	.st6{fill:url(#SVGID_7_);}
	.st7{fill-rule:evenodd;clip-rule:evenodd;fill:url(#SVGID_8_);}
	.st8{fill:none;stroke:#FFFFFF;stroke-width:2;stroke-linecap:round;}
</style>
<linearGradient id="SVGID_1_" gradientUnits="userSpaceOnUse" x1="30.1838" y1="-123.547" x2="32.3338" y2="-106.2277" gradientTransform="matrix(1 0 0 1 0 136)">
	<stop  offset="0" style="stop-color:#70A9FF"/>
	<stop  offset="1" style="stop-color:#4C74FF"/>
</linearGradient>
<path class="st0" d="M18.5,0v30h24V0l-12,9.5L18.5,0z"/>
<g>
	
		<linearGradient id="SVGID_2_" gradientUnits="userSpaceOnUse" x1="6.4949" y1="-119.0246" x2="182.9949" y2="98.4753" gradientTransform="matrix(1 0 0 1 0 136)">
		<stop  offset="0" style="stop-color:#E4F9FF;stop-opacity:0.7"/>
		<stop  offset="1" style="stop-color:#E4F9FF;stop-opacity:0.8"/>
	</linearGradient>
	<path shape-rendering="crispEdges" class="st1" d="M19,19h100c8.3,0,15,6.7,15,15v120c0,8.3-6.7,15-15,15H19c-8.3,0-15-6.7-15-15
		V34C4,25.7,10.7,19,19,19z"/>
	
		<linearGradient id="SVGID_3_" gradientUnits="userSpaceOnUse" x1="100.8977" y1="-118.7746" x2="28.3977" y2="55.7254" gradientTransform="matrix(1 0 0 1 0 136)">
		<stop  offset="0" style="stop-color:#1282A2;stop-opacity:0.1"/>
		<stop  offset="4.715043e-02" style="stop-color:#1691AB;stop-opacity:0.133"/>
		<stop  offset="0.1411" style="stop-color:#1BA7B9;stop-opacity:0.1988"/>
		<stop  offset="0.2504" style="stop-color:#20B9C4;stop-opacity:0.2753"/>
		<stop  offset="0.383" style="stop-color:#23C5CB;stop-opacity:0.3681"/>
		<stop  offset="0.5628" style="stop-color:#24CCD0;stop-opacity:0.494"/>
		<stop  offset="1" style="stop-color:#25CED1;stop-opacity:0.8"/>
	</linearGradient>
	<path shape-rendering="crispEdges" class="st2" d="M19,19.5h100c8,0,14.5,6.5,14.5,14.5v120c0,8-6.5,14.5-14.5,14.5H19
		c-8,0-14.5-6.5-14.5-14.5V34C4.5,26,11,19.5,19,19.5z"/>
</g>
<g>
	
		<linearGradient id="SVGID_4_" gradientUnits="userSpaceOnUse" x1="128.1187" y1="-26.4793" x2="151.7107" y2="12.7827" gradientTransform="matrix(1 0 0 1 0 136)">
		<stop  offset="0.1771" style="stop-color:#D4B2FF"/>
		<stop  offset="1" style="stop-color:#70A9FF"/>
	</linearGradient>
	<path class="st3" d="M134,145h10c2.8,0,5-2.2,5-5v-20c0-2.8-2.2-5-5-5h-10V145z"/>
</g>
<g>
	
		<linearGradient id="SVGID_5_" gradientUnits="userSpaceOnUse" x1="128.1186" y1="-98.4793" x2="151.7106" y2="-59.2178" gradientTransform="matrix(1 0 0 1 0 136)">
		<stop  offset="0.1771" style="stop-color:#D4B2FF"/>
		<stop  offset="1" style="stop-color:#70A9FF"/>
	</linearGradient>
	<path class="st4" d="M134,73h10c2.8,0,5-2.2,5-5V48c0-2.8-2.2-5-5-5h-10V73z"/>
</g>
<linearGradient id="SVGID_6_" gradientUnits="userSpaceOnUse" x1="42.6361" y1="-9.9266" x2="75.7857" y2="35.7544" gradientTransform="matrix(1 0 0 1 0 136)">
	<stop  offset="0" style="stop-color:#1282A2;stop-opacity:0.5"/>
	<stop  offset="1" style="stop-color:#1282A2"/>
</linearGradient>
<path class="st5" d="M118.8,169H20.2c2.3-25.2,23.5-45,49.3-45S116.5,143.8,118.8,169z"/>
<g>
	
		<linearGradient id="SVGID_7_" gradientUnits="userSpaceOnUse" x1="56.0326" y1="-71.2511" x2="76.5326" y2="-29.7511" gradientTransform="matrix(1 0 0 1 0 136)">
		<stop  offset="0" style="stop-color:#1282A2;stop-opacity:0.5"/>
		<stop  offset="1" style="stop-color:#1282A2"/>
	</linearGradient>
	<circle shape-rendering="crispEdges" class="st6" cx="69" cy="91" r="25"/>
</g>
<g>
	
		<linearGradient id="SVGID_8_" gradientUnits="userSpaceOnUse" x1="128.1187" y1="-62.4793" x2="151.7107" y2="-23.2173" gradientTransform="matrix(1 0 0 1 0 136)">
		<stop  offset="0.1198" style="stop-color:#FFE092"/>
		<stop  offset="0.6198" style="stop-color:#FF9820"/>
		<stop  offset="1" style="stop-color:#FF3D00"/>
	</linearGradient>
	<path class="st7" d="M134,109h10c2.8,0,5-2.2,5-5V84c0-2.8-2.2-5-5-5h-10V109z"/>
</g>
<g>
	<path class="st8" d="M62,97.5c1.9,2.3,8.3,5.1,14,0"/>
</g>
</svg>
