<?xml version="1.0" encoding="utf-8"?>
<!-- Generator: Adobe Illustrator 25.1.0, SVG Export Plug-In . SVG Version: 6.00 Build 0)  -->
<svg version="1.1" id="Capa_1" xmlns="http://www.w3.org/2000/svg" xmlns:xlink="http://www.w3.org/1999/xlink" x="0px" y="0px"
	 viewBox="0 0 291.8 191.3" style="enable-background:new 0 0 291.8 191.3;" xml:space="preserve">
<style type="text/css">
	
		.st0{opacity:0.38;fill:none;stroke:#FFFFFF;stroke-width:2;stroke-linecap:round;stroke-linejoin:round;enable-background:new    ;}
	.st1{fill:none;stroke:#FFFFFF;stroke-width:2;stroke-linecap:round;stroke-linejoin:round;}
	.st2{fill:#070C1D;}
	.st3{fill:#0F1938;}
	.st4{fill:#25CED1;}
	.st5{fill:#FFE299;}
	.st6{fill:#FF0322;}
	.st7{fill:#26F7AB;}
	.st8{fill:none;stroke:#232144;stroke-width:0.5;stroke-linecap:round;stroke-linejoin:round;}
	.st9{fill:none;stroke:#232144;stroke-linecap:round;stroke-linejoin:round;}
	.st10{fill:none;stroke:#31E3E8;stroke-width:2;stroke-linecap:round;stroke-linejoin:round;}
	.st11{fill:none;stroke:#FFFFFF;stroke-width:1.5;stroke-linecap:round;stroke-linejoin:round;}
	.st12{fill:none;stroke:#0692B2;stroke-width:1.01;stroke-linecap:round;stroke-linejoin:round;}
	.st13{fill:none;stroke:#232144;stroke-width:1.01;stroke-linecap:round;stroke-linejoin:round;}
	.st14{fill:none;stroke:#F96E90;stroke-width:2;stroke-linecap:round;stroke-linejoin:round;}
	.st15{fill:none;stroke:#FFB103;stroke-width:2;stroke-linecap:round;stroke-linejoin:round;}
	.st16{fill:none;stroke:#FFB000;stroke-width:2;stroke-linecap:round;stroke-linejoin:round;}
	.st17{fill:none;stroke:#FCA027;stroke-width:2;stroke-linecap:round;stroke-linejoin:round;}
	.st18{fill:none;stroke:#FFE299;stroke-width:2;stroke-linecap:round;stroke-linejoin:round;}
	.st19{fill:#47B2CE;}
	.st20{fill:none;stroke:#31E3E8;stroke-width:0.95;stroke-linecap:round;stroke-linejoin:round;}
	.st21{fill:none;stroke:#232144;stroke-width:0.75;stroke-linecap:round;stroke-linejoin:round;}
	.st22{fill:#0692B2;}
	.st23{fill:#78E3F4;}
	.st24{fill:none;stroke:#0692B2;stroke-width:2;stroke-linecap:round;stroke-linejoin:round;}
	.st25{fill:#FFFFFF;}
	.st26{fill:#FCA800;}
	.st27{fill:#FFDB06;}
	.st28{fill:#F93E4C;}
	.st29{fill:none;stroke:#232144;stroke-width:0.39;stroke-linecap:round;stroke-linejoin:round;}
	.st30{font-family:'Arial-BoldMT';}
	.st31{font-size:23.16px;}
	.st32{fill:none;stroke:#000201;stroke-width:0.65;stroke-linecap:round;stroke-linejoin:round;}
	.st33{fill:#000201;}
	.st34{fill:#FF8103;}
	.st35{fill:#E28C37;}
	.st36{fill:none;stroke:#FF6F0D;stroke-width:0.67;stroke-miterlimit:10;}
</style>
<polyline class="st0" points="126.4,35.5 131,35.4 129.7,50.2 "/>
<line class="st0" x1="130.5" y1="41.2" x2="130" y2="46.1"/>
<line class="st0" x1="130.3" y1="43" x2="130.2" y2="44"/>
<line class="st1" x1="129.2" y1="57.5" x2="128.7" y2="63.1"/>
<path class="st2" d="M51.6,9.7h182.6c4.3,0,7.7,3.5,7.7,7.7l0,0v129.7c0,2-1.6,3.7-3.7,3.7H47.5c-2,0-3.7-1.7-3.7-3.7l0,0l0,0V17.4
	C43.9,13.1,47.3,9.7,51.6,9.7z"/>
<rect x="44.7" y="26.8" class="st3" width="197.1" height="6.3"/>
<polygon class="st3" points="241.9,33.1 241.9,147.1 238.2,150.8 161.9,150.8 128.1,26.8 241.9,26.8 "/>
<path class="st4" d="M51.4,9.3h182.8c4.2-0.1,7.6,3.3,7.6,7.4c0,0,0,0,0,0.1v10H43.9v-9.9C43.9,12.7,47.2,9.4,51.4,9.3z"/>
<circle class="st5" cx="220.4" cy="18.9" r="2.2"/>
<circle class="st6" cx="227.2" cy="18.9" r="2.2"/>
<circle class="st7" cx="233.9" cy="18.9" r="2.2"/>
<circle class="st8" cx="220.4" cy="18.9" r="2.2"/>
<circle class="st8" cx="227.2" cy="18.9" r="2.2"/>
<circle class="st8" cx="233.9" cy="18.9" r="2.2"/>
<line class="st9" x1="93.7" y1="26.8" x2="241.9" y2="26.8"/>
<line class="st9" x1="43.9" y1="26.8" x2="86" y2="26.8"/>
<line class="st10" x1="67.3" y1="11.6" x2="91.8" y2="11.6"/>
<line class="st10" x1="98.2" y1="11.6" x2="106.1" y2="11.6"/>
<line class="st11" x1="71.2" y1="18.9" x2="61" y2="18.9"/>
<line class="st11" x1="54.6" y1="18.9" x2="50.7" y2="18.9"/>
<line class="st10" x1="197.3" y1="11.6" x2="172.8" y2="11.6"/>
<line class="st10" x1="166.4" y1="11.6" x2="158.5" y2="11.6"/>
<path class="st9" d="M134.1,9.7h100.1c4.3,0,7.7,3.5,7.7,7.7l0,0v129.7c0,2-1.6,3.7-3.7,3.7H47.6c-2,0-3.7-1.7-3.7-3.7l0,0V17.4
	c0-4.3,3.4-7.7,7.7-7.7c0,0,0,0,0,0h73.4"/>
<path class="st12" d="M213.9,161.2h25.1c6.6,0,11.9-5.3,11.9-11.9l0,0l0,0V14.7c0.1-7.7-6.1-14.1-13.8-14.2c0,0,0,0-0.1,0H115.2"/>
<line class="st13" x1="185" y1="161.2" x2="208.3" y2="161.2"/>
<line class="st13" x1="91.1" y1="161.2" x2="177.4" y2="161.2"/>
<path class="st12" d="M71.2,0.5H48.9C41.2,0.6,35,6.9,35.1,14.7c0,0,0,0,0,0l0,0v134.6l0,0c0,6.6,5.3,11.9,11.9,11.9c0,0,0,0,0.1,0
	h33.4"/>
<line class="st9" x1="79.5" y1="0.5" x2="107.8" y2="0.5"/>
<line class="st14" x1="66.2" y1="55.3" x2="85.3" y2="55.3"/>
<line class="st14" x1="94.1" y1="55.3" x2="107.3" y2="55.3"/>
<line class="st14" x1="116.8" y1="55.3" x2="130.1" y2="55.3"/>
<line class="st15" x1="66.1" y1="45.1" x2="94.9" y2="45.1"/>
<line class="st10" x1="102.1" y1="45.1" x2="118.6" y2="45.1"/>
<line class="st16" x1="66.1" y1="65.5" x2="110.3" y2="65.5"/>
<line class="st10" x1="117.6" y1="65.5" x2="134.1" y2="65.5"/>
<line class="st17" x1="66.1" y1="75.7" x2="94.9" y2="75.7"/>
<line class="st10" x1="102.1" y1="75.7" x2="118.6" y2="75.7"/>
<line class="st14" x1="66.2" y1="108.2" x2="85.3" y2="108.2"/>
<line class="st14" x1="94.1" y1="108.2" x2="107.3" y2="108.2"/>
<line class="st14" x1="116.8" y1="108.2" x2="130.1" y2="108.2"/>
<line class="st18" x1="66.1" y1="98" x2="94.9" y2="98"/>
<line class="st10" x1="102.1" y1="98" x2="118.6" y2="98"/>
<line class="st1" x1="66.1" y1="118.4" x2="110.3" y2="118.4"/>
<line class="st10" x1="117.6" y1="118.4" x2="134.1" y2="118.4"/>
<line class="st18" x1="66.1" y1="128.6" x2="94.9" y2="128.6"/>
<line class="st10" x1="102.1" y1="128.6" x2="118.6" y2="128.6"/>
<path class="st19" d="M132.3,161.4h21.5c0.4,0,0.8,0.3,0.8,0.8v5c0,0.4-0.3,0.8-0.8,0.8h-21.5c-0.4,0-0.8-0.3-0.8-0.8v-5
	C131.5,161.7,131.9,161.4,132.3,161.4z"/>
<line class="st20" x1="136.1" y1="162.2" x2="142.3" y2="162.2"/>
<line class="st20" x1="145.4" y1="162.2" x2="149.1" y2="162.2"/>
<path class="st21" d="M132.3,161.4h21.5c0.4,0,0.8,0.3,0.8,0.8v5c0,0.4-0.3,0.8-0.8,0.8h-21.5c-0.4,0-0.8-0.3-0.8-0.8v-5
	C131.5,161.7,131.9,161.4,132.3,161.4z"/>
<path class="st4" d="M120.5,167.1h45.1c0.9,0,1.6,0.7,1.6,1.6v10.5c0,0.9-0.7,1.6-1.6,1.6h-45.1c-0.9,0-1.6-0.7-1.6-1.6v-10.5
	C118.9,167.8,119.6,167.1,120.5,167.1z"/>
<line class="st10" x1="157.5" y1="179.1" x2="144.6" y2="179.1"/>
<line class="st10" x1="138.1" y1="179.1" x2="130.2" y2="179.1"/>
<path class="st9" d="M120.5,167.1h45.1c0.9,0,1.6,0.7,1.6,1.6v10.5c0,0.9-0.7,1.6-1.6,1.6h-45.1c-0.9,0-1.6-0.7-1.6-1.6v-10.5
	C118.9,167.8,119.6,167.1,120.5,167.1z"/>
<path class="st4" d="M219.8,56.3h66.3c2.9,0,5.3,2.4,5.3,5.3v46c0,2.9-2.4,5.3-5.3,5.3h-66.3c-2.9,0-5.3-2.4-5.3-5.3v-46
	C214.5,58.6,216.8,56.3,219.8,56.3z"/>
<path class="st22" d="M291.5,62.2v46c0,2.9-2.4,5.2-5.3,5.2h-22.8L242.3,57h43.9C289.1,57,291.5,59.3,291.5,62.2z"/>
<path class="st23" d="M291.3,61.5v4h-76.8v-4c0-2.9,2.4-5.3,5.3-5.3l0,0h66.3C289,56.3,291.3,58.6,291.3,61.5z"/>
<line class="st10" x1="220.7" y1="67.7" x2="245.2" y2="67.7"/>
<line class="st10" x1="251.6" y1="67.7" x2="259.5" y2="67.7"/>
<line class="st24" x1="247" y1="110" x2="271.5" y2="110"/>
<path class="st13" d="M219.8,56.3h66.3c2.9,0,5.3,2.4,5.3,5.3v46c0,2.9-2.4,5.3-5.3,5.3h-66.3c-2.9,0-5.3-2.4-5.3-5.3v-46
	C214.5,58.6,216.8,56.3,219.8,56.3z"/>
<line class="st13" x1="214.9" y1="65.5" x2="291.3" y2="65.5"/>
<circle class="st25" cx="267.9" cy="82.4" r="3.5"/>
<path class="st26" d="M243.8,78.9c0.6-1.1,2.1-1.5,3.2-0.9c0,0,0,0,0,0c0.4,0.2,0.7,0.5,0.9,0.9l5.2,9.1l5.2,9.1
	c0.6,1.1,0.2,2.6-0.9,3.3c0,0,0,0,0,0c-0.4,0.2-0.8,0.3-1.2,0.3h-21c-1.3,0-2.4-1.1-2.4-2.4c0-0.4,0.1-0.8,0.3-1.2l5.2-9.1
	L243.8,78.9z"/>
<path class="st27" d="M256.9,86.4c0.4-0.7,1.4-1,2.1-0.6c0.2,0.1,0.4,0.3,0.6,0.6l3.5,6l3.4,6c0.4,0.7,0.2,1.7-0.6,2.1
	c-0.2,0.1-0.5,0.2-0.8,0.2h-13.8c-0.9,0-1.6-0.7-1.6-1.5c0-0.3,0.1-0.6,0.2-0.8l3.5-6L256.9,86.4z"/>
<circle class="st5" cx="274" cy="60.9" r="1.7"/>
<circle class="st28" cx="279.2" cy="60.9" r="1.7"/>
<circle class="st7" cx="284.5" cy="60.9" r="1.7"/>
<circle class="st29" cx="274" cy="60.9" r="1.7"/>
<circle class="st29" cx="279.2" cy="60.9" r="1.7"/>
<circle class="st29" cx="284.5" cy="60.9" r="1.7"/>
<path class="st4" d="M5.8,84.9h66.3c2.9,0,5.3,2.4,5.3,5.3v46c0,2.9-2.4,5.3-5.3,5.3H5.8c-2.9,0-5.3-2.4-5.3-5.3v-46
	C0.5,87.2,2.9,84.9,5.8,84.9z"/>
<path class="st22" d="M77.5,90.9v46c0,2.9-2.4,5.3-5.3,5.3l0,0H49.5L28.2,85.6h43.9C75,85.6,77.4,87.9,77.5,90.9L77.5,90.9z"/>
<path class="st23" d="M77.3,90.2v3.9H0.5v-3.9c0-2.9,2.4-5.3,5.3-5.3h66.3C75,85,77.3,87.3,77.3,90.2z"/>
<line class="st10" x1="6.7" y1="96.3" x2="31.2" y2="96.3"/>
<line class="st10" x1="37.6" y1="96.3" x2="45.5" y2="96.3"/>
<line class="st24" x1="33" y1="138.6" x2="57.5" y2="138.6"/>
<path class="st13" d="M5.8,84.9h66.3c2.9,0,5.3,2.4,5.3,5.3v46c0,2.9-2.4,5.3-5.3,5.3H5.8c-2.9,0-5.3-2.4-5.3-5.3v-46
	C0.5,87.2,2.9,84.9,5.8,84.9z"/>
<line class="st13" x1="0.9" y1="94.1" x2="77.3" y2="94.1"/>
<circle class="st5" cx="60" cy="89.5" r="1.7"/>
<circle class="st28" cx="65.3" cy="89.5" r="1.7"/>
<circle class="st7" cx="70.5" cy="89.5" r="1.7"/>
<circle class="st29" cx="60" cy="89.5" r="1.7"/>
<circle class="st29" cx="65.3" cy="89.5" r="1.7"/>
<circle class="st29" cx="70.5" cy="89.5" r="1.7"/>
<text transform="matrix(1 0 0 1 16.24 124.76)" class="st25 st30 st31">&lt;/&gt;</text>
<line class="st32" x1="22.5" y1="185.4" x2="50.4" y2="185.4"/>
<circle class="st33" cx="54.7" cy="185.4" r="1.3"/>
<rect x="7.9" y="180.7" class="st34" width="280.1" height="10.2"/>
<rect x="7.9" y="187.9" class="st35" width="280.1" height="2.2"/>
<path class="st36" d="M8.1,183.5c24.4,3.4,49,4.8,73.6,4c31.2-1.9,52-5.2,83.5-5.2c37,0,73.4,5.2,122.6,5.8"/>
<polyline class="st21" points="21,180.7 288.1,180.7 288.1,190.9 7.9,190.9 7.9,180.7 12.2,180.7 "/>
</svg>
