<?xml version="1.0" encoding="utf-8"?>
<!-- Generator: Adobe Illustrator 25.1.0, SVG Export Plug-In . SVG Version: 6.00 Build 0)  -->
<svg version="1.1" id="Capa_1" xmlns="http://www.w3.org/2000/svg" xmlns:xlink="http://www.w3.org/1999/xlink" x="0px" y="0px"
	 viewBox="0 0 921.9 387.6" style="enable-background:new 0 0 921.9 387.6;" xml:space="preserve">
<style type="text/css">
	.st0{fill:#25CED1;}
	.st1{fill:url(#SVGID_1_);}
	.st2{fill:#249680;}
	.st3{fill:url(#SVGID_2_);}
	.st4{fill:#FFFFFF;}
	.st5{fill:#E2C054;}
	.st6{fill:#D1944B;}
	.st7{fill:none;stroke:url(#SVGID_3_);stroke-width:0.5;stroke-miterlimit:10;}
	.st8{fill:none;stroke:url(#SVGID_4_);stroke-width:0.5;stroke-miterlimit:10;}
	.st9{fill:none;stroke:url(#SVGID_5_);stroke-width:0.5;stroke-miterlimit:10;}
	.st10{fill:none;stroke:url(#SVGID_6_);stroke-width:0.5;stroke-miterlimit:10;}
	.st11{fill:none;stroke:url(#SVGID_7_);stroke-width:0.5;stroke-miterlimit:10;}
	.st12{fill:url(#SVGID_8_);}
	.st13{fill:url(#SVGID_9_);}
	.st14{fill:#6D6D6D;}
	.st15{fill:url(#SVGID_10_);}
	.st16{fill:#5B5B5B;}
	.st17{fill:none;stroke:#FFC36C;stroke-miterlimit:10;}
	.st18{fill:#070C1D;}
	.st19{font-family:'Arial-BoldMT';}
	.st20{font-size:9.4px;}
	.st21{fill:#EFEFEF;}
	.st22{fill:#F9BB58;}
	.st23{fill:#B4D5EF;}
	.st24{fill:url(#SVGID_11_);}
	.st25{font-size:15.66px;}
	.st26{fill:url(#SVGID_12_);}
	.st27{fill:none;stroke:#95BDE5;stroke-width:5;stroke-miterlimit:10;}
	.st28{fill:url(#SVGID_13_);}
	.st29{fill:url(#SVGID_14_);}
	.st30{opacity:0.1;fill:#474849;enable-background:new    ;}
	.st31{fill:#F2F2F2;}
	.st32{fill:#C6C6C6;}
	.st33{fill:#FFC359;}
	.st34{fill:url(#SVGID_15_);}
	.st35{fill:#DBDDDD;}
	.st36{fill:#F9AD5A;}
	.st37{fill:#FCC0AA;}
	.st38{fill:#57547F;}
	.st39{fill:#208F9E;}
	.st40{fill:#F8F7FF;}
	.st41{fill:#F1A32A;}
	.st42{fill:#1D99B3;}
	.st43{fill:#EFAA9E;}
	.st44{fill:#FCDBD2;}
	.st45{fill:#FF7FA0;}
	.st46{fill:#EF6C91;}
	.st47{fill:#1C93A3;}
	.st48{fill:#F99795;}
	.st49{fill:#FF3972;}
	.st50{font-size:7.29px;}
</style>
<path class="st0" d="M887,387.5H19c-6.2,0-11.2-4.7-11.2-10.6l0,0c0-5.9,5-10.6,11.2-10.6h868c6.2,0,11.2,4.8,11.2,10.6l0,0
	C898.3,382.8,893.2,387.5,887,387.5z"/>
<linearGradient id="SVGID_1_" gradientUnits="userSpaceOnUse" x1="743.1543" y1="-277.0268" x2="774.5043" y2="-174.1267" gradientTransform="matrix(1 0 0 -1 -11.37 142.6)">
	<stop  offset="0" style="stop-color:#22AFBD"/>
	<stop  offset="1" style="stop-color:#FFC359"/>
</linearGradient>
<path class="st1" d="M842.2,369.8l-190-1.4c4.4-12.8,14.9-28,21.2-35.9l7.9,11.8l-2.8-17.1c8.8-7.6,19.4-12.8,30.8-15.3l4,14.5
	l-0.6-15.2c4.6-0.8,9.2-1.1,13.9-1l0.8,15.7l7-15.1l1,0.2c9.4,1.5,18.2,5.6,25.5,11.8l-2.4,13.2l7.8-7.6c5.3,6.5,9.4,15,10.9,26
	c2.2-5,5.6-9.3,9.8-12.8l3.5,8.4l-1-10.1c3.4-2.2,7.3-3.4,11.4-3.7l1.5,10.9l2.4-10.9c2.3,0.2,4.7,0.6,6.9,1.3
	c2.5,0.7,4.9,1.6,7.2,2.8l-1,8.3l2.4-7.6c3.5,1.9,6.8,4.4,9.6,7.2l-4.9,12.4l7.4-9.5C837,356.6,840.3,363,842.2,369.8z"/>
<path class="st2" d="M878.1,192.6c-21.2-3.6-51.3,3.5-51.6,3.6l-0.4-1.7c0.3-0.1,30.7-7.3,52.3-3.6L878.1,192.6z"/>
<path class="st2" d="M813.9,212.2l-1.7-0.3c0-0.2,3.7-23.4-0.2-39.3l1.7-0.4C817.7,188.4,814.1,211.3,813.9,212.2z"/>
<path class="st2" d="M802.4,229.3l-0.9-1.5c0.8-0.5,20.8-12,37.4-14l0.2,1.7C823,217.6,802.6,229.2,802.4,229.3z"/>
<linearGradient id="SVGID_2_" gradientUnits="userSpaceOnUse" x1="-1909.3759" y1="841.2599" x2="-1871.2959" y2="875.9499" gradientTransform="matrix(0.9894 -0.1452 -0.1452 -0.9894 2840.5239 792.88)">
	<stop  offset="0" style="stop-color:#22DEBD"/>
	<stop  offset="1" style="stop-color:#FFC359"/>
</linearGradient>
<path class="st3" d="M835.6,211.7c-2.4,8.2,7.9,21.6,32.4-2.4C868,209.3,838.2,202.6,835.6,211.7z"/>
<rect x="230.6" y="141.5" class="st4" width="76.2" height="7.5"/>
<rect x="230.6" y="157" class="st4" width="76.2" height="7.5"/>
<rect x="230.6" y="172.4" class="st4" width="76.2" height="7.5"/>
<rect x="230.6" y="187.9" class="st4" width="76.2" height="7.5"/>
<rect x="230.6" y="203.4" class="st4" width="76.2" height="7.5"/>
<rect x="230.6" y="218.8" class="st4" width="76.2" height="7.5"/>
<rect x="230.6" y="234.3" class="st4" width="76.2" height="7.5"/>
<rect x="230.6" y="249.7" class="st4" width="76.2" height="7.5"/>
<rect x="230.6" y="265.2" class="st4" width="76.2" height="7.5"/>
<rect x="230.6" y="280.6" class="st4" width="76.2" height="7.5"/>
<rect x="230.6" y="296.1" class="st4" width="76.2" height="7.5"/>
<rect x="230.6" y="311.6" class="st4" width="76.2" height="7.5"/>
<rect x="230.6" y="327" class="st4" width="76.2" height="7.5"/>
<rect x="230.6" y="342.5" class="st4" width="76.2" height="7.5"/>
<rect x="380" y="75.8" class="st4" width="5.6" height="39.5"/>
<rect x="392.1" y="75.8" class="st4" width="5.6" height="39.5"/>
<rect x="405.3" y="75.8" class="st4" width="5.6" height="39.5"/>
<rect x="418.1" y="75.8" class="st4" width="5.6" height="39.5"/>
<rect x="366.8" y="191.1" class="st4" width="5.6" height="39.5"/>
<rect x="366.8" y="248.8" class="st4" width="5.6" height="39.4"/>
<rect x="364.4" y="214.1" class="st4" width="5.6" height="39.4"/>
<rect x="595" y="56.8" class="st4" width="28.8" height="27.9"/>
<rect x="552.1" y="56.8" class="st4" width="28.8" height="27.9"/>
<rect x="554.2" y="149.6" class="st4" width="28.8" height="27.9"/>
<rect x="554.2" y="213.4" class="st4" width="28.8" height="27.9"/>
<rect x="511.3" y="213.4" class="st4" width="28.8" height="27.9"/>
<rect x="595" y="311.9" class="st4" width="28.8" height="27.9"/>
<rect x="552.1" y="311.9" class="st4" width="28.8" height="27.9"/>
<path class="st5" d="M31.4,323h49.4c3.1,0,5.7,2.5,5.7,5.7l0,0v17.4c0,16.8-13.6,30.4-30.4,30.4c0,0,0,0,0,0l0,0
	c-16.8,0-30.4-13.6-30.4-30.4l0,0v-17.4C25.7,325.5,28.3,323,31.4,323z"/>
<path class="st6" d="M86.5,341.3v4.8c0,16.8-13.6,30.4-30.4,30.4s-30.4-13.6-30.4-30.4v-17.4c0-0.3,0-0.7,0.1-1v11.2
	c0.1,16.8,13.7,30.4,30.5,30.3C72.1,369.1,85.2,357,86.5,341.3L86.5,341.3z"/>
<linearGradient id="SVGID_3_" gradientUnits="userSpaceOnUse" x1="904.2601" y1="-65.845" x2="912.8099" y2="-65.845" gradientTransform="matrix(-1 0 0 -1 998.78 142.6)">
	<stop  offset="0" style="stop-color:#FFFFFF"/>
	<stop  offset="1" style="stop-color:#DCEFFE"/>
</linearGradient>
<line class="st7" x1="94.3" y1="204.4" x2="86.1" y2="212.5"/>
<linearGradient id="SVGID_4_" gradientUnits="userSpaceOnUse" x1="914.5233" y1="-79.345" x2="921.0367" y2="-79.345" gradientTransform="matrix(-1 0 0 -1 998.78 142.6)">
	<stop  offset="0" style="stop-color:#FFFFFF"/>
	<stop  offset="1" style="stop-color:#DCEFFE"/>
</linearGradient>
<line class="st8" x1="84.1" y1="226.1" x2="77.9" y2="217.8"/>
<linearGradient id="SVGID_5_" gradientUnits="userSpaceOnUse" x1="908.0447" y1="-92.36" x2="918.1953" y2="-92.36" gradientTransform="matrix(-1 0 0 -1 998.78 142.6)">
	<stop  offset="0" style="stop-color:#FFFFFF"/>
	<stop  offset="1" style="stop-color:#DCEFFE"/>
</linearGradient>
<line class="st9" x1="80.7" y1="236.9" x2="90.6" y2="233"/>
<linearGradient id="SVGID_6_" gradientUnits="userSpaceOnUse" x1="924.9528" y1="-100.88" x2="930.8572" y2="-100.88" gradientTransform="matrix(-1 0 0 -1 998.78 142.6)">
	<stop  offset="0" style="stop-color:#FFFFFF"/>
	<stop  offset="1" style="stop-color:#DCEFFE"/>
</linearGradient>
<line class="st10" x1="73.6" y1="248.8" x2="68.1" y2="238.2"/>
<linearGradient id="SVGID_7_" gradientUnits="userSpaceOnUse" x1="937.155" y1="-142.4" x2="941.6946" y2="-142.4" gradientTransform="matrix(-1 0 0 -1 998.78 142.6)">
	<stop  offset="0" style="stop-color:#FFFFFF"/>
	<stop  offset="1" style="stop-color:#DCEFFE"/>
</linearGradient>
<line class="st11" x1="57.3" y1="290.6" x2="61.4" y2="279.4"/>
<linearGradient id="SVGID_8_" gradientUnits="userSpaceOnUse" x1="65.2845" y1="-226.538" x2="118.295" y2="-226.538" gradientTransform="matrix(1 0 0 -1 -11.37 142.6)">
	<stop  offset="0" style="stop-color:#1FB89A"/>
	<stop  offset="0" style="stop-color:#1FB89A"/>
	<stop  offset="0.18" style="stop-color:#3FB58D"/>
	<stop  offset="0.36" style="stop-color:#58B382"/>
	<stop  offset="0.55" style="stop-color:#69B27B"/>
	<stop  offset="0.76" style="stop-color:#74B176"/>
	<stop  offset="1" style="stop-color:#77B175"/>
</linearGradient>
<path class="st12" d="M55.9,378.1c-7-9.6,6-14.4,11.5-9.2s13.2-11.9,22.5-8.1c10,4,6.2,12.5,6.2,12.5s8.8-1.8,10.7,4.8L55.9,378.1z"
	/>
<linearGradient id="SVGID_9_" gradientUnits="userSpaceOnUse" x1="628.5761" y1="-288.4718" x2="760.4661" y2="-206.2318" gradientTransform="matrix(1 0 0 -1 -11.37 142.6)">
	<stop  offset="0" style="stop-color:#22DEBD"/>
	<stop  offset="1" style="stop-color:#FFC359"/>
</linearGradient>
<path class="st13" d="M768.2,382.8l-130.4-0.7c3-6.5,10.2-14.3,14.6-18.4l5.4,6l-1.9-8.7c6.4-4,13.6-6.7,21.1-7.8l2.8,7.4l-0.4-7.8
	c3.2-0.4,6.3-0.6,9.5-0.5l0.5,8.1l4.8-7.7l0.7,0.1c6.2,0.7,12.2,2.8,17.5,6.1l-1.7,6.8l5.4-3.9c3.9,3.5,6.5,8.1,7.5,13.3
	c1.7-2.7,4-5,6.8-6.5l2.4,4.3l-0.7-5.2c2.5-1.1,5.1-1.8,7.9-1.9l1,5.6l1.7-5.6c1.6,0.1,3.2,0.3,4.8,0.7c1.7,0.4,3.3,0.8,4.9,1.4
	l-0.7,4.2l1.7-3.9c2.4,0.9,4.6,2.2,6.6,3.7l-3.3,6.3l5.1-4.9C764.5,375.8,766.8,379.1,768.2,382.8z"/>
<path class="st14" d="M597.5,156.7h263c9,0,16.3,7.3,16.3,16.3v173.1c0,9-7.3,16.3-16.3,16.3h-263c-9,0-16.3-7.3-16.3-16.3V173
	C581.1,164,588.5,156.7,597.5,156.7z"/>
<linearGradient id="SVGID_10_" gradientUnits="userSpaceOnUse" x1="727.9917" y1="-191.1199" x2="730.2317" y2="25.79" gradientTransform="matrix(1 0 0 -1 0 156.1)">
	<stop  offset="0" style="stop-color:#25CED1"/>
	<stop  offset="1" style="stop-color:#034078"/>
</linearGradient>
<rect x="589.3" y="164.8" class="st15" width="279.5" height="169.5"/>
<path class="st16" d="M735.1,347c0,3.4-2.7,6.1-6.1,6.1c-3.4,0-6.1-2.7-6.1-6.1c0-3.4,2.7-6.1,6.1-6.1c0,0,0,0,0,0
	C732.4,340.9,735.1,343.7,735.1,347z"/>
<path class="st16" d="M583.5,362.4h291c1.3,0,2.4,1.1,2.4,2.4v3c0,5-4.1,9.1-9.1,9.1h0H590.2c-5,0-9.1-4.1-9.1-9.1v0v-3
	C581.1,363.5,582.2,362.4,583.5,362.4L583.5,362.4z"/>
<path class="st17" d="M642.5,272.1c25.4-2.5,30.7,34.7,55.8,13.3c19.2-16.4,28.8-8.4,40.6,4.7s24.5-29.5,50.2-1.9"/>
<circle class="st18" cx="727.9" cy="229.6" r="28"/>
<text transform="matrix(1 0 0 1 807.535 284.15)" class="st4 st19 st20">75</text>
<rect x="800.3" y="299.5" class="st21" width="32.2" height="3.1"/>
<path class="st21" d="M800.8,305.7H832c0.3,0,0.5,0.2,0.5,0.5v0.1c0,0.3-0.2,0.5-0.5,0.5h-31.3c-0.3,0-0.5-0.2-0.5-0.5v-0.1
	C800.3,306,800.5,305.7,800.8,305.7z"/>
<path class="st21" d="M800.8,309.4H832c0.3,0,0.5,0.2,0.5,0.5v0.1c0,0.3-0.2,0.5-0.5,0.5h-31.3c-0.3,0-0.5-0.2-0.5-0.5v-0.1
	C800.3,309.6,800.5,309.4,800.8,309.4z"/>
<path class="st21" d="M800.8,312.9H832c0.3,0,0.5,0.2,0.5,0.5v0.1c0,0.3-0.2,0.5-0.5,0.5h-31.3c-0.3,0-0.5-0.2-0.5-0.5v-0.1
	C800.3,313.1,800.5,312.9,800.8,312.9z"/>
<path class="st21" d="M800.8,316.4H832c0.3,0,0.5,0.2,0.5,0.5v0.1c0,0.3-0.2,0.5-0.5,0.5h-31.3c-0.3,0-0.5-0.2-0.5-0.5v-0.1
	C800.3,316.7,800.5,316.4,800.8,316.4z"/>
<path class="st21" d="M750.4,309.4h31.3c0.3,0,0.5,0.2,0.5,0.5v0.1c0,0.3-0.2,0.5-0.5,0.5h-31.3c-0.3,0-0.5-0.2-0.5-0.5v-0.1
	C749.9,309.6,750.1,309.4,750.4,309.4z"/>
<path class="st21" d="M750.4,312.9h31.3c0.3,0,0.5,0.2,0.5,0.5v0.1c0,0.3-0.2,0.5-0.5,0.5h-31.3c-0.3,0-0.5-0.2-0.5-0.5v-0.1
	C749.9,313.1,750.1,312.9,750.4,312.9z"/>
<path class="st21" d="M750.4,316.4h31.3c0.3,0,0.5,0.2,0.5,0.5v0.1c0,0.3-0.2,0.5-0.5,0.5h-31.3c-0.3,0-0.5-0.2-0.5-0.5v-0.1
	C749.9,316.7,750.1,316.4,750.4,316.4z"/>
<path class="st21" d="M696.2,309.4h31.3c0.3,0,0.5,0.2,0.5,0.5v0.1c0,0.3-0.2,0.5-0.5,0.5h-31.3c-0.3,0-0.5-0.2-0.5-0.5v-0.1
	C695.7,309.6,695.9,309.4,696.2,309.4z"/>
<path class="st21" d="M696.2,305.6h31.3c0.3,0,0.5,0.2,0.5,0.5v0.1c0,0.3-0.2,0.5-0.5,0.5h-31.3c-0.3,0-0.5-0.2-0.5-0.5v-0.1
	C695.7,305.9,695.9,305.6,696.2,305.6z"/>
<path class="st21" d="M696.2,312.9h31.3c0.3,0,0.5,0.2,0.5,0.5v0.1c0,0.3-0.2,0.5-0.5,0.5h-31.3c-0.3,0-0.5-0.2-0.5-0.5v-0.1
	C695.7,313.1,695.9,312.9,696.2,312.9z"/>
<path class="st21" d="M696.2,316.4h31.3c0.3,0,0.5,0.2,0.5,0.5v0.1c0,0.3-0.2,0.5-0.5,0.5h-31.3c-0.3,0-0.5-0.2-0.5-0.5v-0.1
	C695.7,316.7,695.9,316.4,696.2,316.4z"/>
<path class="st21" d="M638.2,312.9h31.3c0.3,0,0.5,0.2,0.5,0.5v0.1c0,0.3-0.2,0.5-0.5,0.5h-31.3c-0.3,0-0.5-0.2-0.5-0.5v-0.1
	C637.7,313.1,637.9,312.9,638.2,312.9z"/>
<path class="st21" d="M638.2,316.4h31.3c0.3,0,0.5,0.2,0.5,0.5v0.1c0,0.3-0.2,0.5-0.5,0.5h-31.3c-0.3,0-0.5-0.2-0.5-0.5v-0.1
	C637.7,316.7,637.9,316.4,638.2,316.4z"/>
<path class="st22" d="M791.9,288.2c0,1.5-1.2,2.8-2.8,2.8s-2.8-1.2-2.8-2.8c0-1.5,1.2-2.8,2.8-2.8c0,0,0,0,0,0
	C790.7,285.4,791.9,286.7,791.9,288.2z"/>
<path class="st22" d="M685.3,292.4c0,1.1-0.9,2-2,2s-2-0.9-2-2s0.9-2,2-2S685.3,291.3,685.3,292.4z"/>
<path class="st22" d="M719.9,276.1c0,1.1-0.9,2-2,2s-2-0.9-2-2s0.9-2,2-2S719.9,275,719.9,276.1z"/>
<path class="st22" d="M746,292.4c0,1.1-0.9,2-2,2s-2-0.9-2-2s0.9-2,2-2S746,291.3,746,292.4z"/>
<path class="st4" d="M743.8,232c0,2.2-1.8,4-4,4H716c-2.3,0-4.1-1.8-4.1-4.1s1.8-4.1,4.1-4.1c0.5,0,1,0.1,1.5,0.3l1.2,0.5l-0.3-1.2
	c-0.1-0.5-0.2-1.1-0.2-1.7c-0.2-4.1,3-7.5,7-7.6c3.9-0.2,7.2,2.7,7.6,6.5l0.1,1l0.9-0.6c1.2-0.7,2.7-0.4,3.4,0.7
	c0.3,0.4,0.4,0.9,0.4,1.3c0,0.1,0,0.2,0,0.4l-0.2,1.1l1-0.4c2.1-0.7,4.4,0.4,5.1,2.5C743.7,231.1,743.8,231.5,743.8,232L743.8,232z"
	/>
<path class="st23" d="M811.7,94.9c0,4.4-3.2,8.1-7.6,8.7c-0.4,0-0.7,0.1-1.1,0.1h-52.1c-4.9,0-8.9-4-8.9-8.9c0-4.9,4-8.9,8.9-8.9
	c1.1,0,2.2,0.2,3.2,0.6l2.6,1l-0.6-2.7c-1.7-8.7,4.1-17.1,12.8-18.8s17.1,4.1,18.8,12.8l0.3,2.3l1.9-1.2c2.5-1.6,5.9-0.9,7.5,1.6
	c0.6,0.9,0.9,1.9,0.9,2.9c0,0.3,0,0.5,0,0.8l-0.3,2.4l2.3-0.8c4.5-1.6,9.5,0.8,11.1,5.4C811.5,93,811.7,93.9,811.7,94.9L811.7,94.9z
	"/>
<path class="st14" d="M544,370.8v8.2H421.6v-8.2c0-5.8,4.7-10.5,10.6-10.5c0,0,0,0,0,0h7.9c10.4,0,18.8-8.4,18.8-18.8v-29.9h48v29.8
	c0,10.4,8.4,18.8,18.8,18.8h7.8C539.3,360.2,544,364.9,544,370.8C544,370.8,544,370.8,544,370.8z"/>
<rect x="458.8" y="316.2" class="st16" width="48" height="17.7"/>
<path class="st14" d="M295.4,35.3h374.8c9,0,16.3,7.3,16.3,16.3v250.8c0,9-7.3,16.3-16.3,16.3H295.4c-9,0-16.3-7.3-16.3-16.3V51.7
	C279.1,42.6,286.4,35.3,295.4,35.3z"/>
<linearGradient id="SVGID_11_" gradientUnits="userSpaceOnUse" x1="481.4196" y1="-141.7801" x2="484.5197" y2="157.08" gradientTransform="matrix(1 0 0 -1 0 156.1)">
	<stop  offset="0" style="stop-color:#034078"/>
	<stop  offset="1" style="stop-color:#25CED1"/>
</linearGradient>
<rect x="290.3" y="46.6" class="st24" width="385" height="233.5"/>
<circle class="st16" cx="482.8" cy="297.6" r="8.4"/>
<text transform="matrix(1 0 0 1 566.3231 173.19)" class="st4 st19 st25">75</text>
<rect x="554.3" y="198.8" class="st21" width="53.7" height="5.2"/>
<rect x="595.1" y="73.3" class="st21" width="53.7" height="5.2"/>
<rect x="525.3" y="73.3" class="st21" width="53.7" height="5.2"/>
<rect x="459.3" y="73.3" class="st21" width="53.7" height="5.2"/>
<rect x="386.6" y="71.7" class="st21" width="53.7" height="5.2"/>
<path class="st21" d="M555,209.1h52.2c0.4,0,0.8,0.3,0.8,0.8v0.3c0,0.4-0.3,0.8-0.8,0.8H555c-0.4,0-0.8-0.3-0.8-0.8v-0.3
	C554.3,209.5,554.6,209.1,555,209.1z"/>
<path class="st21" d="M555,215.2h52.2c0.4,0,0.8,0.3,0.8,0.8v0.3c0,0.4-0.3,0.8-0.8,0.8H555c-0.4,0-0.8-0.3-0.8-0.8v-0.3
	C554.3,215.5,554.6,215.2,555,215.2z"/>
<path class="st21" d="M555,221.1h52.2c0.4,0,0.8,0.3,0.8,0.8v0.3c0,0.4-0.3,0.8-0.8,0.8H555c-0.4,0-0.8-0.3-0.8-0.8v-0.3
	C554.3,221.4,554.6,221.1,555,221.1z"/>
<path class="st21" d="M471.1,215.2h52.2c0.4,0,0.8,0.3,0.8,0.8v0.3c0,0.4-0.3,0.8-0.8,0.8h-52.2c-0.4,0-0.8-0.3-0.8-0.8v-0.3
	C470.4,215.5,470.7,215.2,471.1,215.2z"/>
<path class="st21" d="M471.1,221.1h52.2c0.4,0,0.8,0.3,0.8,0.8v0.3c0,0.4-0.3,0.8-0.8,0.8h-52.2c-0.4,0-0.8-0.3-0.8-0.8v-0.3
	C470.4,221.4,470.7,221.1,471.1,221.1z"/>
<path class="st21" d="M380.8,215.2H433c0.4,0,0.8,0.3,0.8,0.8v0.3c0,0.4-0.3,0.8-0.8,0.8h-52.2c-0.4,0-0.8-0.3-0.8-0.8v-0.3
	C380.1,215.5,380.4,215.2,380.8,215.2z"/>
<path class="st21" d="M380.8,209H433c0.4,0,0.8,0.3,0.8,0.8v0.3c0,0.4-0.3,0.8-0.8,0.8h-52.2c-0.4,0-0.8-0.3-0.8-0.8v-0.3
	C380.1,209.3,380.4,209,380.8,209z"/>
<path class="st21" d="M380.8,221.1H433c0.4,0,0.8,0.3,0.8,0.8v0.3c0,0.4-0.3,0.8-0.8,0.8h-52.2c-0.4,0-0.8-0.3-0.8-0.8v-0.3
	C380.1,221.4,380.4,221.1,380.8,221.1z"/>
<path class="st21" d="M380.2,228.8h52.2c0.4,0,0.8,0.3,0.8,0.8v0.3c0,0.4-0.3,0.8-0.8,0.8h-52.2c-0.4,0-0.8-0.3-0.8-0.8v-0.3
	C379.4,229.1,379.8,228.8,380.2,228.8z"/>
<rect x="364.4" y="189.7" class="st4" width="5.6" height="39.5"/>
<rect x="379.9" y="175.8" class="st4" width="28.8" height="27.9"/>
<path class="st17" d="M350,129.1c42.3-4.1,51.1,57.8,92.9,22.2c32-27.3,48-13.9,67.6,7.8c19.6,21.7,40.8-49,83.6-3.1"/>
<circle class="st22" cx="594.1" cy="155.9" r="4.7"/>
<path class="st22" d="M421.2,162.9c0,1.9-1.5,3.4-3.4,3.4s-3.4-1.5-3.4-3.4s1.5-3.4,3.4-3.4h0C419.7,159.5,421.2,161,421.2,162.9
	C421.2,162.8,421.2,162.9,421.2,162.9z"/>
<path class="st22" d="M478.9,135.8c0,1.9-1.5,3.4-3.4,3.4c-1.9,0-3.4-1.5-3.4-3.4s1.5-3.4,3.4-3.4c0,0,0,0,0,0
	C477.4,132.4,478.9,133.9,478.9,135.8C478.9,135.7,478.9,135.7,478.9,135.8z"/>
<path class="st22" d="M522.2,162.9c0,1.9-1.5,3.4-3.4,3.4c-1.9,0-3.4-1.5-3.4-3.4s1.5-3.4,3.4-3.4c0,0,0,0,0,0
	C520.7,159.5,522.2,161,522.2,162.9C522.2,162.9,522.2,162.9,522.2,162.9z"/>
<path class="st14" d="M341.3,268.1h186.4c2.8,0,5.1,2.3,5.1,5.1v103.7c0,2.8-2.3,5.1-5.1,5.1H341.3c-2.8,0-5.1-2.3-5.1-5.1V273.2
	C336.2,270.4,338.5,268.1,341.3,268.1z"/>
<linearGradient id="SVGID_12_" gradientUnits="userSpaceOnUse" x1="335.215" y1="-183.0765" x2="526.145" y2="-182.1065" gradientTransform="matrix(1 0 0 -1 -11.37 142.6)">
	<stop  offset="0" style="stop-color:#034078"/>
	<stop  offset="1" style="stop-color:#25CED1"/>
</linearGradient>
<path class="st26" d="M526.9,378H359.5c-1,0-1.9-0.8-1.9-1.9l0,0v-102c0-1,0.8-1.9,1.9-1.9c0,0,0,0,0,0h167.3c1,0,1.9,0.8,1.9,1.9
	c0,0,0,0,0,0v25.6c0,0.7-0.3,1.3-0.9,1.6l-4.3,2.7c-0.6,0.3-0.9,1-0.9,1.6v39.2c0,0.7,0.3,1.3,0.9,1.6l4.3,2.6
	c0.6,0.3,0.9,1,0.9,1.7v25.6C528.8,377.2,527.9,378,526.9,378z"/>
<path class="st0" d="M373,343.5v-36.9c0-3.6,2.9-6.5,6.5-6.5l0,0c3.6,0,6.5,2.9,6.5,6.5v36.9c0,3.6-2.9,6.5-6.5,6.5l0,0
	C375.9,350,373,347.1,373,343.5z"/>
<path class="st21" d="M347.1,329.5c-2.5,0-4.5-2-4.5-4.5c0-2.5,2-4.5,4.5-4.5c2.5,0,4.5,2,4.5,4.5c0,0,0,0,0,0
	C351.6,327.5,349.6,329.5,347.1,329.5z"/>
<path class="st21" d="M525.5,335.2v-25c0-0.6,0.5-1.2,1.2-1.2c0,0,0,0,0,0l0,0c0.6,0,1.2,0.5,1.2,1.2c0,0,0,0,0,0v25
	c0,0.6-0.5,1.2-1.2,1.2l0,0C526,336.4,525.5,335.9,525.5,335.2z"/>
<circle class="st21" cx="526.7" cy="339.8" r="1.2"/>
<path class="st21" d="M424.3,325.1L424.3,325.1c0-7.2,5.8-13,13-13l0,0l0,0c7.2,0,13,5.8,13,13l0,0c0,7.2-5.8,13-13,13l0,0
	C430.1,338.1,424.3,332.2,424.3,325.1z"/>
<path class="st21" d="M424.3,294.3L424.3,294.3c0-7.2,5.8-13,13-13l0,0c7.2,0,13,5.8,13,13l0,0c0,7.2-5.8,13-13,13l0,0
	C430.1,307.3,424.3,301.5,424.3,294.3z"/>
<path class="st21" d="M424.3,355.9L424.3,355.9c0-7.2,5.8-13,13-13l0,0c7.2,0,13,5.8,13,13l0,0c0,7.2-5.8,13-13,13l0,0
	C430.1,368.9,424.3,363,424.3,355.9z"/>
<rect x="392.7" y="312" class="st21" width="26.1" height="26.1"/>
<rect x="392.7" y="281.2" class="st21" width="26.1" height="26.1"/>
<rect x="392.7" y="342.8" class="st21" width="26.1" height="26.1"/>
<line class="st27" x1="336.2" y1="334.6" x2="312.5" y2="334.6"/>
<path class="st14" d="M60.9,206.6h247.6c3.5,0,6.3,2.8,6.3,6.3v156.6c0,3.5-2.8,6.3-6.3,6.3H60.9c-3.5,0-6.3-2.8-6.3-6.3V212.9
	C54.6,209.4,57.4,206.6,60.9,206.6z"/>
<linearGradient id="SVGID_13_" gradientUnits="userSpaceOnUse" x1="80.825" y1="-135.11" x2="309.755" y2="-135.11" gradientTransform="matrix(1 0 0 -1 0 156.1)">
	<stop  offset="0" style="stop-color:#25CED1"/>
	<stop  offset="1" style="stop-color:#0097CE"/>
</linearGradient>
<path class="st28" d="M83.1,211.6h224.3c1.3,0,2.3,1,2.3,2.3v154.5c0,1.3-1,2.3-2.3,2.3H83.1c-1.3,0-2.3-1-2.3-2.3V213.9
	C80.8,212.7,81.9,211.6,83.1,211.6z"/>
<path class="st16" d="M68,291.7c-3,0-5.5-2.4-5.5-5.5c0-3,2.4-5.5,5.5-5.5c3,0,5.5,2.4,5.5,5.5c0,0,0,0,0,0
	C73.4,289.2,71,291.7,68,291.7C68,291.7,68,291.7,68,291.7z"/>
<polyline class="st27" points="532.9,325.1 602.6,325.1 602.6,356.9 630.4,356.9 "/>
<linearGradient id="SVGID_14_" gradientUnits="userSpaceOnUse" x1="674.7358" y1="-141.35" x2="676.0159" y2="-190.64" gradientTransform="matrix(1 0 0 -1 0 156.1)">
	<stop  offset="0" style="stop-color:#FFC359"/>
	<stop  offset="1" style="stop-color:#F9AD5A"/>
</linearGradient>
<polygon class="st29" points="719,320.3 675.3,350.5 631.6,320.3 "/>
<polygon class="st4" points="707.3,297.5 707.3,376.6 639.4,376.6 639.4,288.5 699,288.5 "/>
<rect x="647.8" y="295.6" class="st30" width="14.2" height="11.9"/>
<rect x="647.8" y="312.3" class="st31" width="52.3" height="2.4"/>
<rect x="647.8" y="319.1" class="st31" width="42.4" height="2.4"/>
<rect x="647.8" y="325.7" class="st31" width="48.7" height="2.4"/>
<rect x="647.8" y="336" class="st31" width="35.5" height="2.4"/>
<rect x="647.8" y="342.9" class="st31" width="54.4" height="2.4"/>
<rect x="647.8" y="349.5" class="st31" width="48.7" height="2.4"/>
<rect x="647.8" y="355.7" class="st32" width="34.5" height="2.4"/>
<path class="st30" d="M639.4,325c0,0,36.2,22,64.2,9.2s-35.5,23.5-35.5,23.5s-26.2-13.3-26.4-13.5s-2.5-14.1-2.5-14.1L639.4,325z"/>
<polygon class="st33" points="719,320.3 719,380.8 631.6,380.8 631.6,320.3 675.3,350.5 "/>
<linearGradient id="SVGID_15_" gradientUnits="userSpaceOnUse" x1="675.9427" y1="-258.86" x2="674.6527" y2="-186.86" gradientTransform="matrix(1 0 0 -1 0 156.1)">
	<stop  offset="0" style="stop-color:#FFC359"/>
	<stop  offset="1" style="stop-color:#F9AD5A"/>
</linearGradient>
<polygon class="st34" points="631.6,380.8 675.3,350.5 719,380.8 "/>
<polygon class="st35" points="698.3,297.6 707.3,297.5 699,288.5 "/>
<path class="st36" d="M348.9,133.9h-98.2l4.5-5.2c2-2.3,4.8-3.5,7.8-3.5h77.3C345,125.2,348.9,129.1,348.9,133.9L348.9,133.9
	L348.9,133.9z"/>
<path class="st33" d="M234.2,133.9h114.7l0,0v68.6c0,2.7-2.2,4.9-4.9,4.9H234.2c-2.7,0-4.9-2.2-4.9-4.9v-63.7
	C229.2,136.1,231.5,133.9,234.2,133.9z"/>
<path class="st36" d="M749.3,127.1h-40.2l1.9-2.1c0.8-0.9,2-1.4,3.2-1.5h31.6C747.7,123.5,749.3,125.1,749.3,127.1L749.3,127.1
	L749.3,127.1z"/>
<path class="st33" d="M703.4,127.1h45.9l0,0v27c0,1.7-1.4,3.1-3.1,3.1h-42.8c-1.7,0-3.1-1.4-3.1-3.1v-23.9
	C700.3,128.5,701.6,127.1,703.4,127.1C703.4,127.1,703.4,127.1,703.4,127.1z"/>
<polygon class="st37" points="315.9,322 316.1,328.7 322.4,328.8 323.2,319.9 "/>
<path class="st38" d="M322.6,326.4l-7.2,0.3c0,0-0.3,3.1-5.7,4.2s-11.6,1.9-11.2,10.1l18.9-0.9l0.8-2.2l1,2.1l4.1-0.2L322.6,326.4z"
	/>
<polygon class="st39" points="323,242.7 307.3,245.5 305.2,255.4 315.8,323.8 323.2,323.3 323.6,251.2 "/>
<path class="st40" d="M329.5,339.5v0.7h15.4v-0.7c0-1-0.8-1.7-1.7-1.7c0,0,0,0,0,0l0,0c-1.6,0-2.8-1.3-2.8-2.8l0,0v-70.2H334V335
	c0,1.6-1.3,2.8-2.8,2.8l0,0l0,0C330.3,337.8,329.5,338.6,329.5,339.5z"/>
<path class="st41" d="M317.6,266.3h39.1c2.7,0,4.8-2.2,4.8-4.8l0,0c0-2.7-2.2-4.8-4.8-4.8h-39.1c-2.7,0-4.8,2.2-4.8,4.8l0,0
	C312.8,264.1,315,266.3,317.6,266.3z"/>
<path class="st42" d="M358,232.3L358,232.3c0.9,0.1,1.7,0.8,1.7,1.8v12.8c0,2.4-0.9,4.7-2.4,6.5l0,0c-1.9,2.3-4.7,3.6-7.7,3.5h-44.2
	v-10.4l30.2-16L358,232.3z"/>
<polygon class="st37" points="290.2,321.3 288.7,327.8 294.7,329.6 297.8,321.1 "/>
<path class="st38" d="M295.5,327.3l-7-1.5c0,0-1,2.9-6.6,2.6s-11.7-1.1-13.4,7l18.5,3.9l1.3-2l0.4,2.3l4,0.8L295.5,327.3z"/>
<polygon class="st43" points="341.3,170.2 350.6,169.2 348.8,150.3 340,158.6 "/>
<path class="st44" d="M328.1,146.5c0,0,1.5,1.9,1.3,5.8c-0.1,1.3-0.3,2.5-0.8,3.7c-0.1,0.5,0.2,1.1,0.7,1.2c0.1,0,0.1,0,0.2,0
	l2.4,0.1c0,0,3.2,8.4,5.9,7.9c0.6-0.1,1.1-0.3,1.6-0.6c2.8-1.4,5-2.5,6.5-6c1.1-2.5,1.6-8.3,1.6-8.3s-5.7-11.5-13-10.7
	S328.1,146.5,328.1,146.5z"/>
<path class="st18" d="M347.8,146.5l-0.8,3.9l-4-5.9c0,0-13.6,6.5-20.8,0.8c-9.2-7.4-1.7-18,7-9.4c0,0,5.8-4.7,8-1.8
	c0,0,7.5-1,12,4.6s5.3,12.2,0.5,20.5l-1.6-3.3L347.8,146.5z"/>
<path class="st44" d="M346,148.2c0.4-2.4,2.6-3.1,3.2-1.1s0.7,5.7-0.5,6.2l-0.5,0.2c-0.4,0.2-0.8,0-1-0.3c0,0,0-0.1,0-0.1L346,148.2
	z"/>
<path class="st45" d="M350.7,165.7l-11.6,3.1c-0.9,0.2-1.5,0.9-1.7,1.8l0,0c0,0-7.7,14.9-8.5,21.6c-0.8,6.2,1.6,31.9,2,36.3
	c0,0.4,0.3,0.6,0.7,0.6h26.3c0.5,0,0.9-0.4,0.9-0.9c0.3-4.7,1.8-28,2-36.8C361.2,181.6,358.1,164.4,350.7,165.7z"/>
<path class="st46" d="M329.6,213c0.5,7,1.1,13.5,1.3,15.5c0,0.4,0.3,0.6,0.7,0.6h2.6c1.6-1.5,2.8-3.5,3.2-5.7
	c1.1-4.7,4.7-17.5,4.7-18.7s-0.2-13.5-0.2-13.5l-0.9-2.7C334.6,213.5,333.3,218.7,329.6,213z"/>
<path class="st46" d="M338.9,229.1H358c0.5,0,0.9-0.4,0.9-0.9c0.1-1.3,0.2-3.9,0.5-7.1l-0.1-0.1c-6,16.1-7.2-37.9-7.2-37.9
	l-4.9,10.3L338.9,229.1z"/>
<rect x="331.6" y="229.1" class="st47" width="26.4" height="3.2"/>
<path class="st37" d="M350.1,213.4v3.6c0,4.2-2.6,7.9-6.5,9.4l-32.7,12.4l-0.5-6l27.8-17.3l0.2-10.4L350.1,213.4z"/>
<polygon class="st48" points="350.1,213.4 338.2,211.6 338,209.4 350.4,209.3 "/>
<path class="st49" d="M346.5,173.7c-10.6,0.3-8.3,22.1-8.5,36.2h13.7C351.7,209.9,356,173.5,346.5,173.7z"/>
<path class="st37" d="M311.6,232.6l-8.1-0.5c-0.5,0-0.9,0.2-1.2,0.6l-1.8,2.6c-0.5,0.7-0.7,1.5-0.6,2.4v0.3c0.2,1.4,1.1,2.6,2.5,3.1
	l0.7,0.2c0.3,0.1,0.6,0,0.8-0.2l0,0c0.3-0.3,0.3-0.8,0-1c0,0-0.1-0.1-0.1-0.1l-0.7-0.5c0,0,5.3,0.7,8.3-0.5S311.6,232.6,311.6,232.6
	z"/>
<path class="st42" d="M317.3,246.4l-8.1-0.6c-4.8-0.4-9.3,2.2-11.4,6.4l0,0c-0.6,1.3-1,2.7-1.2,4.1l-6.9,66.8l7.2,1.4l18.8-69.6
	L317.3,246.4z"/>
<rect x="298.3" y="238.9" transform="matrix(0.9671 -0.2544 0.2544 0.9671 -50.9214 88.1568)" class="st14" width="34" height="4"/>
<polygon class="st14" points="302.1,243.4 270.4,218.8 267.9,222 299.6,246.6 "/>
<path class="st21" d="M280.9,241.3H112c-4.5,0-8.1-3.6-8.1-8.1l0,0l0,0c0-4.5,3.6-8.1,8.1-8.1c0,0,0,0,0,0h168.9
	c4.5,0,8.1,3.6,8.1,8.1l0,0l0,0C289.1,237.6,285.4,241.3,280.9,241.3L280.9,241.3z"/>
<circle class="st18" cx="486.2" cy="322.7" r="23.4"/>
<path class="st4" d="M485,332.7c-1.3,0-2.3-0.9-2.5-2.2c0-0.1,0-0.2,0-0.3v-14.8c0-1.4,1.1-2.5,2.5-2.5c1.4,0,2.5,1.1,2.5,2.5
	c0,0.3-0.1,0.6-0.2,0.9l-0.3,0.7l0.8-0.2c2.5-0.6,4.9,0.9,5.5,3.4c0.3,1.4,0,2.9-1,4c-0.7,0.8-1.7,1.4-2.8,1.5l-0.7,0.1l0.4,0.5
	c0.5,0.7,0.2,1.7-0.5,2.2c-0.2,0.2-0.5,0.2-0.8,0.2h-0.2l-0.7-0.1l0.2,0.6c0.1,0.3,0.1,0.5,0.1,0.8
	C487.5,331.6,486.4,332.7,485,332.7L485,332.7z"/>
<path class="st17" d="M120,312.2c19.7-1.9,23.8,26.9,43.3,10.3c14.9-12.7,22.3-6.5,31.5,3.6s19-22.8,38.9-1.4"/>
<text transform="matrix(1 0 0 1 247.995 321.57)" class="st4 st19 st50">75</text>
<rect x="242.4" y="333.5" class="st21" width="25" height="2.4"/>
<path class="st21" d="M266.9,339.1h-24.1c-0.2,0-0.4-0.2-0.4-0.4l0,0c0-0.2,0.2-0.4,0.4-0.4H267c0.2,0,0.4,0.2,0.4,0.4l0,0
	C267.4,339,267.2,339.2,266.9,339.1C267,339.2,267,339.2,266.9,339.1z"/>
<path class="st21" d="M266.9,342h-24.1c-0.2,0-0.4-0.2-0.4-0.4l0,0c0-0.2,0.2-0.4,0.4-0.4H267c0.2,0,0.4,0.2,0.4,0.4l0,0
	C267.4,341.8,267.2,342,266.9,342C267,342,267,342,266.9,342z"/>
<path class="st21" d="M266.9,344.7h-24.1c-0.2,0-0.4-0.2-0.4-0.4l0,0c0-0.2,0.2-0.4,0.4-0.4c0,0,0,0,0,0H267c0.2,0,0.4,0.2,0.4,0.4
	c0,0,0,0,0,0l0,0C267.4,344.5,267.2,344.7,266.9,344.7C267,344.7,267,344.7,266.9,344.7z"/>
<path class="st21" d="M266.9,347.4h-24.1c-0.2,0-0.4-0.2-0.4-0.4l0,0c0-0.2,0.2-0.4,0.4-0.4H267c0.2,0,0.4,0.2,0.4,0.4l0,0
	C267.4,347.3,267.2,347.4,266.9,347.4C267,347.4,267,347.4,266.9,347.4z"/>
<path class="st21" d="M227.9,342h-24.1c-0.2,0-0.4-0.2-0.4-0.4l0,0c0-0.2,0.2-0.4,0.4-0.4h24.1c0.2,0,0.4,0.2,0.4,0.4l0,0
	C228.3,341.8,228.1,342,227.9,342z"/>
<path class="st21" d="M227.9,344.7h-24.1c-0.2,0-0.4-0.2-0.4-0.4l0,0c0-0.2,0.2-0.4,0.4-0.4c0,0,0,0,0,0h24.1c0.2,0,0.4,0.2,0.4,0.4
	c0,0,0,0,0,0l0,0C228.3,344.5,228.1,344.7,227.9,344.7z"/>
<path class="st21" d="M227.9,347.4h-24.1c-0.2,0-0.4-0.2-0.4-0.4l0,0c0-0.2,0.2-0.4,0.4-0.4h24.1c0.2,0,0.4,0.2,0.4,0.4l0,0
	C228.3,347.3,228.1,347.4,227.9,347.4z"/>
<path class="st21" d="M185.8,342h-24.1c-0.2,0-0.4-0.2-0.4-0.4l0,0c0-0.2,0.2-0.4,0.4-0.4h24.1c0.2,0,0.4,0.2,0.4,0.4l0,0
	C186.2,341.8,186,342,185.8,342z"/>
<path class="st21" d="M185.8,339.1h-24.1c-0.2,0-0.4-0.2-0.4-0.4l0,0c0-0.2,0.2-0.4,0.4-0.4h24.1c0.2,0,0.4,0.2,0.4,0.4l0,0
	C186.2,338.9,186,339.1,185.8,339.1z"/>
<path class="st21" d="M185.8,344.7h-24.1c-0.2,0-0.4-0.2-0.4-0.4l0,0c0-0.2,0.2-0.4,0.4-0.4c0,0,0,0,0,0h24.1c0.2,0,0.4,0.2,0.4,0.4
	c0,0,0,0,0,0l0,0C186.2,344.5,186,344.7,185.8,344.7z"/>
<path class="st21" d="M185.8,347.4h-24.1c-0.2,0-0.4-0.2-0.4-0.4l0,0c0-0.2,0.2-0.4,0.4-0.4h24.1c0.2,0,0.4,0.2,0.4,0.4l0,0
	C186.2,347.3,186,347.4,185.8,347.4z"/>
<path class="st21" d="M140.9,344.7h-24.2c-0.2,0-0.4-0.2-0.4-0.4l0,0c0-0.2,0.2-0.4,0.4-0.4c0,0,0,0,0,0h24.1c0.2,0,0.4,0.2,0.4,0.4
	c0,0,0,0,0,0l0,0C141.3,344.5,141.1,344.7,140.9,344.7z"/>
<path class="st21" d="M140.9,347.4h-24.2c-0.2,0-0.4-0.2-0.4-0.4l0,0c0-0.2,0.2-0.4,0.4-0.4h24.1c0.2,0,0.4,0.2,0.4,0.4l0,0
	C141.3,347.3,141.1,347.4,140.9,347.4z"/>
<path class="st22" d="M235.9,324.7c0,1.2-1,2.2-2.2,2.2c-1.2,0-2.2-1-2.1-2.2c0-1.2,1-2.2,2.2-2.2
	C234.9,322.6,235.9,323.5,235.9,324.7C235.9,324.7,235.9,324.7,235.9,324.7z"/>
<path class="st22" d="M153.2,328c0,0.9-0.7,1.6-1.6,1.6s-1.6-0.7-1.6-1.6s0.7-1.6,1.6-1.6c0,0,0,0,0,0
	C152.5,326.4,153.2,327.1,153.2,328z"/>
<circle class="st22" cx="178.5" cy="315.3" r="1.6"/>
<path class="st22" d="M200.2,328c0,0.9-0.7,1.6-1.6,1.6s-1.6-0.7-1.6-1.6s0.7-1.6,1.6-1.6l0,0C199.5,326.4,200.2,327.1,200.2,328z"
	/>
<ellipse transform="matrix(0.3245 -0.9459 0.9459 0.3245 -129.8013 371.6085)" class="st18" cx="195.3" cy="276.7" rx="23.4" ry="23.4"/>
<circle class="st18" cx="324.3" cy="73.3" r="17.2"/>
<path class="st4" d="M334.1,74.8c0,1.4-1.1,2.5-2.5,2.5H317c-1.4,0-2.5-1.1-2.5-2.5s1.1-2.5,2.5-2.5c0.3,0,0.6,0.1,0.9,0.2l0.7,0.3
	l-0.2-0.8c-0.1-0.3-0.1-0.7-0.1-1c-0.1-2.5,1.8-4.6,4.3-4.7c2.4-0.1,4.4,1.7,4.7,4l0.1,0.6l0.5-0.4c0.7-0.5,1.7-0.3,2.1,0.5
	c0.2,0.2,0.2,0.5,0.2,0.8c0,0.1,0,0.1,0,0.2l-0.1,0.7l0.6-0.2c1.3-0.4,2.7,0.2,3.1,1.5C334.1,74.2,334.1,74.5,334.1,74.8L334.1,74.8
	z"/>
<path class="st4" d="M210.5,277.8c0,1.8-1.3,3.3-3.1,3.5c-0.1,0-0.3,0-0.4,0h-20.9c-2,0-3.6-1.6-3.6-3.6s1.6-3.6,3.6-3.6
	c0,0,0,0,0,0c0.4,0,0.9,0.1,1.3,0.2l1,0.4l-0.2-1.1c-0.1-0.5-0.2-1-0.2-1.5c0-3.6,2.9-6.4,6.5-6.4c3.2,0,5.9,2.3,6.4,5.5l0.1,0.9
	l0.8-0.5c0.4-0.2,0.8-0.3,1.2-0.3c1.2,0,2.2,1,2.2,2.2c0,0.1,0,0.2,0,0.3l-0.1,1l0.9-0.3c1.8-0.6,3.8,0.4,4.5,2.2
	C210.4,277,210.5,277.4,210.5,277.8L210.5,277.8z"/>
</svg>
