<?xml version="1.0" encoding="utf-8"?>
<!-- Generator: Adobe Illustrator 25.1.0, SVG Export Plug-In . SVG Version: 6.00 Build 0)  -->
<svg version="1.1" id="Capa_1" xmlns="http://www.w3.org/2000/svg" xmlns:xlink="http://www.w3.org/1999/xlink" x="0px" y="0px"
	 viewBox="0 0 867.6 387.6" style="enable-background:new 0 0 867.6 387.6;" xml:space="preserve">
<style type="text/css">
	.st0{fill:#25CED1;}
	.st1{fill:url(#SVGID_1_);}
	.st2{fill:#249680;}
	.st3{fill:url(#SVGID_2_);}
	.st4{fill:#FFFFFF;}
	.st5{fill:none;stroke:url(#SVGID_3_);stroke-width:0.5;stroke-miterlimit:10;}
	.st6{fill:none;stroke:url(#SVGID_4_);stroke-width:0.5;stroke-miterlimit:10;}
	.st7{fill:none;stroke:url(#SVGID_5_);stroke-width:0.5;stroke-miterlimit:10;}
	.st8{fill:none;stroke:url(#SVGID_6_);stroke-width:0.5;stroke-miterlimit:10;}
	.st9{fill:#444444;}
	.st10{fill:url(#SVGID_7_);}
	.st11{fill:#5B5B5B;}
	.st12{fill:none;stroke:#FFC36C;stroke-miterlimit:10;}
	.st13{fill:#1282A2;}
	.st14{font-family:'Arial-BoldMT';}
	.st15{font-size:9.4px;}
	.st16{fill:#EFEFEF;}
	.st17{fill:#F9BB58;}
	.st18{fill:#565656;}
	.st19{fill:url(#SVGID_8_);}
	.st20{font-size:22.801px;}
	.st21{fill:none;stroke:#95BDE5;stroke-width:5;stroke-miterlimit:10;}
	.st22{fill:#2D2D2D;}
	.st23{fill:url(#SVGID_9_);}
	.st24{fill:url(#SVGID_10_);}
	.st25{fill:url(#SVGID_11_);}
	.st26{opacity:0.1;fill:#474849;enable-background:new    ;}
	.st27{fill:#F2F2F2;}
	.st28{fill:#C6C6C6;}
	.st29{fill:#FFAE2C;}
	.st30{fill:#E28600;}
	.st31{fill:#DBDDDD;}
	.st32{font-size:7.29px;}
	.st33{fill:#161616;}
	.st34{fill:url(#SVGID_12_);}
</style>
<path class="st0" d="M856.7,387.5H16.3c-6,0-10.8-4.7-10.8-10.6l0,0c0-5.9,4.8-10.6,10.8-10.6h840.5c6,0,10.8,4.8,10.8,10.6l0,0
	C867.7,382.8,862.7,387.5,856.7,387.5z"/>
<linearGradient id="SVGID_1_" gradientUnits="userSpaceOnUse" x1="712.5718" y1="70.9586" x2="743.9218" y2="173.8587" gradientTransform="matrix(1 0 0 -1 -11.37 490.6)">
	<stop  offset="0" style="stop-color:#22AFBD"/>
	<stop  offset="1" style="stop-color:#FFC359"/>
</linearGradient>
<path class="st1" d="M811.6,369.8l-190-1.4c4.4-12.8,14.9-28,21.2-35.9l7.9,11.8l-2.8-17.1c8.8-7.6,19.4-12.8,30.8-15.3l4,14.5
	l-0.6-15.2c4.6-0.8,9.2-1.1,13.9-1l0.8,15.7l7-15.1l1,0.2c9.4,1.5,18.2,5.6,25.5,11.8l-2.4,13.2l7.8-7.6c5.3,6.5,9.4,15,10.9,26
	c2.2-5,5.6-9.3,9.8-12.8l3.5,8.4l-1-10.1c3.4-2.2,7.3-3.4,11.4-3.7l1.5,10.9l2.4-10.9c2.3,0.2,4.7,0.6,6.9,1.3
	c2.5,0.7,4.9,1.6,7.2,2.8l-1,8.3l2.4-7.6c3.5,1.9,6.8,4.4,9.6,7.2l-4.9,12.4l7.4-9.5C806.4,356.6,809.7,363,811.6,369.8z"/>
<path class="st2" d="M783.3,212.2l-1.7-0.3c0-0.2,3.7-23.4-0.2-39.3l1.7-0.4C787.1,188.4,783.5,211.3,783.3,212.2z"/>
<path class="st2" d="M771.8,229.3l-0.9-1.5c0.8-0.5,20.8-12,37.4-14l0.2,1.7C792.4,217.6,772,229.2,771.8,229.3z"/>
<linearGradient id="SVGID_2_" gradientUnits="userSpaceOnUse" x1="-1880.5114" y1="1308.2542" x2="-1842.4314" y2="1342.9442" gradientTransform="matrix(0.9894 -0.1452 -0.1452 -0.9894 2849.1562 1259.1265)">
	<stop  offset="0" style="stop-color:#22DEBD"/>
	<stop  offset="1" style="stop-color:#FFC359"/>
</linearGradient>
<path class="st3" d="M805,211.7c-2.4,8.2,7.9,21.6,32.4-2.4C837.4,209.3,807.6,202.6,805,211.7z"/>
<rect x="200" y="218.8" class="st4" width="76.2" height="7.5"/>
<rect x="200" y="234.3" class="st4" width="76.2" height="7.5"/>
<rect x="200" y="249.7" class="st4" width="76.2" height="7.5"/>
<rect x="200" y="265.2" class="st4" width="76.2" height="7.5"/>
<rect x="200" y="280.6" class="st4" width="76.2" height="7.5"/>
<rect x="200" y="296.1" class="st4" width="76.2" height="7.5"/>
<rect x="200" y="311.6" class="st4" width="76.2" height="7.5"/>
<rect x="200" y="327" class="st4" width="76.2" height="7.5"/>
<rect x="200" y="342.5" class="st4" width="76.2" height="7.5"/>
<rect x="349.4" y="75.8" class="st4" width="5.6" height="39.5"/>
<rect x="361.5" y="75.8" class="st4" width="5.6" height="39.5"/>
<rect x="374.7" y="75.8" class="st4" width="5.6" height="39.5"/>
<rect x="387.5" y="75.8" class="st4" width="5.6" height="39.5"/>
<rect x="336.2" y="191.1" class="st4" width="5.6" height="39.5"/>
<rect x="336.2" y="248.8" class="st4" width="5.6" height="39.4"/>
<rect x="333.8" y="214.1" class="st4" width="5.6" height="39.4"/>
<rect x="564.4" y="56.8" class="st4" width="28.8" height="27.9"/>
<rect x="521.5" y="56.8" class="st4" width="28.8" height="27.9"/>
<rect x="523.6" y="149.6" class="st4" width="28.8" height="27.9"/>
<rect x="523.6" y="213.4" class="st4" width="28.8" height="27.9"/>
<rect x="480.7" y="213.4" class="st4" width="28.8" height="27.9"/>
<rect x="564.4" y="311.9" class="st4" width="28.8" height="27.9"/>
<rect x="521.5" y="311.9" class="st4" width="28.8" height="27.9"/>
<linearGradient id="SVGID_3_" gradientUnits="userSpaceOnUse" x1="2573.8928" y1="268.65" x2="2580.4062" y2="268.65" gradientTransform="matrix(-1 0 0 -1 2627.519 490.6)">
	<stop  offset="0" style="stop-color:#FFFFFF"/>
	<stop  offset="1" style="stop-color:#DCEFFE"/>
</linearGradient>
<line class="st5" x1="53.5" y1="226.1" x2="47.3" y2="217.8"/>
<linearGradient id="SVGID_4_" gradientUnits="userSpaceOnUse" x1="2567.4141" y1="255.65" x2="2577.5649" y2="255.65" gradientTransform="matrix(-1 0 0 -1 2627.519 490.6)">
	<stop  offset="0" style="stop-color:#FFFFFF"/>
	<stop  offset="1" style="stop-color:#DCEFFE"/>
</linearGradient>
<line class="st6" x1="50.1" y1="236.9" x2="60" y2="233"/>
<linearGradient id="SVGID_5_" gradientUnits="userSpaceOnUse" x1="2584.3276" y1="247.1" x2="2590.2319" y2="247.1" gradientTransform="matrix(-1 0 0 -1 2627.519 490.6)">
	<stop  offset="0" style="stop-color:#FFFFFF"/>
	<stop  offset="1" style="stop-color:#DCEFFE"/>
</linearGradient>
<line class="st7" x1="43" y1="248.8" x2="37.5" y2="238.2"/>
<linearGradient id="SVGID_6_" gradientUnits="userSpaceOnUse" x1="2596.5244" y1="205.6" x2="2601.064" y2="205.6" gradientTransform="matrix(-1 0 0 -1 2627.519 490.6)">
	<stop  offset="0" style="stop-color:#FFFFFF"/>
	<stop  offset="1" style="stop-color:#DCEFFE"/>
</linearGradient>
<line class="st8" x1="26.7" y1="290.6" x2="30.8" y2="279.4"/>
<path class="st9" d="M566.9,156.7h263c9,0,16.3,7.3,16.3,16.3v173.1c0,9-7.3,16.3-16.3,16.3h-263c-9,0-16.3-7.3-16.3-16.3V173
	C550.5,164,557.9,156.7,566.9,156.7z"/>
<linearGradient id="SVGID_7_" gradientUnits="userSpaceOnUse" x1="697.4414" y1="156.8793" x2="699.6814" y2="373.7892" gradientTransform="matrix(1 0 0 -1 0 504.1)">
	<stop  offset="0" style="stop-color:#25CED1"/>
	<stop  offset="1" style="stop-color:#034078"/>
</linearGradient>
<rect x="558.7" y="164.8" class="st10" width="279.5" height="169.5"/>
<path class="st11" d="M704.5,347c0,3.4-2.7,6.1-6.1,6.1c-3.4,0-6.1-2.7-6.1-6.1s2.7-6.1,6.1-6.1l0,0
	C701.8,340.9,704.5,343.7,704.5,347z"/>
<path class="st11" d="M552.9,362.4h291c1.3,0,2.4,1.1,2.4,2.4v3c0,5-4.1,9.1-9.1,9.1l0,0H559.6c-5,0-9.1-4.1-9.1-9.1l0,0v-3
	C550.5,363.5,551.6,362.4,552.9,362.4L552.9,362.4z"/>
<path class="st12" d="M611.9,272.1c25.4-2.5,30.7,34.7,55.8,13.3c19.2-16.4,28.8-8.4,40.6,4.7s24.5-29.5,50.2-1.9"/>
<circle class="st13" cx="697.3" cy="229.6" r="28"/>
<text transform="matrix(1 0 0 1 776.9045 284.15)" class="st4 st14 st15">75</text>
<rect x="769.7" y="299.5" class="st16" width="32.2" height="3.1"/>
<path class="st16" d="M770.2,305.7h31.2c0.3,0,0.5,0.2,0.5,0.5v0.1c0,0.3-0.2,0.5-0.5,0.5h-31.3c-0.3,0-0.5-0.2-0.5-0.5v-0.1
	C769.7,306,769.9,305.7,770.2,305.7z"/>
<path class="st16" d="M770.2,309.4h31.2c0.3,0,0.5,0.2,0.5,0.5v0.1c0,0.3-0.2,0.5-0.5,0.5h-31.3c-0.3,0-0.5-0.2-0.5-0.5v-0.1
	C769.7,309.6,769.9,309.4,770.2,309.4z"/>
<path class="st16" d="M770.2,312.9h31.2c0.3,0,0.5,0.2,0.5,0.5v0.1c0,0.3-0.2,0.5-0.5,0.5h-31.3c-0.3,0-0.5-0.2-0.5-0.5v-0.1
	C769.7,313.1,769.9,312.9,770.2,312.9z"/>
<path class="st16" d="M770.2,316.4h31.2c0.3,0,0.5,0.2,0.5,0.5v0.1c0,0.3-0.2,0.5-0.5,0.5h-31.3c-0.3,0-0.5-0.2-0.5-0.5v-0.1
	C769.7,316.7,769.9,316.4,770.2,316.4z"/>
<path class="st16" d="M719.8,309.4h31.3c0.3,0,0.5,0.2,0.5,0.5v0.1c0,0.3-0.2,0.5-0.5,0.5h-31.3c-0.3,0-0.5-0.2-0.5-0.5v-0.1
	C719.3,309.6,719.5,309.4,719.8,309.4z"/>
<path class="st16" d="M719.8,312.9h31.3c0.3,0,0.5,0.2,0.5,0.5v0.1c0,0.3-0.2,0.5-0.5,0.5h-31.3c-0.3,0-0.5-0.2-0.5-0.5v-0.1
	C719.3,313.1,719.5,312.9,719.8,312.9z"/>
<path class="st16" d="M719.8,316.4h31.3c0.3,0,0.5,0.2,0.5,0.5v0.1c0,0.3-0.2,0.5-0.5,0.5h-31.3c-0.3,0-0.5-0.2-0.5-0.5v-0.1
	C719.3,316.7,719.5,316.4,719.8,316.4z"/>
<path class="st16" d="M665.6,309.4h31.3c0.3,0,0.5,0.2,0.5,0.5v0.1c0,0.3-0.2,0.5-0.5,0.5h-31.3c-0.3,0-0.5-0.2-0.5-0.5v-0.1
	C665.1,309.6,665.3,309.4,665.6,309.4z"/>
<path class="st16" d="M665.6,305.6h31.3c0.3,0,0.5,0.2,0.5,0.5v0.1c0,0.3-0.2,0.5-0.5,0.5h-31.3c-0.3,0-0.5-0.2-0.5-0.5v-0.1
	C665.1,305.9,665.3,305.6,665.6,305.6z"/>
<path class="st16" d="M665.6,312.9h31.3c0.3,0,0.5,0.2,0.5,0.5v0.1c0,0.3-0.2,0.5-0.5,0.5h-31.3c-0.3,0-0.5-0.2-0.5-0.5v-0.1
	C665.1,313.1,665.3,312.9,665.6,312.9z"/>
<path class="st16" d="M665.6,316.4h31.3c0.3,0,0.5,0.2,0.5,0.5v0.1c0,0.3-0.2,0.5-0.5,0.5h-31.3c-0.3,0-0.5-0.2-0.5-0.5v-0.1
	C665.1,316.7,665.3,316.4,665.6,316.4z"/>
<path class="st16" d="M607.6,312.9h31.3c0.3,0,0.5,0.2,0.5,0.5v0.1c0,0.3-0.2,0.5-0.5,0.5h-31.3c-0.3,0-0.5-0.2-0.5-0.5v-0.1
	C607.1,313.1,607.3,312.9,607.6,312.9z"/>
<path class="st16" d="M607.6,316.4h31.3c0.3,0,0.5,0.2,0.5,0.5v0.1c0,0.3-0.2,0.5-0.5,0.5h-31.3c-0.3,0-0.5-0.2-0.5-0.5v-0.1
	C607.1,316.7,607.3,316.4,607.6,316.4z"/>
<path class="st17" d="M761.3,288.2c0,1.5-1.2,2.8-2.8,2.8s-2.8-1.2-2.8-2.8c0-1.5,1.2-2.8,2.8-2.8l0,0
	C760.1,285.4,761.3,286.7,761.3,288.2z"/>
<path class="st17" d="M654.7,292.4c0,1.1-0.9,2-2,2s-2-0.9-2-2s0.9-2,2-2S654.7,291.3,654.7,292.4z"/>
<path class="st17" d="M689.3,276.1c0,1.1-0.9,2-2,2s-2-0.9-2-2s0.9-2,2-2S689.3,275,689.3,276.1z"/>
<path class="st17" d="M715.4,292.4c0,1.1-0.9,2-2,2s-2-0.9-2-2s0.9-2,2-2S715.4,291.3,715.4,292.4z"/>
<path class="st4" d="M713.2,232c0,2.2-1.8,4-4,4h-23.8c-2.3,0-4.1-1.8-4.1-4.1s1.8-4.1,4.1-4.1c0.5,0,1,0.1,1.5,0.3l1.2,0.5
	l-0.3-1.2c-0.1-0.5-0.2-1.1-0.2-1.7c-0.2-4.1,3-7.5,7-7.6c3.9-0.2,7.2,2.7,7.6,6.5l0.1,1l0.9-0.6c1.2-0.7,2.7-0.4,3.4,0.7
	c0.3,0.4,0.4,0.9,0.4,1.3c0,0.1,0,0.2,0,0.4l-0.2,1.1l1-0.4c2.1-0.7,4.4,0.4,5.1,2.5C713.1,231.1,713.2,231.5,713.2,232L713.2,232z"
	/>
<path class="st0" d="M781.1,94.9c0,4.4-3.2,8.1-7.6,8.7c-0.4,0-0.7,0.1-1.1,0.1h-52.1c-4.9,0-8.9-4-8.9-8.9s4-8.9,8.9-8.9
	c1.1,0,2.2,0.2,3.2,0.6l2.6,1l-0.6-2.7c-1.7-8.7,4.1-17.1,12.8-18.8s17.1,4.1,18.8,12.8l0.3,2.3l1.9-1.2c2.5-1.6,5.9-0.9,7.5,1.6
	c0.6,0.9,0.9,1.9,0.9,2.9c0,0.3,0,0.5,0,0.8l-0.3,2.4l2.3-0.8c4.5-1.6,9.5,0.8,11.1,5.4C780.9,93,781.1,93.9,781.1,94.9L781.1,94.9z
	"/>
<path class="st0" d="M92.1,119.8c0,1.9-1.4,3.6-3.2,3.9c-0.2,0-0.3,0-0.5,0H66.2c-2.1,0-3.8-1.8-3.8-3.9s1.7-3.9,3.8-3.9
	c0.5,0,0.9,0.1,1.4,0.3l1.1,0.4l-0.3-1.2c-0.7-3.9,1.7-7.6,5.5-8.3c3.7-0.8,7.3,1.8,8,5.7l0.1,1l0.8-0.5c1.1-0.7,2.5-0.4,3.2,0.7
	c0.3,0.4,0.4,0.8,0.4,1.3c0,0.1,0,0.2,0,0.4l-0.1,1.1l1-0.4c1.9-0.7,4,0.4,4.7,2.4C92,119,92.1,119.4,92.1,119.8L92.1,119.8z"/>
<path class="st0" d="M199.5,167.2c0,4.4-3.2,8.1-7.6,8.7c-0.4,0-0.7,0.1-1.1,0.1h-52.1c-4.9,0-8.9-4-8.9-8.9s4-8.9,8.9-8.9
	c1.1,0,2.2,0.2,3.2,0.6l2.6,1l-0.6-2.7c-1.7-8.7,4.1-17.1,12.8-18.8s17.1,4.1,18.8,12.8l0.3,2.3l1.9-1.2c2.5-1.6,5.9-0.9,7.5,1.6
	c0.6,0.9,0.9,1.9,0.9,2.9c0,0.3,0,0.5,0,0.8l-0.3,2.4l2.3-0.8c4.5-1.6,9.5,0.8,11.1,5.4C199.3,165.3,199.5,166.2,199.5,167.2
	L199.5,167.2z"/>
<path class="st11" d="M513.4,370.8v8.2H391v-8.2c0-5.8,4.7-10.5,10.6-10.5l0,0h7.9c10.4,0,18.8-8.4,18.8-18.8v-29.9h48v29.8
	c0,10.4,8.4,18.8,18.8,18.8h7.8C508.7,360.2,513.4,364.9,513.4,370.8L513.4,370.8z"/>
<rect x="428.2" y="316.2" class="st11" width="48" height="17.7"/>
<path class="st18" d="M264.8,35.3h374.8c9,0,16.3,7.3,16.3,16.3v250.8c0,9-7.3,16.3-16.3,16.3H264.8c-9,0-16.3-7.3-16.3-16.3V51.7
	C248.5,42.6,255.8,35.3,264.8,35.3z"/>
<linearGradient id="SVGID_8_" gradientUnits="userSpaceOnUse" x1="450.8045" y1="206.2197" x2="453.9046" y2="505.0799" gradientTransform="matrix(1 0 0 -1 0 504.1)">
	<stop  offset="0" style="stop-color:#034078"/>
	<stop  offset="1" style="stop-color:#25CED1"/>
</linearGradient>
<rect x="259.7" y="46.6" class="st19" width="385" height="233.5"/>
<circle class="st11" cx="452.2" cy="297.6" r="8.4"/>
<text transform="matrix(1 0 0 1 537.9695 187.9)" class="st4 st14 st20">75</text>
<rect x="523.7" y="198.8" class="st16" width="53.7" height="5.2"/>
<rect x="564.5" y="73.3" class="st16" width="53.7" height="5.2"/>
<rect x="494.7" y="73.3" class="st16" width="53.7" height="5.2"/>
<rect x="428.7" y="73.3" class="st16" width="53.7" height="5.2"/>
<rect x="356" y="73.7" class="st16" width="53.7" height="5.2"/>
<path class="st16" d="M524.4,209.1h52.2c0.4,0,0.8,0.3,0.8,0.8v0.3c0,0.4-0.3,0.8-0.8,0.8h-52.2c-0.4,0-0.8-0.3-0.8-0.8v-0.3
	C523.7,209.5,524,209.1,524.4,209.1z"/>
<path class="st16" d="M524.4,215.2h52.2c0.4,0,0.8,0.3,0.8,0.8v0.3c0,0.4-0.3,0.8-0.8,0.8h-52.2c-0.4,0-0.8-0.3-0.8-0.8V216
	C523.7,215.5,524,215.2,524.4,215.2z"/>
<path class="st16" d="M524.4,221.1h52.2c0.4,0,0.8,0.3,0.8,0.8v0.3c0,0.4-0.3,0.8-0.8,0.8h-52.2c-0.4,0-0.8-0.3-0.8-0.8v-0.3
	C523.7,221.4,524,221.1,524.4,221.1z"/>
<path class="st16" d="M440.5,215.2h52.2c0.4,0,0.8,0.3,0.8,0.8v0.3c0,0.4-0.3,0.8-0.8,0.8h-52.2c-0.4,0-0.8-0.3-0.8-0.8V216
	C439.8,215.5,440.1,215.2,440.5,215.2z"/>
<path class="st16" d="M440.5,221.1h52.2c0.4,0,0.8,0.3,0.8,0.8v0.3c0,0.4-0.3,0.8-0.8,0.8h-52.2c-0.4,0-0.8-0.3-0.8-0.8v-0.3
	C439.8,221.4,440.1,221.1,440.5,221.1z"/>
<path class="st16" d="M350.2,215.2h52.2c0.4,0,0.8,0.3,0.8,0.8v0.3c0,0.4-0.3,0.8-0.8,0.8h-52.2c-0.4,0-0.8-0.3-0.8-0.8V216
	C349.5,215.5,349.8,215.2,350.2,215.2z"/>
<path class="st16" d="M350.2,209h52.2c0.4,0,0.8,0.3,0.8,0.8v0.3c0,0.4-0.3,0.8-0.8,0.8h-52.2c-0.4,0-0.8-0.3-0.8-0.8v-0.3
	C349.5,209.3,349.8,209,350.2,209z"/>
<path class="st16" d="M350.2,221.1h52.2c0.4,0,0.8,0.3,0.8,0.8v0.3c0,0.4-0.3,0.8-0.8,0.8h-52.2c-0.4,0-0.8-0.3-0.8-0.8v-0.3
	C349.5,221.4,349.8,221.1,350.2,221.1z"/>
<path class="st16" d="M349.6,228.8h52.2c0.4,0,0.8,0.3,0.8,0.8v0.3c0,0.4-0.3,0.8-0.8,0.8h-52.2c-0.4,0-0.8-0.3-0.8-0.8v-0.3
	C348.8,229.1,349.2,228.8,349.6,228.8z"/>
<rect x="349.3" y="175.8" class="st4" width="28.8" height="27.9"/>
<path class="st12" d="M319.4,129.1c42.3-4.1,51.1,57.8,92.9,22.2c32-27.3,48-13.9,67.6,7.8s40.8-49,83.6-3.1"/>
<circle class="st17" cx="563.5" cy="155.9" r="4.7"/>
<path class="st17" d="M390.6,162.9c0,1.9-1.5,3.4-3.4,3.4s-3.4-1.5-3.4-3.4s1.5-3.4,3.4-3.4l0,0C389.1,159.5,390.6,161,390.6,162.9
	C390.6,162.8,390.6,162.9,390.6,162.9z"/>
<path class="st17" d="M448.3,135.8c0,1.9-1.5,3.4-3.4,3.4s-3.4-1.5-3.4-3.4s1.5-3.4,3.4-3.4l0,0
	C446.8,132.4,448.3,133.9,448.3,135.8C448.3,135.7,448.3,135.7,448.3,135.8z"/>
<path class="st17" d="M491.6,162.9c0,1.9-1.5,3.4-3.4,3.4s-3.4-1.5-3.4-3.4s1.5-3.4,3.4-3.4l0,0C490.1,159.5,491.6,161,491.6,162.9
	L491.6,162.9z"/>
<line class="st21" x1="305.6" y1="334.6" x2="281.9" y2="334.6"/>
<path class="st22" d="M310.7,268.1h186.4c2.8,0,5.1,2.3,5.1,5.1v103.7c0,2.8-2.3,5.1-5.1,5.1H310.7c-2.8,0-5.1-2.3-5.1-5.1V273.2
	C305.6,270.4,307.9,268.1,310.7,268.1z"/>
<linearGradient id="SVGID_9_" gradientUnits="userSpaceOnUse" x1="304.5847" y1="164.8935" x2="495.5147" y2="165.8635" gradientTransform="matrix(1 0 0 -1 -11.37 490.6)">
	<stop  offset="0" style="stop-color:#034078"/>
	<stop  offset="1" style="stop-color:#25CED1"/>
</linearGradient>
<path class="st23" d="M496.3,378H328.9c-1,0-1.9-0.8-1.9-1.9l0,0v-102c0-1,0.8-1.9,1.9-1.9l0,0h167.3c1,0,1.9,0.8,1.9,1.9l0,0v25.6
	c0,0.7-0.3,1.3-0.9,1.6l-4.3,2.7c-0.6,0.3-0.9,1-0.9,1.6v39.2c0,0.7,0.3,1.3,0.9,1.6l4.3,2.6c0.6,0.3,0.9,1,0.9,1.7v25.6
	C498.2,377.2,497.3,378,496.3,378z"/>
<path class="st0" d="M342.4,343.5v-36.9c0-3.6,2.9-6.5,6.5-6.5l0,0c3.6,0,6.5,2.9,6.5,6.5v36.9c0,3.6-2.9,6.5-6.5,6.5l0,0
	C345.3,350,342.4,347.1,342.4,343.5z"/>
<path class="st16" d="M316.5,329.5c-2.5,0-4.5-2-4.5-4.5s2-4.5,4.5-4.5s4.5,2,4.5,4.5l0,0C321,327.5,319,329.5,316.5,329.5z"/>
<path class="st16" d="M494.9,335.2v-25c0-0.6,0.5-1.2,1.2-1.2l0,0l0,0c0.6,0,1.2,0.5,1.2,1.2l0,0v25c0,0.6-0.5,1.2-1.2,1.2l0,0
	C495.4,336.4,494.9,335.9,494.9,335.2z"/>
<circle class="st16" cx="496.1" cy="339.8" r="1.2"/>
<path class="st16" d="M393.7,325.1L393.7,325.1c0-7.2,5.8-13,13-13l0,0l0,0c7.2,0,13,5.8,13,13l0,0c0,7.2-5.8,13-13,13l0,0
	C399.5,338.1,393.7,332.2,393.7,325.1z"/>
<path class="st16" d="M393.7,294.3L393.7,294.3c0-7.2,5.8-13,13-13l0,0c7.2,0,13,5.8,13,13l0,0c0,7.2-5.8,13-13,13l0,0
	C399.5,307.3,393.7,301.5,393.7,294.3z"/>
<path class="st16" d="M393.7,355.9L393.7,355.9c0-7.2,5.8-13,13-13l0,0c7.2,0,13,5.8,13,13l0,0c0,7.2-5.8,13-13,13l0,0
	C399.5,368.9,393.7,363,393.7,355.9z"/>
<rect x="362.1" y="312" class="st16" width="26.1" height="26.1"/>
<rect x="362.1" y="281.2" class="st16" width="26.1" height="26.1"/>
<rect x="362.1" y="342.8" class="st16" width="26.1" height="26.1"/>
<path class="st22" d="M30.3,206.6h247.6c3.5,0,6.3,2.8,6.3,6.3v156.6c0,3.5-2.8,6.3-6.3,6.3H30.3c-3.5,0-6.3-2.8-6.3-6.3V212.9
	C24,209.4,26.8,206.6,30.3,206.6z"/>
<linearGradient id="SVGID_10_" gradientUnits="userSpaceOnUse" x1="50.2" y1="212.95" x2="279.1" y2="212.95" gradientTransform="matrix(1 0 0 -1 0 504.1)">
	<stop  offset="0" style="stop-color:#25CED1"/>
	<stop  offset="1" style="stop-color:#0097CE"/>
</linearGradient>
<path class="st24" d="M52.5,211.6h224.3c1.3,0,2.3,1,2.3,2.3v154.5c0,1.3-1,2.3-2.3,2.3H52.5c-1.3,0-2.3-1-2.3-2.3V213.9
	C50.2,212.7,51.3,211.6,52.5,211.6z"/>
<path class="st11" d="M37.4,291.7c-3,0-5.5-2.4-5.5-5.5c0-3,2.4-5.5,5.5-5.5c3,0,5.5,2.4,5.5,5.5l0,0
	C42.8,289.2,40.4,291.7,37.4,291.7L37.4,291.7z"/>
<polyline class="st21" points="502.3,325.1 572,325.1 572,356.9 599.8,356.9 "/>
<linearGradient id="SVGID_11_" gradientUnits="userSpaceOnUse" x1="644.1065" y1="206.65" x2="645.3867" y2="157.36" gradientTransform="matrix(1 0 0 -1 0 504.1)">
	<stop  offset="0" style="stop-color:#FFC359"/>
	<stop  offset="1" style="stop-color:#F9AD5A"/>
</linearGradient>
<polygon class="st25" points="688.4,320.3 644.7,350.5 601,320.3 "/>
<polygon class="st4" points="676.7,297.5 676.7,376.6 608.8,376.6 608.8,288.5 668.4,288.5 "/>
<rect x="617.2" y="295.6" class="st26" width="14.2" height="11.9"/>
<rect x="617.2" y="312.3" class="st27" width="52.3" height="2.4"/>
<rect x="617.2" y="319.1" class="st27" width="42.4" height="2.4"/>
<rect x="617.2" y="325.7" class="st27" width="48.7" height="2.4"/>
<rect x="617.2" y="336" class="st27" width="35.5" height="2.4"/>
<rect x="617.2" y="342.9" class="st27" width="54.4" height="2.4"/>
<rect x="617.2" y="349.5" class="st27" width="48.7" height="2.4"/>
<rect x="617.2" y="355.7" class="st28" width="34.5" height="2.4"/>
<path class="st26" d="M608.8,325c0,0,36.2,22,64.2,9.2s-35.5,23.5-35.5,23.5s-26.2-13.3-26.4-13.5s-2.5-14.1-2.5-14.1L608.8,325z"/>
<polygon class="st29" points="688.4,320.3 688.4,380.8 601,380.8 601,320.3 644.7,350.5 "/>
<polygon class="st30" points="601,380.8 644.7,350.5 688.4,380.8 "/>
<polygon class="st31" points="667.7,297.6 676.7,297.5 668.4,288.5 "/>
<path class="st30" d="M336.3,143.9h-98.2l4.5-5.2c2-2.3,4.8-3.5,7.8-3.5h77.3C332.4,135.2,336.3,139.2,336.3,143.9L336.3,143.9
	L336.3,143.9z"/>
<path class="st29" d="M221.6,143.9h114.7l0,0v68.6c0,2.7-2.2,4.9-4.9,4.9H221.6c-2.7,0-4.9-2.2-4.9-4.9v-63.7
	C216.6,146.2,218.9,143.9,221.6,143.9z"/>
<path class="st30" d="M704.6,146.2h-40.2l1.9-2.1c0.8-0.9,2-1.4,3.2-1.5h31.6C703,142.6,704.6,144.2,704.6,146.2L704.6,146.2
	L704.6,146.2z"/>
<path class="st29" d="M658.7,146.2h45.9l0,0v27c0,1.7-1.4,3.1-3.1,3.1h-42.8c-1.7,0-3.1-1.4-3.1-3.1v-23.9
	C655.6,147.6,656.9,146.2,658.7,146.2L658.7,146.2z"/>
<rect x="440" y="208.5" class="st4" width="26.4" height="3.2"/>
<path class="st16" d="M250.3,241.3H81.4c-4.5,0-8.1-3.6-8.1-8.1l0,0l0,0c0-4.5,3.6-8.1,8.1-8.1l0,0h168.9c4.5,0,8.1,3.6,8.1,8.1l0,0
	l0,0C258.5,237.6,254.8,241.3,250.3,241.3L250.3,241.3z"/>
<circle class="st13" cx="455.6" cy="322.7" r="23.4"/>
<path class="st4" d="M454.4,332.7c-1.3,0-2.3-0.9-2.5-2.2c0-0.1,0-0.2,0-0.3v-14.8c0-1.4,1.1-2.5,2.5-2.5s2.5,1.1,2.5,2.5
	c0,0.3-0.1,0.6-0.2,0.9l-0.3,0.7l0.8-0.2c2.5-0.6,4.9,0.9,5.5,3.4c0.3,1.4,0,2.9-1,4c-0.7,0.8-1.7,1.4-2.8,1.5l-0.7,0.1l0.4,0.5
	c0.5,0.7,0.2,1.7-0.5,2.2c-0.2,0.2-0.5,0.2-0.8,0.2h-0.2l-0.7-0.1l0.2,0.6c0.1,0.3,0.1,0.5,0.1,0.8
	C456.9,331.6,455.8,332.7,454.4,332.7L454.4,332.7z"/>
<path class="st12" d="M89.4,312.2c19.7-1.9,23.8,26.9,43.3,10.3c14.9-12.7,22.3-6.5,31.5,3.6s19-22.8,38.9-1.4"/>
<text transform="matrix(1 0 0 1 217.3645 321.57)" class="st4 st14 st32">75</text>
<rect x="211.8" y="333.5" class="st16" width="25" height="2.4"/>
<path class="st16" d="M236.3,339.1h-24.1c-0.2,0-0.4-0.2-0.4-0.4l0,0c0-0.2,0.2-0.4,0.4-0.4h24.2c0.2,0,0.4,0.2,0.4,0.4l0,0
	C236.8,339,236.6,339.2,236.3,339.1C236.4,339.2,236.4,339.2,236.3,339.1z"/>
<path class="st16" d="M236.3,342h-24.1c-0.2,0-0.4-0.2-0.4-0.4l0,0c0-0.2,0.2-0.4,0.4-0.4h24.2c0.2,0,0.4,0.2,0.4,0.4l0,0
	C236.8,341.8,236.6,342,236.3,342C236.4,342,236.4,342,236.3,342z"/>
<path class="st16" d="M236.3,344.7h-24.1c-0.2,0-0.4-0.2-0.4-0.4l0,0c0-0.2,0.2-0.4,0.4-0.4l0,0h24.2c0.2,0,0.4,0.2,0.4,0.4l0,0l0,0
	C236.8,344.5,236.6,344.7,236.3,344.7C236.4,344.7,236.4,344.7,236.3,344.7z"/>
<path class="st16" d="M236.3,347.4h-24.1c-0.2,0-0.4-0.2-0.4-0.4l0,0c0-0.2,0.2-0.4,0.4-0.4h24.2c0.2,0,0.4,0.2,0.4,0.4l0,0
	C236.8,347.3,236.6,347.4,236.3,347.4C236.4,347.4,236.4,347.4,236.3,347.4z"/>
<path class="st16" d="M197.3,342h-24.1c-0.2,0-0.4-0.2-0.4-0.4l0,0c0-0.2,0.2-0.4,0.4-0.4h24.1c0.2,0,0.4,0.2,0.4,0.4l0,0
	C197.7,341.8,197.5,342,197.3,342z"/>
<path class="st16" d="M197.3,344.7h-24.1c-0.2,0-0.4-0.2-0.4-0.4l0,0c0-0.2,0.2-0.4,0.4-0.4l0,0h24.1c0.2,0,0.4,0.2,0.4,0.4l0,0l0,0
	C197.7,344.5,197.5,344.7,197.3,344.7z"/>
<path class="st16" d="M197.3,347.4h-24.1c-0.2,0-0.4-0.2-0.4-0.4l0,0c0-0.2,0.2-0.4,0.4-0.4h24.1c0.2,0,0.4,0.2,0.4,0.4l0,0
	C197.7,347.3,197.5,347.4,197.3,347.4z"/>
<path class="st16" d="M155.2,342h-24.1c-0.2,0-0.4-0.2-0.4-0.4l0,0c0-0.2,0.2-0.4,0.4-0.4h24.1c0.2,0,0.4,0.2,0.4,0.4l0,0
	C155.6,341.8,155.4,342,155.2,342z"/>
<path class="st16" d="M155.2,339.1h-24.1c-0.2,0-0.4-0.2-0.4-0.4l0,0c0-0.2,0.2-0.4,0.4-0.4h24.1c0.2,0,0.4,0.2,0.4,0.4l0,0
	C155.6,338.9,155.4,339.1,155.2,339.1z"/>
<path class="st16" d="M155.2,344.7h-24.1c-0.2,0-0.4-0.2-0.4-0.4l0,0c0-0.2,0.2-0.4,0.4-0.4l0,0h24.1c0.2,0,0.4,0.2,0.4,0.4l0,0l0,0
	C155.6,344.5,155.4,344.7,155.2,344.7z"/>
<path class="st16" d="M155.2,347.4h-24.1c-0.2,0-0.4-0.2-0.4-0.4l0,0c0-0.2,0.2-0.4,0.4-0.4h24.1c0.2,0,0.4,0.2,0.4,0.4l0,0
	C155.6,347.3,155.4,347.4,155.2,347.4z"/>
<path class="st16" d="M110.3,344.7H86.1c-0.2,0-0.4-0.2-0.4-0.4l0,0c0-0.2,0.2-0.4,0.4-0.4l0,0h24.1c0.2,0,0.4,0.2,0.4,0.4l0,0l0,0
	C110.7,344.5,110.5,344.7,110.3,344.7z"/>
<path class="st16" d="M110.3,347.4H86.1c-0.2,0-0.4-0.2-0.4-0.4l0,0c0-0.2,0.2-0.4,0.4-0.4h24.1c0.2,0,0.4,0.2,0.4,0.4l0,0
	C110.7,347.3,110.5,347.4,110.3,347.4z"/>
<path class="st17" d="M205.3,324.7c0,1.2-1,2.2-2.2,2.2s-2.2-1-2.1-2.2c0-1.2,1-2.2,2.2-2.2C204.3,322.6,205.3,323.5,205.3,324.7
	L205.3,324.7z"/>
<path class="st17" d="M122.6,328c0,0.9-0.7,1.6-1.6,1.6s-1.6-0.7-1.6-1.6s0.7-1.6,1.6-1.6l0,0C121.9,326.4,122.6,327.1,122.6,328z"
	/>
<circle class="st17" cx="147.9" cy="315.3" r="1.6"/>
<path class="st17" d="M169.6,328c0,0.9-0.7,1.6-1.6,1.6s-1.6-0.7-1.6-1.6s0.7-1.6,1.6-1.6l0,0C168.9,326.4,169.6,327.1,169.6,328z"
	/>
<ellipse class="st13" cx="164.7" cy="276.7" rx="23.4" ry="23.4"/>
<circle class="st13" cx="293.7" cy="73.3" r="17.2"/>
<path class="st4" d="M303.5,74.8c0,1.4-1.1,2.5-2.5,2.5h-14.6c-1.4,0-2.5-1.1-2.5-2.5s1.1-2.5,2.5-2.5c0.3,0,0.6,0.1,0.9,0.2
	l0.7,0.3l-0.2-0.8c-0.1-0.3-0.1-0.7-0.1-1c-0.1-2.5,1.8-4.6,4.3-4.7c2.4-0.1,4.4,1.7,4.7,4l0.1,0.6l0.5-0.4c0.7-0.5,1.7-0.3,2.1,0.5
	c0.2,0.2,0.2,0.5,0.2,0.8c0,0.1,0,0.1,0,0.2l-0.1,0.7l0.6-0.2c1.3-0.4,2.7,0.2,3.1,1.5C303.5,74.2,303.5,74.5,303.5,74.8L303.5,74.8
	z"/>
<path class="st4" d="M179.9,277.8c0,1.8-1.3,3.3-3.1,3.5c-0.1,0-0.3,0-0.4,0h-20.9c-2,0-3.6-1.6-3.6-3.6s1.6-3.6,3.6-3.6l0,0
	c0.4,0,0.9,0.1,1.3,0.2l1,0.4l-0.2-1.1c-0.1-0.5-0.2-1-0.2-1.5c0-3.6,2.9-6.4,6.5-6.4c3.2,0,5.9,2.3,6.4,5.5l0.1,0.9l0.8-0.5
	c0.4-0.2,0.8-0.3,1.2-0.3c1.2,0,2.2,1,2.2,2.2c0,0.1,0,0.2,0,0.3l-0.1,1l0.9-0.3c1.8-0.6,3.8,0.4,4.5,2.2
	C179.8,277,179.9,277.4,179.9,277.8L179.9,277.8z"/>
<g>
	<rect x="550.9" y="269.8" class="st11" width="11.1" height="30"/>
	<circle class="st11" cx="539.3" cy="284.8" r="5.3"/>
	<path class="st33" d="M520.9,373.3V256.8c0-1.8,1.4-3.2,3.2-3.2h64.8c1.8,0,3.2,1.4,3.2,3.2v116.5c0,1.8-1.4,3.2-3.2,3.2h-64.8
		C522.3,376.5,520.9,375,520.9,373.3z"/>
	
		<linearGradient id="SVGID_12_" gradientUnits="userSpaceOnUse" x1="797.3317" y1="393.811" x2="916.6854" y2="394.4174" gradientTransform="matrix(-6.925406e-05 -1 -1 6.925406e-05 950.7503 1181.4989)">
		<stop  offset="0" style="stop-color:#034078"/>
		<stop  offset="1" style="stop-color:#25CED1"/>
	</linearGradient>
	<path class="st34" d="M589.6,257.3v104.6c0,0.6-0.5,1.2-1.2,1.2l0,0h-63.8c-0.6,0-1.2-0.5-1.2-1.2l0,0V257.3c0-0.6,0.5-1.2,1.2-1.2
		l0,0h16c0.4,0,0.8,0.2,1,0.6l1.7,2.7c0.2,0.4,0.6,0.6,1,0.6h24.5c0.4,0,0.8-0.2,1-0.6l1.6-2.7c0.2-0.4,0.6-0.6,1.1-0.6h16
		C589.1,256.1,589.6,256.6,589.6,257.3z"/>
	<path class="st0" d="M568,353.5h-23.1c-2.3,0-4.1-1.8-4.1-4.1l0,0c0-2.3,1.8-4.1,4.1-4.1H568c2.3,0,4.1,1.8,4.1,4.1l0,0
		C572.1,351.7,570.3,353.5,568,353.5z"/>
	<path class="st16" d="M559.3,369.7c0,1.6-1.2,2.8-2.8,2.8s-2.8-1.3-2.8-2.8c0-1.6,1.3-2.8,2.8-2.8l0,0
		C558,366.8,559.3,368.1,559.3,369.7z"/>
	<path class="st16" d="M562.8,258.1h-15.6c-0.4,0-0.8-0.3-0.8-0.8l0,0l0,0c0-0.4,0.3-0.8,0.8-0.8l0,0h15.6c0.4,0,0.8,0.3,0.8,0.8
		l0,0C563.6,257.8,563.2,258.1,562.8,258.1z"/>
	<circle class="st16" cx="565.7" cy="257.4" r="0.8"/>
	<path class="st16" d="M556.5,321.4L556.5,321.4c-4.5,0-8.1-3.6-8.1-8.1l0,0l0,0c0-4.5,3.6-8.1,8.1-8.1l0,0c4.5,0,8.1,3.6,8.1,8.1
		l0,0C564.6,317.8,560.9,321.4,556.5,321.4z"/>
	<path class="st16" d="M537.2,321.4L537.2,321.4c-4.5,0-8.1-3.6-8.1-8.1l0,0c0-4.5,3.6-8.1,8.1-8.1l0,0c4.5,0,8.1,3.6,8.1,8.1l0,0
		C545.4,317.8,541.7,321.4,537.2,321.4z"/>
	<path class="st16" d="M575.8,321.4L575.8,321.4c-4.5,0-8.1-3.6-8.1-8.1l0,0c0-4.5,3.6-8.1,8.1-8.1l0,0c4.5,0,8.1,3.6,8.1,8.1l0,0
		C583.9,317.8,580.2,321.4,575.8,321.4z"/>
	<rect x="548.3" y="324.8" class="st16" width="16.3" height="16.3"/>
	<rect x="529.1" y="324.8" class="st16" width="16.3" height="16.3"/>
	<rect x="567.6" y="324.8" class="st16" width="16.3" height="16.3"/>
	<circle class="st13" cx="555" cy="282.7" r="14.6"/>
	<path class="st4" d="M561.2,283.5c0,0.8-0.6,1.4-1.4,1.6c-0.1,0-0.1,0-0.2,0h-9.3c-0.9,0-1.6-0.7-1.6-1.6s0.7-1.6,1.6-1.6
		c0.2,0,0.4,0.1,0.6,0.1l0.4,0.2l-0.1-0.5c-0.4-1.6,0.6-3.1,2.1-3.4c0.9-0.2,1.8,0,2.5,0.6c0.5,0.4,0.9,1.1,0.9,1.8l0.1,0.4l0.3-0.3
		c0.4-0.3,1.1-0.1,1.4,0.3c0.1,0.1,0.1,0.3,0.1,0.5v0.1l-0.1,0.4l0.4-0.1c0.2-0.1,0.3-0.1,0.5-0.1
		C560.6,281.9,561.2,282.6,561.2,283.5L561.2,283.5z"/>
</g>
</svg>
