<?xml version="1.0" encoding="utf-8"?>
<!-- Generator: Adobe Illustrator 25.1.0, SVG Export Plug-In . SVG Version: 6.00 Build 0)  -->
<svg version="1.1" id="Capa_1" xmlns="http://www.w3.org/2000/svg" xmlns:xlink="http://www.w3.org/1999/xlink" x="0px" y="0px"
	 viewBox="0 0 460.5 193.8" style="enable-background:new 0 0 460.5 193.8;" xml:space="preserve">
<style type="text/css">
	.st0{fill:#25CED1;}
	.st1{fill:url(#SVGID_1_);}
	.st2{fill:#249680;}
	.st3{fill:url(#SVGID_2_);}
	.st4{fill:#FFFFFF;}
	.st5{fill:none;stroke:url(#SVGID_3_);stroke-width:0.5;stroke-miterlimit:10;}
	.st6{fill:none;stroke:url(#SVGID_4_);stroke-width:0.5;stroke-miterlimit:10;}
	.st7{fill:none;stroke:url(#SVGID_5_);stroke-width:0.5;stroke-miterlimit:10;}
	.st8{fill:none;stroke:url(#SVGID_6_);stroke-width:0.5;stroke-miterlimit:10;}
	.st9{fill:#444444;}
	.st10{fill:url(#SVGID_7_);}
	.st11{fill:#5B5B5B;}
	.st12{fill:none;stroke:#FFC36C;stroke-miterlimit:10;}
	.st13{fill:#1282A2;}
	.st14{font-family:'Arial-BoldMT';}
	.st15{font-size:4.9616px;}
	.st16{fill:#EFEFEF;}
	.st17{fill:#F9BB58;}
	.st18{fill:#565656;}
	.st19{fill:url(#SVGID_8_);}
	.st20{font-size:12.0349px;}
	.st21{fill:none;stroke:#95BDE5;stroke-width:5;stroke-miterlimit:10;}
	.st22{fill:#2D2D2D;}
	.st23{fill:url(#SVGID_9_);}
	.st24{fill:url(#SVGID_10_);}
	.st25{fill:url(#SVGID_11_);}
	.st26{opacity:0.1;fill:#474849;enable-background:new    ;}
	.st27{fill:#F2F2F2;}
	.st28{fill:#C6C6C6;}
	.st29{fill:#FFAE2C;}
	.st30{fill:#E28600;}
	.st31{fill:#DBDDDD;}
	.st32{font-size:3.8478px;}
	.st33{fill:#161616;}
	.st34{fill:url(#SVGID_12_);}
</style>
<g>
	<path class="st0" d="M452,189.9H8.5c-3.2,0-5.7-2.5-5.7-5.6l0,0c0-3.1,2.5-5.6,5.7-5.6h443.6c3.2,0,5.7,2.5,5.7,5.6l0,0
		C457.8,187.4,455.2,189.9,452,189.9z"/>
	
		<linearGradient id="SVGID_1_" gradientUnits="userSpaceOnUse" x1="381.3289" y1="-253.785" x2="397.8762" y2="-308.0982" gradientTransform="matrix(1 0 0 1 -11.37 460.6)">
		<stop  offset="0" style="stop-color:#22AFBD"/>
		<stop  offset="1" style="stop-color:#FFC359"/>
	</linearGradient>
	<path class="st1" d="M428.2,180.5l-100.3-0.7c2.3-6.8,7.9-14.8,11.2-18.9l4.2,6.2l-1.5-9c4.6-4,10.2-6.8,16.3-8.1l2.1,7.7l-0.3-8
		c2.4-0.4,4.9-0.6,7.3-0.5l0.4,8.3l3.7-8l0.5,0.1c5,0.8,9.6,3,13.5,6.2l-1.3,7l4.1-4c2.8,3.4,5,7.9,5.8,13.7c1.2-2.6,3-4.9,5.2-6.8
		l1.8,4.4l-0.5-5.3c1.8-1.2,3.9-1.8,6-2l0.8,5.8l1.3-5.8c1.2,0.1,2.5,0.3,3.6,0.7c1.3,0.4,2.6,0.8,3.8,1.5l-0.5,4.4l1.3-4
		c1.8,1,3.6,2.3,5.1,3.8l-2.6,6.5l3.9-5C425.5,173.5,427.2,176.9,428.2,180.5z"/>
	<path class="st2" d="M413.3,97.3l-0.9-0.2c0-0.1,2-12.4-0.1-20.7l0.9-0.2C415.3,84.8,413.4,96.8,413.3,97.3z"/>
	<path class="st2" d="M407.2,106.3l-0.5-0.8c0.4-0.3,11-6.3,19.7-7.4l0.1,0.9C418.1,100.2,407.3,106.3,407.2,106.3z"/>
	
		<linearGradient id="SVGID_2_" gradientUnits="userSpaceOnUse" x1="-2233.0303" y1="-1519.6412" x2="-2212.9307" y2="-1537.9515" gradientTransform="matrix(0.9894 -0.1452 0.1452 0.9894 2851.3906 1290.1263)">
		<stop  offset="0" style="stop-color:#22DEBD"/>
		<stop  offset="1" style="stop-color:#FFC359"/>
	</linearGradient>
	<path class="st3" d="M424.7,97.1c-1.3,4.3,4.2,11.4,17.1-1.3C441.8,95.8,426.1,92.3,424.7,97.1z"/>
	<rect x="105.4" y="100.8" class="st4" width="40.2" height="4"/>
	<rect x="105.4" y="109" class="st4" width="40.2" height="4"/>
	<rect x="105.4" y="117.1" class="st4" width="40.2" height="4"/>
	<rect x="105.4" y="125.3" class="st4" width="40.2" height="4"/>
	<rect x="105.4" y="133.4" class="st4" width="40.2" height="4"/>
	<rect x="105.4" y="141.6" class="st4" width="40.2" height="4"/>
	<rect x="105.4" y="149.8" class="st4" width="40.2" height="4"/>
	<rect x="105.4" y="157.9" class="st4" width="40.2" height="4"/>
	<rect x="105.4" y="166.1" class="st4" width="40.2" height="4"/>
	<rect x="184.3" y="25.3" class="st4" width="3" height="20.8"/>
	<rect x="190.7" y="25.3" class="st4" width="3" height="20.8"/>
	<rect x="197.6" y="25.3" class="st4" width="3" height="20.8"/>
	<rect x="204.4" y="25.3" class="st4" width="3" height="20.8"/>
	<rect x="177.3" y="86.2" class="st4" width="3" height="20.8"/>
	<rect x="177.3" y="116.6" class="st4" width="3" height="20.8"/>
	<rect x="176" y="98.3" class="st4" width="3" height="20.8"/>
	<rect x="297.8" y="15.3" class="st4" width="15.2" height="14.7"/>
	<rect x="275.1" y="15.3" class="st4" width="15.2" height="14.7"/>
	<rect x="276.2" y="64.3" class="st4" width="15.2" height="14.7"/>
	<rect x="276.2" y="98" class="st4" width="15.2" height="14.7"/>
	<rect x="253.6" y="98" class="st4" width="15.2" height="14.7"/>
	<rect x="297.8" y="149.9" class="st4" width="15.2" height="14.7"/>
	<rect x="275.1" y="149.9" class="st4" width="15.2" height="14.7"/>
	
		<linearGradient id="SVGID_3_" gradientUnits="userSpaceOnUse" x1="3437.2744" y1="-358.1314" x2="3440.8989" y2="-358.1314" gradientTransform="matrix(-1 0 0 1 3465.519 460.6)">
		<stop  offset="0" style="stop-color:#FFFFFF"/>
		<stop  offset="1" style="stop-color:#DCEFFE"/>
	</linearGradient>
	<line class="st5" x1="28.1" y1="104.7" x2="24.8" y2="100.3"/>
	
		<linearGradient id="SVGID_4_" gradientUnits="userSpaceOnUse" x1="3433.9038" y1="-351.2697" x2="3439.3489" y2="-351.2697" gradientTransform="matrix(-1 0 0 1 3465.519 460.6)">
		<stop  offset="0" style="stop-color:#FFFFFF"/>
		<stop  offset="1" style="stop-color:#DCEFFE"/>
	</linearGradient>
	<line class="st6" x1="26.3" y1="110.4" x2="31.5" y2="108.3"/>
	
		<linearGradient id="SVGID_5_" gradientUnits="userSpaceOnUse" x1="3442.7708" y1="-346.7568" x2="3446.0955" y2="-346.7568" gradientTransform="matrix(-1 0 0 1 3465.519 460.6)">
		<stop  offset="0" style="stop-color:#FFFFFF"/>
		<stop  offset="1" style="stop-color:#DCEFFE"/>
	</linearGradient>
	<line class="st7" x1="22.5" y1="116.6" x2="19.6" y2="111"/>
	
		<linearGradient id="SVGID_6_" gradientUnits="userSpaceOnUse" x1="3449.2034" y1="-324.8521" x2="3451.8198" y2="-324.8521" gradientTransform="matrix(-1 0 0 1 3465.519 460.6)">
		<stop  offset="0" style="stop-color:#FFFFFF"/>
		<stop  offset="1" style="stop-color:#DCEFFE"/>
	</linearGradient>
	<line class="st8" x1="13.9" y1="138.7" x2="16.1" y2="132.8"/>
	<path class="st9" d="M299.1,68h138.8c4.8,0,8.6,3.9,8.6,8.6V168c0,4.8-3.9,8.6-8.6,8.6H299.1c-4.8,0-8.6-3.9-8.6-8.6V76.6
		C290.4,71.9,294.3,68,299.1,68z"/>
	
		<linearGradient id="SVGID_7_" gradientUnits="userSpaceOnUse" x1="367.974" y1="-305.5104" x2="369.1563" y2="-420.0009" gradientTransform="matrix(1 0 0 1 0 474.1)">
		<stop  offset="0" style="stop-color:#25CED1"/>
		<stop  offset="1" style="stop-color:#034078"/>
	</linearGradient>
	<rect x="294.7" y="72.3" class="st10" width="147.5" height="89.5"/>
	<path class="st11" d="M371.7,168.5c0,1.8-1.4,3.2-3.2,3.2c-1.8,0-3.2-1.4-3.2-3.2s1.4-3.2,3.2-3.2l0,0
		C370.3,165.3,371.7,166.7,371.7,168.5z"/>
	<path class="st11" d="M291.7,176.6h153.6c0.7,0,1.3,0.6,1.3,1.3v1.6c0,2.6-2.2,4.8-4.8,4.8l0,0H295.2c-2.6,0-4.8-2.2-4.8-4.8l0,0
		v-1.6C290.4,177.2,291,176.6,291.7,176.6L291.7,176.6z"/>
	<path class="st12" d="M322.8,128.9c13.4-1.3,16.2,18.3,29.5,7c10.1-8.7,15.2-4.4,21.4,2.5c6.2,6.9,12.9-15.6,26.5-1"/>
	<circle class="st13" cx="367.9" cy="106.5" r="14.8"/>
	<text transform="matrix(1 0 0 1 409.916 135.2992)" class="st4 st14 st15">75</text>
	<rect x="406.1" y="143.4" class="st16" width="17" height="1.6"/>
	<path class="st16" d="M406.4,146.7h16.5c0.2,0,0.3,0.1,0.3,0.3v0.1c0,0.2-0.1,0.3-0.3,0.3h-16.5c-0.2,0-0.3-0.1-0.3-0.3v-0.1
		C406.1,146.8,406.2,146.7,406.4,146.7z"/>
	<path class="st16" d="M406.4,148.6h16.5c0.2,0,0.3,0.1,0.3,0.3v0.1c0,0.2-0.1,0.3-0.3,0.3h-16.5c-0.2,0-0.3-0.1-0.3-0.3v-0.1
		C406.1,148.7,406.2,148.6,406.4,148.6z"/>
	<path class="st16" d="M406.4,150.5h16.5c0.2,0,0.3,0.1,0.3,0.3v0.1c0,0.2-0.1,0.3-0.3,0.3h-16.5c-0.2,0-0.3-0.1-0.3-0.3v-0.1
		C406.1,150.6,406.2,150.5,406.4,150.5z"/>
	<path class="st16" d="M406.4,152.3h16.5c0.2,0,0.3,0.1,0.3,0.3v0.1c0,0.2-0.1,0.3-0.3,0.3h-16.5c-0.2,0-0.3-0.1-0.3-0.3v-0.1
		C406.1,152.5,406.2,152.3,406.4,152.3z"/>
	<path class="st16" d="M379.8,148.6h16.5c0.2,0,0.3,0.1,0.3,0.3v0.1c0,0.2-0.1,0.3-0.3,0.3h-16.5c-0.2,0-0.3-0.1-0.3-0.3v-0.1
		C379.5,148.7,379.6,148.6,379.8,148.6z"/>
	<path class="st16" d="M379.8,150.5h16.5c0.2,0,0.3,0.1,0.3,0.3v0.1c0,0.2-0.1,0.3-0.3,0.3h-16.5c-0.2,0-0.3-0.1-0.3-0.3v-0.1
		C379.5,150.6,379.6,150.5,379.8,150.5z"/>
	<path class="st16" d="M379.8,152.3h16.5c0.2,0,0.3,0.1,0.3,0.3v0.1c0,0.2-0.1,0.3-0.3,0.3h-16.5c-0.2,0-0.3-0.1-0.3-0.3v-0.1
		C379.5,152.5,379.6,152.3,379.8,152.3z"/>
	<path class="st16" d="M351.2,148.6h16.5c0.2,0,0.3,0.1,0.3,0.3v0.1c0,0.2-0.1,0.3-0.3,0.3h-16.5c-0.2,0-0.3-0.1-0.3-0.3v-0.1
		C350.9,148.7,351,148.6,351.2,148.6z"/>
	<path class="st16" d="M351.2,146.6h16.5c0.2,0,0.3,0.1,0.3,0.3v0.1c0,0.2-0.1,0.3-0.3,0.3h-16.5c-0.2,0-0.3-0.1-0.3-0.3v-0.1
		C350.9,146.8,351,146.6,351.2,146.6z"/>
	<path class="st16" d="M351.2,150.5h16.5c0.2,0,0.3,0.1,0.3,0.3v0.1c0,0.2-0.1,0.3-0.3,0.3h-16.5c-0.2,0-0.3-0.1-0.3-0.3v-0.1
		C350.9,150.6,351,150.5,351.2,150.5z"/>
	<path class="st16" d="M351.2,152.3h16.5c0.2,0,0.3,0.1,0.3,0.3v0.1c0,0.2-0.1,0.3-0.3,0.3h-16.5c-0.2,0-0.3-0.1-0.3-0.3v-0.1
		C350.9,152.5,351,152.3,351.2,152.3z"/>
	<path class="st16" d="M320.6,150.5h16.5c0.2,0,0.3,0.1,0.3,0.3v0.1c0,0.2-0.1,0.3-0.3,0.3h-16.5c-0.2,0-0.3-0.1-0.3-0.3v-0.1
		C320.3,150.6,320.4,150.5,320.6,150.5z"/>
	<path class="st16" d="M320.6,152.3h16.5c0.2,0,0.3,0.1,0.3,0.3v0.1c0,0.2-0.1,0.3-0.3,0.3h-16.5c-0.2,0-0.3-0.1-0.3-0.3v-0.1
		C320.3,152.5,320.4,152.3,320.6,152.3z"/>
	<path class="st17" d="M401.7,137.4c0,0.8-0.6,1.5-1.5,1.5c-0.8,0-1.5-0.6-1.5-1.5c0-0.8,0.6-1.5,1.5-1.5l0,0
		C401,136,401.7,136.6,401.7,137.4z"/>
	<path class="st17" d="M345.4,139.7c0,0.6-0.5,1.1-1.1,1.1s-1.1-0.5-1.1-1.1s0.5-1.1,1.1-1.1S345.4,139.1,345.4,139.7z"/>
	<path class="st17" d="M363.7,131.1c0,0.6-0.5,1.1-1.1,1.1s-1.1-0.5-1.1-1.1s0.5-1.1,1.1-1.1S363.7,130.5,363.7,131.1z"/>
	<path class="st17" d="M377.5,139.7c0,0.6-0.5,1.1-1.1,1.1s-1.1-0.5-1.1-1.1s0.5-1.1,1.1-1.1S377.5,139.1,377.5,139.7z"/>
	<path class="st4" d="M376.3,107.8c0,1.2-1,2.1-2.1,2.1h-12.6c-1.2,0-2.2-1-2.2-2.2s1-2.2,2.2-2.2c0.3,0,0.5,0.1,0.8,0.2l0.6,0.3
		l-0.2-0.6c-0.1-0.3-0.1-0.6-0.1-0.9c-0.1-2.2,1.6-4,3.7-4c2.1-0.1,3.8,1.4,4,3.4l0.1,0.5l0.5-0.3c0.6-0.4,1.4-0.2,1.8,0.4
		c0.2,0.2,0.2,0.5,0.2,0.7c0,0.1,0,0.1,0,0.2l-0.1,0.6l0.5-0.2c1.1-0.4,2.3,0.2,2.7,1.3C376.2,107.3,376.3,107.5,376.3,107.8
		L376.3,107.8z"/>
	<path class="st0" d="M412.1,35.4c0,2.3-1.7,4.3-4,4.6c-0.2,0-0.4,0.1-0.6,0.1H380c-2.6,0-4.7-2.1-4.7-4.7c0-2.6,2.1-4.7,4.7-4.7
		c0.6,0,1.2,0.1,1.7,0.3l1.4,0.5l-0.3-1.4c-0.9-4.6,2.2-9,6.8-9.9c4.6-0.9,9,2.2,9.9,6.8l0.2,1.2l1-0.6c1.3-0.8,3.1-0.5,4,0.8
		c0.3,0.5,0.5,1,0.5,1.5c0,0.2,0,0.3,0,0.4l-0.2,1.3l1.2-0.4c2.4-0.8,5,0.4,5.9,2.9C412,34.4,412.1,34.9,412.1,35.4L412.1,35.4z"/>
	<path class="st0" d="M48.5,48.6c0,1-0.7,1.9-1.7,2.1c-0.1,0-0.2,0-0.3,0H34.8c-1.1,0-2-1-2-2.1c0-1.1,0.9-2.1,2-2.1
		c0.3,0,0.5,0.1,0.7,0.2l0.6,0.2L36,46.2c-0.4-2.1,0.9-4,2.9-4.4c2-0.4,3.9,1,4.2,3l0.1,0.5l0.4-0.3c0.6-0.4,1.3-0.2,1.7,0.4
		c0.2,0.2,0.2,0.4,0.2,0.7c0,0.1,0,0.1,0,0.2L45.4,47l0.5-0.2c1-0.4,2.1,0.2,2.5,1.3C48.4,48.1,48.5,48.3,48.5,48.6L48.5,48.6z"/>
	<path class="st0" d="M105.1,73.6c0,2.3-1.7,4.3-4,4.6c-0.2,0-0.4,0.1-0.6,0.1H73.1c-2.6,0-4.7-2.1-4.7-4.7c0-2.6,2.1-4.7,4.7-4.7
		c0.6,0,1.2,0.1,1.7,0.3l1.4,0.5l-0.3-1.4c-0.9-4.6,2.2-9,6.8-9.9c4.6-0.9,9,2.2,9.9,6.8l0.2,1.2l1-0.6c1.3-0.8,3.1-0.5,4,0.8
		c0.3,0.5,0.5,1,0.5,1.5c0,0.2,0,0.3,0,0.4l-0.2,1.3l1.2-0.4c2.4-0.8,5,0.4,5.9,2.9C105,72.6,105.1,73,105.1,73.6L105.1,73.6z"/>
	<path class="st11" d="M270.8,181v4.3h-64.6V181c0-3.1,2.5-5.5,5.6-5.5l0,0h4.2c5.5,0,9.9-4.4,9.9-9.9v-15.8h25.3v15.7
		c0,5.5,4.4,9.9,9.9,9.9h4.1C268.4,175.4,270.8,177.9,270.8,181L270.8,181z"/>
	<rect x="225.9" y="152.2" class="st11" width="25.3" height="9.3"/>
	<path class="st18" d="M139.6,4h197.8c4.8,0,8.6,3.9,8.6,8.6v132.4c0,4.8-3.9,8.6-8.6,8.6H139.6c-4.8,0-8.6-3.9-8.6-8.6V12.6
		C131,7.8,134.9,4,139.6,4z"/>
	
		<linearGradient id="SVGID_8_" gradientUnits="userSpaceOnUse" x1="237.7929" y1="-331.5535" x2="239.4292" y2="-489.2994" gradientTransform="matrix(1 0 0 1 0 474.1)">
		<stop  offset="0" style="stop-color:#034078"/>
		<stop  offset="1" style="stop-color:#25CED1"/>
	</linearGradient>
	<rect x="136.9" y="9.9" class="st19" width="203.2" height="123.2"/>
	<circle class="st11" cx="238.5" cy="142.4" r="4.4"/>
	<text transform="matrix(1 0 0 1 283.8008 84.4965)" class="st4 st14 st20">75</text>
	<rect x="276.3" y="90.2" class="st16" width="28.3" height="2.7"/>
	<rect x="297.8" y="24" class="st16" width="28.3" height="2.7"/>
	<rect x="261" y="24" class="st16" width="28.3" height="2.7"/>
	<rect x="226.1" y="24" class="st16" width="28.3" height="2.7"/>
	<rect x="187.8" y="24.2" class="st16" width="28.3" height="2.7"/>
	<path class="st16" d="M276.6,95.7h27.6c0.2,0,0.4,0.2,0.4,0.4v0.2c0,0.2-0.2,0.4-0.4,0.4h-27.6c-0.2,0-0.4-0.2-0.4-0.4v-0.2
		C276.3,95.9,276.4,95.7,276.6,95.7z"/>
	<path class="st16" d="M276.6,98.9h27.6c0.2,0,0.4,0.2,0.4,0.4v0.2c0,0.2-0.2,0.4-0.4,0.4h-27.6c-0.2,0-0.4-0.2-0.4-0.4v-0.2
		C276.3,99.1,276.4,98.9,276.6,98.9z"/>
	<path class="st16" d="M276.6,102h27.6c0.2,0,0.4,0.2,0.4,0.4v0.2c0,0.2-0.2,0.4-0.4,0.4h-27.6c-0.2,0-0.4-0.2-0.4-0.4v-0.2
		C276.3,102.2,276.4,102,276.6,102z"/>
	<path class="st16" d="M232.4,98.9h27.6c0.2,0,0.4,0.2,0.4,0.4v0.2c0,0.2-0.2,0.4-0.4,0.4h-27.6c-0.2,0-0.4-0.2-0.4-0.4v-0.2
		C232,99.1,232.1,98.9,232.4,98.9z"/>
	<path class="st16" d="M232.4,102h27.6c0.2,0,0.4,0.2,0.4,0.4v0.2c0,0.2-0.2,0.4-0.4,0.4h-27.6c-0.2,0-0.4-0.2-0.4-0.4v-0.2
		C232,102.2,232.1,102,232.4,102z"/>
	<path class="st16" d="M184.7,98.9h27.6c0.2,0,0.4,0.2,0.4,0.4v0.2c0,0.2-0.2,0.4-0.4,0.4h-27.6c-0.2,0-0.4-0.2-0.4-0.4v-0.2
		C184.3,99.1,184.5,98.9,184.7,98.9z"/>
	<path class="st16" d="M184.7,95.6h27.6c0.2,0,0.4,0.2,0.4,0.4v0.2c0,0.2-0.2,0.4-0.4,0.4h-27.6c-0.2,0-0.4-0.2-0.4-0.4v-0.2
		C184.3,95.8,184.5,95.6,184.7,95.6z"/>
	<path class="st16" d="M184.7,102h27.6c0.2,0,0.4,0.2,0.4,0.4v0.2c0,0.2-0.2,0.4-0.4,0.4h-27.6c-0.2,0-0.4-0.2-0.4-0.4v-0.2
		C184.3,102.2,184.5,102,184.7,102z"/>
	<path class="st16" d="M184.4,106.1h27.6c0.2,0,0.4,0.2,0.4,0.4v0.2c0,0.2-0.2,0.4-0.4,0.4h-27.6c-0.2,0-0.4-0.2-0.4-0.4v-0.2
		C184,106.2,184.2,106.1,184.4,106.1z"/>
	<rect x="184.2" y="78.1" class="st4" width="15.2" height="14.7"/>
	<path class="st12" d="M168.4,53.5c22.3-2.2,27,30.5,49,11.7c16.9-14.4,25.3-7.3,35.7,4.1c10.3,11.5,21.5-25.9,44.1-1.6"/>
	<circle class="st17" cx="297.3" cy="67.6" r="2.5"/>
	<path class="st17" d="M206,71.3c0,1-0.8,1.8-1.8,1.8s-1.8-0.8-1.8-1.8c0-1,0.8-1.8,1.8-1.8l0,0C205.2,69.5,206,70.3,206,71.3
		C206,71.2,206,71.3,206,71.3z"/>
	<path class="st17" d="M236.5,57c0,1-0.8,1.8-1.8,1.8c-1,0-1.8-0.8-1.8-1.8c0-1,0.8-1.8,1.8-1.8l0,0C235.7,55.2,236.5,56,236.5,57
		C236.5,56.9,236.5,56.9,236.5,57z"/>
	<path class="st17" d="M259.3,71.3c0,1-0.8,1.8-1.8,1.8c-1,0-1.8-0.8-1.8-1.8c0-1,0.8-1.8,1.8-1.8l0,0
		C258.5,69.5,259.3,70.3,259.3,71.3L259.3,71.3z"/>
	<line class="st21" x1="161.2" y1="161.9" x2="148.6" y2="161.9"/>
	<path class="st22" d="M163.8,126.8h98.4c1.5,0,2.7,1.2,2.7,2.7v54.7c0,1.5-1.2,2.7-2.7,2.7h-98.4c-1.5,0-2.7-1.2-2.7-2.7v-54.7
		C161.2,128,162.4,126.8,163.8,126.8z"/>
	
		<linearGradient id="SVGID_9_" gradientUnits="userSpaceOnUse" x1="165.983" y1="-303.3661" x2="266.7607" y2="-303.8781" gradientTransform="matrix(1 0 0 1 -11.37 460.6)">
		<stop  offset="0" style="stop-color:#034078"/>
		<stop  offset="1" style="stop-color:#25CED1"/>
	</linearGradient>
	<path class="st23" d="M261.8,184.8h-88.4c-0.5,0-1-0.4-1-1l0,0V130c0-0.5,0.4-1,1-1l0,0h88.3c0.5,0,1,0.4,1,1l0,0v13.5
		c0,0.4-0.2,0.7-0.5,0.8l-2.3,1.4c-0.3,0.2-0.5,0.5-0.5,0.8v20.7c0,0.4,0.2,0.7,0.5,0.8l2.3,1.4c0.3,0.2,0.5,0.5,0.5,0.9v13.5
		C262.8,184.4,262.3,184.8,261.8,184.8z"/>
	<path class="st0" d="M180.6,166.6v-19.5c0-1.9,1.5-3.4,3.4-3.4l0,0c1.9,0,3.4,1.5,3.4,3.4v19.5c0,1.9-1.5,3.4-3.4,3.4l0,0
		C182.1,170.1,180.6,168.5,180.6,166.6z"/>
	<path class="st16" d="M166.9,159.2c-1.3,0-2.4-1.1-2.4-2.4s1.1-2.4,2.4-2.4s2.4,1.1,2.4,2.4l0,0
		C169.3,158.2,168.2,159.2,166.9,159.2z"/>
	<path class="st16" d="M261.1,162.2V149c0-0.3,0.3-0.6,0.6-0.6l0,0l0,0c0.3,0,0.6,0.3,0.6,0.6l0,0v13.2c0,0.3-0.3,0.6-0.6,0.6l0,0
		C261.3,162.9,261.1,162.6,261.1,162.2z"/>
	<circle class="st16" cx="261.7" cy="164.7" r="0.6"/>
	<path class="st16" d="M207.7,156.9L207.7,156.9c0-3.8,3.1-6.9,6.9-6.9l0,0l0,0c3.8,0,6.9,3.1,6.9,6.9l0,0c0,3.8-3.1,6.9-6.9,6.9
		l0,0C210.7,163.8,207.7,160.7,207.7,156.9z"/>
	<path class="st16" d="M207.7,140.7L207.7,140.7c0-3.8,3.1-6.9,6.9-6.9l0,0c3.8,0,6.9,3.1,6.9,6.9l0,0c0,3.8-3.1,6.9-6.9,6.9l0,0
		C210.7,147.5,207.7,144.5,207.7,140.7z"/>
	<path class="st16" d="M207.7,173.2L207.7,173.2c0-3.8,3.1-6.9,6.9-6.9l0,0c3.8,0,6.9,3.1,6.9,6.9l0,0c0,3.8-3.1,6.9-6.9,6.9l0,0
		C210.7,180,207.7,176.9,207.7,173.2z"/>
	<rect x="191" y="150" class="st16" width="13.8" height="13.8"/>
	<rect x="191" y="133.7" class="st16" width="13.8" height="13.8"/>
	<rect x="191" y="166.3" class="st16" width="13.8" height="13.8"/>
	<path class="st22" d="M15.8,94.4h130.7c1.8,0,3.3,1.5,3.3,3.3v82.7c0,1.8-1.5,3.3-3.3,3.3H15.8c-1.8,0-3.3-1.5-3.3-3.3V97.7
		C12.5,95.8,14,94.4,15.8,94.4z"/>
	
		<linearGradient id="SVGID_10_" gradientUnits="userSpaceOnUse" x1="26.3438" y1="-335.106" x2="147.1629" y2="-335.106" gradientTransform="matrix(1 0 0 1 0 474.1)">
		<stop  offset="0" style="stop-color:#25CED1"/>
		<stop  offset="1" style="stop-color:#0097CE"/>
	</linearGradient>
	<path class="st24" d="M27.6,97h118.4c0.7,0,1.2,0.5,1.2,1.2v81.5c0,0.7-0.5,1.2-1.2,1.2H27.6c-0.7,0-1.2-0.5-1.2-1.2V98.2
		C26.3,97.6,26.9,97,27.6,97z"/>
	<path class="st11" d="M19.6,139.3c-1.6,0-2.9-1.3-2.9-2.9c0-1.6,1.3-2.9,2.9-2.9c1.6,0,2.9,1.3,2.9,2.9l0,0
		C22.4,138,21.2,139.3,19.6,139.3L19.6,139.3z"/>
	<polyline class="st21" points="265,156.9 301.8,156.9 301.8,173.7 316.4,173.7 	"/>
	
		<linearGradient id="SVGID_11_" gradientUnits="userSpaceOnUse" x1="339.8225" y1="-331.7806" x2="340.4983" y2="-305.7642" gradientTransform="matrix(1 0 0 1 0 474.1)">
		<stop  offset="0" style="stop-color:#FFC359"/>
		<stop  offset="1" style="stop-color:#F9AD5A"/>
	</linearGradient>
	<polygon class="st25" points="363.2,154.4 340.1,170.3 317.1,154.4 	"/>
	<polygon class="st4" points="357,142.3 357,184.1 321.2,184.1 321.2,137.6 352.6,137.6 	"/>
	<rect x="325.6" y="141.3" class="st26" width="7.5" height="6.3"/>
	<rect x="325.6" y="150.2" class="st27" width="27.6" height="1.3"/>
	<rect x="325.6" y="153.7" class="st27" width="22.4" height="1.3"/>
	<rect x="325.6" y="157.2" class="st27" width="25.7" height="1.3"/>
	<rect x="325.6" y="162.7" class="st27" width="18.7" height="1.3"/>
	<rect x="325.6" y="166.3" class="st27" width="28.7" height="1.3"/>
	<rect x="325.6" y="169.8" class="st27" width="25.7" height="1.3"/>
	<rect x="325.6" y="173.1" class="st28" width="18.2" height="1.3"/>
	<path class="st26" d="M321.2,156.9c0,0,19.1,11.6,33.9,4.9c14.8-6.8-18.7,12.4-18.7,12.4s-13.8-7-13.9-7.1
		c-0.1-0.1-1.3-7.4-1.3-7.4L321.2,156.9z"/>
	<polygon class="st29" points="363.2,154.4 363.2,186.3 317.1,186.3 317.1,154.4 340.1,170.3 	"/>
	<polygon class="st30" points="317.1,186.3 340.1,170.3 363.2,186.3 	"/>
	<polygon class="st31" points="352.3,142.4 357,142.3 352.6,137.6 	"/>
	<path class="st30" d="M177.4,61.3h-51.8l2.4-2.7c1.1-1.2,2.5-1.8,4.1-1.8h40.8C175.3,56.7,177.4,58.8,177.4,61.3L177.4,61.3
		L177.4,61.3z"/>
	<path class="st29" d="M116.8,61.3h60.5l0,0v36.2c0,1.4-1.2,2.6-2.6,2.6h-58c-1.4,0-2.6-1.2-2.6-2.6V63.9
		C114.2,62.5,115.4,61.3,116.8,61.3z"/>
	<path class="st30" d="M371.8,62.5h-21.2l1-1.1c0.4-0.5,1.1-0.7,1.7-0.8h16.7C370.9,60.6,371.8,61.4,371.8,62.5L371.8,62.5
		L371.8,62.5z"/>
	<path class="st29" d="M347.5,62.5h24.2l0,0v14.3c0,0.9-0.7,1.6-1.6,1.6h-22.6c-0.9,0-1.6-0.7-1.6-1.6V64.1
		C345.9,63.2,346.6,62.5,347.5,62.5L347.5,62.5z"/>
	<rect x="232.1" y="95.4" class="st4" width="13.9" height="1.7"/>
	<path class="st16" d="M132,112.7H42.8c-2.4,0-4.3-1.9-4.3-4.3l0,0l0,0c0-2.4,1.9-4.3,4.3-4.3l0,0H132c2.4,0,4.3,1.9,4.3,4.3l0,0
		l0,0C136.3,110.7,134.3,112.7,132,112.7L132,112.7z"/>
	<circle class="st13" cx="240.3" cy="155.6" r="12.4"/>
	<path class="st4" d="M239.7,160.9c-0.7,0-1.2-0.5-1.3-1.2c0-0.1,0-0.1,0-0.2v-7.8c0-0.7,0.6-1.3,1.3-1.3s1.3,0.6,1.3,1.3
		c0,0.2-0.1,0.3-0.1,0.5l-0.2,0.4l0.4-0.1c1.3-0.3,2.6,0.5,2.9,1.8c0.2,0.7,0,1.5-0.5,2.1c-0.4,0.4-0.9,0.7-1.5,0.8l-0.4,0.1
		l0.2,0.3c0.3,0.4,0.1,0.9-0.3,1.2c-0.1,0.1-0.3,0.1-0.4,0.1h-0.1l-0.4-0.1l0.1,0.3c0.1,0.2,0.1,0.3,0.1,0.4
		C241,160.3,240.4,160.9,239.7,160.9L239.7,160.9z"/>
	<path class="st12" d="M47,150.1c10.4-1,12.6,14.2,22.9,5.4c7.9-6.7,11.8-3.4,16.6,1.9s10-12,20.5-0.7"/>
	<text transform="matrix(1 0 0 1 114.5771 155.0502)" class="st4 st14 st32">75</text>
	<rect x="111.6" y="161.3" class="st16" width="13.2" height="1.3"/>
	<path class="st16" d="M124.6,164.3h-12.7c-0.1,0-0.2-0.1-0.2-0.2l0,0c0-0.1,0.1-0.2,0.2-0.2h12.8c0.1,0,0.2,0.1,0.2,0.2l0,0
		C124.8,164.3,124.7,164.4,124.6,164.3C124.6,164.4,124.6,164.4,124.6,164.3z"/>
	<path class="st16" d="M124.6,165.8h-12.7c-0.1,0-0.2-0.1-0.2-0.2l0,0c0-0.1,0.1-0.2,0.2-0.2h12.8c0.1,0,0.2,0.1,0.2,0.2l0,0
		C124.8,165.7,124.7,165.8,124.6,165.8C124.6,165.8,124.6,165.8,124.6,165.8z"/>
	<path class="st16" d="M124.6,167.3h-12.7c-0.1,0-0.2-0.1-0.2-0.2l0,0c0-0.1,0.1-0.2,0.2-0.2l0,0h12.8c0.1,0,0.2,0.1,0.2,0.2l0,0
		l0,0C124.8,167.2,124.7,167.3,124.6,167.3C124.6,167.3,124.6,167.3,124.6,167.3z"/>
	<path class="st16" d="M124.6,168.7h-12.7c-0.1,0-0.2-0.1-0.2-0.2l0,0c0-0.1,0.1-0.2,0.2-0.2h12.8c0.1,0,0.2,0.1,0.2,0.2l0,0
		C124.8,168.6,124.7,168.7,124.6,168.7C124.6,168.7,124.6,168.7,124.6,168.7z"/>
	<path class="st16" d="M104,165.8H91.3c-0.1,0-0.2-0.1-0.2-0.2l0,0c0-0.1,0.1-0.2,0.2-0.2H104c0.1,0,0.2,0.1,0.2,0.2l0,0
		C104.2,165.7,104.1,165.8,104,165.8z"/>
	<path class="st16" d="M104,167.3H91.3c-0.1,0-0.2-0.1-0.2-0.2l0,0c0-0.1,0.1-0.2,0.2-0.2l0,0H104c0.1,0,0.2,0.1,0.2,0.2l0,0l0,0
		C104.2,167.2,104.1,167.3,104,167.3z"/>
	<path class="st16" d="M104,168.7H91.3c-0.1,0-0.2-0.1-0.2-0.2l0,0c0-0.1,0.1-0.2,0.2-0.2H104c0.1,0,0.2,0.1,0.2,0.2l0,0
		C104.2,168.6,104.1,168.7,104,168.7z"/>
	<path class="st16" d="M81.8,165.8H69c-0.1,0-0.2-0.1-0.2-0.2l0,0c0-0.1,0.1-0.2,0.2-0.2h12.7c0.1,0,0.2,0.1,0.2,0.2l0,0
		C82,165.7,81.9,165.8,81.8,165.8z"/>
	<path class="st16" d="M81.8,164.3H69c-0.1,0-0.2-0.1-0.2-0.2l0,0c0-0.1,0.1-0.2,0.2-0.2h12.7c0.1,0,0.2,0.1,0.2,0.2l0,0
		C82,164.2,81.9,164.3,81.8,164.3z"/>
	<path class="st16" d="M81.8,167.3H69c-0.1,0-0.2-0.1-0.2-0.2l0,0c0-0.1,0.1-0.2,0.2-0.2l0,0h12.7c0.1,0,0.2,0.1,0.2,0.2l0,0l0,0
		C82,167.2,81.9,167.3,81.8,167.3z"/>
	<path class="st16" d="M81.8,168.7H69c-0.1,0-0.2-0.1-0.2-0.2l0,0c0-0.1,0.1-0.2,0.2-0.2h12.7c0.1,0,0.2,0.1,0.2,0.2l0,0
		C82,168.6,81.9,168.7,81.8,168.7z"/>
	<path class="st16" d="M58.1,167.3H45.3c-0.1,0-0.2-0.1-0.2-0.2l0,0c0-0.1,0.1-0.2,0.2-0.2l0,0H58c0.1,0,0.2,0.1,0.2,0.2l0,0l0,0
		C58.3,167.2,58.2,167.3,58.1,167.3z"/>
	<path class="st16" d="M58.1,168.7H45.3c-0.1,0-0.2-0.1-0.2-0.2l0,0c0-0.1,0.1-0.2,0.2-0.2H58c0.1,0,0.2,0.1,0.2,0.2l0,0
		C58.3,168.6,58.2,168.7,58.1,168.7z"/>
	<path class="st17" d="M108.2,156.7c0,0.6-0.5,1.2-1.2,1.2c-0.6,0-1.2-0.5-1.1-1.2c0-0.6,0.5-1.2,1.2-1.2
		C107.7,155.6,108.2,156.1,108.2,156.7L108.2,156.7z"/>
	<path class="st17" d="M64.6,158.4c0,0.5-0.4,0.8-0.8,0.8s-0.8-0.4-0.8-0.8c0-0.5,0.4-0.8,0.8-0.8l0,0
		C64.2,157.6,64.6,158,64.6,158.4z"/>
	<circle class="st17" cx="77.9" cy="151.7" r="0.8"/>
	<path class="st17" d="M89.4,158.4c0,0.5-0.4,0.8-0.8,0.8s-0.8-0.4-0.8-0.8c0-0.5,0.4-0.8,0.8-0.8l0,0C89,157.6,89.4,158,89.4,158.4
		z"/>
	<ellipse class="st13" cx="86.8" cy="131.4" rx="12.4" ry="12.4"/>
	<circle class="st13" cx="154.9" cy="24" r="9.1"/>
	<path class="st4" d="M160,24.8c0,0.7-0.6,1.3-1.3,1.3H151c-0.7,0-1.3-0.6-1.3-1.3s0.6-1.3,1.3-1.3c0.2,0,0.3,0.1,0.5,0.1l0.4,0.2
		l-0.1-0.4c-0.1-0.2-0.1-0.4-0.1-0.5c-0.1-1.3,1-2.4,2.3-2.5c1.3-0.1,2.3,0.9,2.5,2.1l0.1,0.3l0.3-0.2c0.4-0.3,0.9-0.2,1.1,0.3
		c0.1,0.1,0.1,0.3,0.1,0.4c0,0.1,0,0.1,0,0.1l-0.1,0.4l0.3-0.1c0.7-0.2,1.4,0.1,1.6,0.8C160,24.5,160,24.6,160,24.8L160,24.8z"/>
	<path class="st4" d="M94.8,131.9c0,1-0.7,1.7-1.6,1.8c-0.1,0-0.2,0-0.2,0h-11c-1.1,0-1.9-0.8-1.9-1.9s0.8-1.9,1.9-1.9l0,0
		c0.2,0,0.5,0.1,0.7,0.1l0.5,0.2l-0.1-0.6c-0.1-0.3-0.1-0.5-0.1-0.8c0-1.9,1.5-3.4,3.4-3.4c1.7,0,3.1,1.2,3.4,2.9l0.1,0.5l0.4-0.3
		c0.2-0.1,0.4-0.2,0.6-0.2c0.6,0,1.2,0.5,1.2,1.2c0,0.1,0,0.1,0,0.2l-0.1,0.5l0.5-0.2c1-0.3,2,0.2,2.4,1.2
		C94.7,131.5,94.8,131.7,94.8,131.9L94.8,131.9z"/>
	<g>
		<rect x="290.6" y="127.7" class="st11" width="5.9" height="15.8"/>
		<circle class="st11" cx="284.5" cy="135.6" r="2.8"/>
		<path class="st33" d="M274.8,182.4v-61.5c0-1,0.7-1.7,1.7-1.7h34.2c1,0,1.7,0.7,1.7,1.7v61.5c0,1-0.7,1.7-1.7,1.7h-34.2
			C275.5,184,274.8,183.3,274.8,182.4z"/>
		
			<linearGradient id="SVGID_12_" gradientUnits="userSpaceOnUse" x1="1397.6682" y1="-1060.6981" x2="1460.666" y2="-1061.0182" gradientTransform="matrix(-6.925406e-05 -1 1 -6.925406e-05 1354.5793 1585.7)">
			<stop  offset="0" style="stop-color:#034078"/>
			<stop  offset="1" style="stop-color:#25CED1"/>
		</linearGradient>
		<path class="st34" d="M311.1,121.1v55.2c0,0.3-0.3,0.6-0.6,0.6l0,0h-33.7c-0.3,0-0.6-0.3-0.6-0.6l0,0v-55.2c0-0.3,0.3-0.6,0.6-0.6
			l0,0h8.4c0.2,0,0.4,0.1,0.5,0.3l0.9,1.4c0.1,0.2,0.3,0.3,0.5,0.3h12.9c0.2,0,0.4-0.1,0.5-0.3l0.8-1.4c0.1-0.2,0.3-0.3,0.6-0.3h8.4
			C310.8,120.5,311.1,120.8,311.1,121.1z"/>
		<path class="st0" d="M299.7,171.9h-12.2c-1.2,0-2.2-1-2.2-2.2l0,0c0-1.2,1-2.2,2.2-2.2h12.2c1.2,0,2.2,1,2.2,2.2l0,0
			C301.8,171,300.9,171.9,299.7,171.9z"/>
		<path class="st16" d="M295.1,180.5c0,0.8-0.6,1.5-1.5,1.5c-0.8,0-1.5-0.7-1.5-1.5c0-0.8,0.7-1.5,1.5-1.5l0,0
			C294.4,178.9,295.1,179.6,295.1,180.5z"/>
		<path class="st16" d="M296.9,121.5h-8.2c-0.2,0-0.4-0.2-0.4-0.4l0,0l0,0c0-0.2,0.2-0.4,0.4-0.4l0,0h8.2c0.2,0,0.4,0.2,0.4,0.4l0,0
			C297.3,121.4,297.1,121.5,296.9,121.5z"/>
		<circle class="st16" cx="298.4" cy="121.2" r="0.4"/>
		<path class="st16" d="M293.6,155L293.6,155c-2.4,0-4.3-1.9-4.3-4.3l0,0l0,0c0-2.4,1.9-4.3,4.3-4.3l0,0c2.4,0,4.3,1.9,4.3,4.3l0,0
			C297.9,153.1,295.9,155,293.6,155z"/>
		<path class="st16" d="M283.4,155L283.4,155c-2.4,0-4.3-1.9-4.3-4.3l0,0c0-2.4,1.9-4.3,4.3-4.3l0,0c2.4,0,4.3,1.9,4.3,4.3l0,0
			C287.7,153.1,285.8,155,283.4,155z"/>
		<path class="st16" d="M303.8,155L303.8,155c-2.4,0-4.3-1.9-4.3-4.3l0,0c0-2.4,1.9-4.3,4.3-4.3l0,0c2.4,0,4.3,1.9,4.3,4.3l0,0
			C308,153.1,306.1,155,303.8,155z"/>
		<rect x="289.3" y="156.8" class="st16" width="8.6" height="8.6"/>
		<rect x="279.1" y="156.8" class="st16" width="8.6" height="8.6"/>
		<rect x="299.4" y="156.8" class="st16" width="8.6" height="8.6"/>
		<circle class="st13" cx="292.8" cy="134.5" r="7.7"/>
		<path class="st4" d="M296.1,135c0,0.4-0.3,0.7-0.7,0.8c-0.1,0-0.1,0-0.1,0h-4.9c-0.5,0-0.8-0.4-0.8-0.8s0.4-0.8,0.8-0.8
			c0.1,0,0.2,0.1,0.3,0.1l0.2,0.1l-0.1-0.3c-0.2-0.8,0.3-1.6,1.1-1.8c0.5-0.1,1,0,1.3,0.3c0.3,0.2,0.5,0.6,0.5,1l0.1,0.2l0.2-0.2
			c0.2-0.2,0.6-0.1,0.7,0.2c0.1,0.1,0.1,0.2,0.1,0.3v0.1l-0.1,0.2l0.2-0.1c0.1-0.1,0.2-0.1,0.3-0.1
			C295.7,134.1,296.1,134.5,296.1,135L296.1,135z"/>
	</g>
</g>
</svg>
