<?xml version="1.0" encoding="utf-8"?>
<!-- Generator: Adobe Illustrator 25.1.0, SVG Export Plug-In . SVG Version: 6.00 Build 0)  -->
<svg version="1.1" id="Capa_1" xmlns="http://www.w3.org/2000/svg" xmlns:xlink="http://www.w3.org/1999/xlink" x="0px" y="0px"
	 viewBox="0 0 755.9 778.1" style="enable-background:new 0 0 755.9 778.1;" xml:space="preserve">
<style type="text/css">
	.st0{fill:#ECF2FA;}
	.st1{fill:#8BBACC;}
	.st2{fill:#274B5B;}
	.st3{opacity:0.2;fill:#274B5B;enable-background:new    ;}
	.st4{opacity:0.3;fill:#FFFFFF;enable-background:new    ;}
	.st5{fill:#25CED1;}
	.st6{fill:#FFDA00;}
	.st7{opacity:0.8;fill:#1B5A6E;enable-background:new    ;}
	.st8{opacity:0.81;fill:#FF8B00;enable-background:new    ;}
	.st9{opacity:0.69;fill:#FFDA00;enable-background:new    ;}
	.st10{opacity:0.88;fill:#FFE706;enable-background:new    ;}
	.st11{fill:#FFFFFF;}
	.st12{fill:#1282A2;}
	.st13{opacity:0.86;fill:#FF8B00;enable-background:new    ;}
	.st14{opacity:0.99;fill:#FF8B00;enable-background:new    ;}
	.st15{opacity:0.63;fill:#FF8B00;enable-background:new    ;}
	.st16{fill:#F9E712;enable-background:new    ;}
	.st17{fill:#F9E819;enable-background:new    ;}
	.st18{fill:#FF1800;enable-background:new    ;}
	.st19{opacity:0.4;}
	.st20{fill:#426270;}
	.st21{fill:#FCE900;}
	.st22{fill:#F7BD2D;}
	.st23{opacity:0.8;fill:#1282A2;enable-background:new    ;}
	.st24{opacity:0.9;}
	.st25{opacity:0.2;}
	.st26{opacity:0.6;fill:#5C7869;enable-background:new    ;}
	.st27{fill:#94E0F7;}
	.st28{opacity:0.8;fill:#FFFFFF;enable-background:new    ;}
	.st29{fill:#034078;}
	.st30{opacity:0.15;fill:#FFFFFF;enable-background:new    ;}
</style>
<path class="st0" d="M246.4,447.8l111.3,106.6c-12.2,12.7-32.4,13.2-45.2,1l0,0L247.4,493C234.6,480.8,234.2,460.6,246.4,447.8
	L246.4,447.8L246.4,447.8z"/>
<path class="st1" d="M356.3,556.9c-8.2,7.5-19.6,10.3-30.3,7.3c-2-0.7-3.9-1.5-5.8-2.6l0.3-0.1c6.5-3.3,9.1-11.2,5.8-17.7
	c-0.6-1.2-1.4-2.3-2.4-3.3l-81.7-82.9c1.1-2.2,2.4-4.3,4-6.2c0.5,0.7,1.1,1.3,1.7,1.9l29.3,28.1l-2,2.1l6.2,5.9l2-2.1l15.7,15.1
	c-0.5,0.2-1,0.4-1.5,0.6l23.3,22.3l1-1l32.6,31.2C355.1,555.9,355.7,556.4,356.3,556.9z"/>
<rect x="237.7" y="474" transform="matrix(0.6918 -0.722 0.722 0.6918 -266.0415 327.3807)" class="st2" width="25.6" height="2.8"/>
<rect x="242.3" y="474.1" transform="matrix(0.6918 -0.722 0.722 0.6918 -265.3255 329.4361)" class="st3" width="22" height="2.8"/>
<rect x="255.1" y="486.4" transform="matrix(0.6918 -0.722 0.722 0.6918 -270.2459 342.4819)" class="st3" width="22" height="2.8"/>
<rect x="280.8" y="511" transform="matrix(0.6918 -0.722 0.722 0.6918 -280.0868 368.5733)" class="st3" width="22" height="2.8"/>
<rect x="293.6" y="523.3" transform="matrix(0.6918 -0.722 0.722 0.6918 -285.0072 381.6191)" class="st3" width="22" height="2.8"/>
<rect x="306.4" y="535.6" transform="matrix(0.6918 -0.722 0.722 0.6918 -289.9276 394.6648)" class="st3" width="22" height="2.8"/>
<rect x="302.3" y="531.7" transform="matrix(0.6918 -0.722 0.722 0.6918 -288.3534 390.4909)" class="st4" width="22" height="2.8"/>
<rect x="290" y="519.9" transform="matrix(0.6918 -0.722 0.722 0.6918 -283.6306 377.9691)" class="st4" width="22" height="2.8"/>
<rect x="277.2" y="507.6" transform="matrix(0.6918 -0.722 0.722 0.6918 -278.7101 364.9234)" class="st4" width="22" height="2.8"/>
<rect x="264.3" y="495.3" transform="matrix(0.6918 -0.722 0.722 0.6918 -273.7897 351.8776)" class="st4" width="22" height="2.8"/>
<rect x="251.5" y="483" transform="matrix(0.6918 -0.722 0.722 0.6918 -268.8693 338.8319)" class="st4" width="22" height="2.8"/>
<rect x="238.7" y="470.7" transform="matrix(0.6918 -0.722 0.722 0.6918 -263.9489 325.7862)" class="st4" width="22" height="2.8"/>
<rect x="267.9" y="498.7" transform="matrix(0.6918 -0.722 0.722 0.6918 -275.1664 355.5276)" class="st3" width="22" height="2.8"/>
<rect x="250.5" y="486.2" transform="matrix(0.6918 -0.722 0.722 0.6918 -270.9284 340.3377)" class="st2" width="25.6" height="2.8"/>
<rect x="263.2" y="498.4" transform="matrix(0.6918 -0.722 0.722 0.6918 -275.8187 353.3035)" class="st2" width="25.6" height="2.8"/>
<rect x="276" y="510.6" transform="matrix(0.6918 -0.722 0.722 0.6918 -280.7056 366.2604)" class="st2" width="25.6" height="2.8"/>
<rect x="301.4" y="535" transform="matrix(0.6918 -0.722 0.722 0.6918 -290.4795 392.1743)" class="st2" width="25.6" height="2.8"/>
<rect x="314.2" y="547.2" transform="matrix(0.6918 -0.722 0.722 0.6918 -295.3664 405.1312)" class="st2" width="25.6" height="2.8"/>
<rect x="288.7" y="522.8" transform="matrix(0.6918 -0.722 0.722 0.6918 -285.5892 379.2085)" class="st2" width="25.6" height="2.8"/>
<path class="st5" d="M248.1,407.1c0,0-91.9,12-167.7,79.8c-1.8,1.6-4.6,1.5-6.3-0.3c-1.2-1.3-1.5-3.3-0.7-4.9
	c27.5-57.5,118.1-213.1,287.1-199"/>
<path class="st6" d="M75.6,490.6c-0.4,0.9-0.6,1.9-0.4,2.9c-2.4-0.4-4-2.7-3.6-5.1c0.1-0.4,0.2-0.8,0.4-1.2
	c27.5-57.5,118.1-213.1,287.1-199l-2.7,3C191.5,281.4,102.8,433.9,75.6,490.6z"/>
<path class="st7" d="M82.4,464.7c19.2-20.5,44.7-36.8,69.8-49.4c12.8-6.4,25.5-11.8,37.1-16.3c36.4-14,68.8-36.7,94.4-66.1
	c14.8-17,31.7-35.8,47.3-52.1c16.4-2.1,14.7-5.4,32.9-3.9L251.5,401.5c0,0-91.9,12-167.7,79.8c-0.9,0.9-2.2,1.3-3.4,1.1"/>
<path class="st2" d="M148.1,395.9c-1-1-1-2.5-0.1-3.5s2.5-1,3.5-0.1c1,1,1,2.5,0.1,3.5l0,0C150.7,396.8,149.1,396.9,148.1,395.9z
	 M150.6,393.3c-0.4-0.4-1.1-0.4-1.5,0c-0.4,0.4-0.4,1.1,0,1.5c0.4,0.4,1.1,0.4,1.5,0C151,394.4,151,393.8,150.6,393.3L150.6,393.3z"
	/>
<path class="st3" d="M146.6,397.5c-1.8-1.8-1.9-4.7-0.1-6.5c1.8-1.8,4.7-1.9,6.5-0.1c1.8,1.8,1.9,4.7,0.1,6.5
	C151.4,399.2,148.5,399.2,146.6,397.5L146.6,397.5z M151,392.8c-0.7-0.7-1.8-0.7-2.5,0.1c-0.7,0.7-0.7,1.8,0.1,2.5
	c0.7,0.7,1.8,0.7,2.5-0.1l0,0C151.8,394.6,151.8,393.5,151,392.8C151,392.8,151,392.8,151,392.8L151,392.8z"/>
<path class="st2" d="M218.7,336.6c-1-1-1-2.5-0.1-3.5s2.5-1,3.5-0.1c1,1,1,2.5,0.1,3.5l0,0C221.2,337.5,219.7,337.6,218.7,336.6z
	 M221.1,334.1c-0.4-0.4-1.1-0.4-1.5,0c-0.4,0.4-0.4,1.1,0,1.5c0.4,0.4,1.1,0.4,1.5,0C221.6,335.1,221.6,334.5,221.1,334.1
	C221.1,334.1,221.1,334.1,221.1,334.1z"/>
<path class="st3" d="M217.2,338.2c-1.8-1.8-1.9-4.7-0.1-6.5c1.8-1.8,4.7-1.9,6.5-0.1c1.8,1.8,1.9,4.7,0.1,6.5
	C222,339.9,219,339.9,217.2,338.2L217.2,338.2z M221.6,333.5c-0.7-0.7-1.8-0.7-2.5,0.1c-0.7,0.7-0.7,1.8,0.1,2.5s1.8,0.7,2.5-0.1
	C222.4,335.3,222.3,334.2,221.6,333.5L221.6,333.5z"/>
<path class="st2" d="M470.5,577.9c-1-1-1-2.5-0.1-3.5s2.5-1,3.5-0.1c1,1,1,2.5,0.1,3.5l0,0C473.1,578.9,471.5,578.9,470.5,577.9z
	 M473,575.4c-0.4-0.4-1.1-0.4-1.5,0c-0.4,0.4-0.4,1.1,0,1.5c0.4,0.4,1.1,0.4,1.5,0S473.4,575.8,473,575.4L473,575.4z"/>
<path class="st3" d="M469,579.5c-1.8-1.8-1.9-4.7-0.1-6.5c1.8-1.8,4.7-1.9,6.5-0.1c1.8,1.8,1.9,4.7,0.1,6.5
	C473.8,581.2,470.9,581.2,469,579.5L469,579.5z M473.5,574.9c-0.7-0.7-1.8-0.7-2.5,0.1c-0.7,0.7-0.7,1.8,0.1,2.5
	c0.7,0.7,1.8,0.7,2.5-0.1S474.2,575.5,473.5,574.9L473.5,574.9z"/>
<path class="st2" d="M469,576.5c-1-1-1-2.5-0.1-3.5s2.5-1,3.5-0.1c1,1,1,2.5,0.1,3.5l0,0C471.6,577.4,470,577.4,469,576.5z
	 M471.4,573.9c-0.4-0.4-1.1-0.4-1.5,0c-0.4,0.4-0.4,1.1,0,1.5c0.4,0.4,1.1,0.4,1.5,0S471.9,574.3,471.4,573.9L471.4,573.9z"/>
<path class="st3" d="M467.5,578c-1.8-1.8-1.9-4.7-0.1-6.5c1.8-1.8,4.7-1.9,6.5-0.1c1.8,1.8,1.9,4.7,0.1,6.5
	C472.3,579.7,469.4,579.8,467.5,578L467.5,578z M471.9,573.4c-0.7-0.7-1.8-0.7-2.5,0.1c-0.7,0.7-0.7,1.8,0.1,2.5
	c0.7,0.7,1.8,0.7,2.5-0.1C472.7,575.2,472.6,574.1,471.9,573.4L471.9,573.4z"/>
<rect x="81.2" y="376.1" transform="matrix(0.6918 -0.722 0.722 0.6918 -211.6718 259.0865)" class="st2" width="233" height="2.8"/>
<rect x="82.4" y="376" transform="matrix(0.6918 -0.722 0.722 0.6918 -210.372 261.9605)" class="st3" width="238.7" height="2.8"/>
<rect x="79.1" y="374.1" transform="matrix(0.6918 -0.722 0.722 0.6918 -210.8847 256.9995)" class="st4" width="233" height="2.8"/>
<rect x="133.4" y="357.1" transform="matrix(0.6918 -0.722 0.722 0.6918 -185.4077 282.697)" class="st2" width="210.3" height="2.8"/>
<rect x="135.4" y="359.1" transform="matrix(0.6918 -0.722 0.722 0.6918 -186.1948 284.784)" class="st3" width="210.3" height="2.8"/>
<rect x="131.3" y="355.2" transform="matrix(0.6918 -0.722 0.722 0.6918 -184.6205 280.61)" class="st4" width="210.3" height="2.8"/>
<path class="st8" d="M254.6,762.6c-22.9-22-23.6-58.4-1.7-81.4l38.8-40.5l11.3,10.8l-38.8,40.5c-16,16.7-15.5,43.3,1.3,59.3
	c16.7,16,43.3,15.5,59.3-1.3c8.5-8.9,12.7-21.1,11.4-33.3l15.5-1.6c3.2,31.6-19.8,59.9-51.4,63.2c-15.2,1.6-30.4-3-42.2-12.6
	C256.9,764.8,255.8,763.7,254.6,762.6z"/>
<path class="st9" d="M266.7,740.6c-1.2-1.2-2.4-2.4-3.4-3.8l12.3-9.6c6.3,8.1,18,9.6,26.1,3.2c8.1-6.3,9.6-18,3.2-26.1
	c-3-3.9-7.5-6.4-12.4-7l1.9-15.5c18.8,2.3,32.1,19.5,29.7,38.2c-2.3,18.8-19.5,32.1-38.2,29.7C278.8,748.8,272,745.6,266.7,740.6
	L266.7,740.6z"/>
<ellipse transform="matrix(0.6918 -0.722 0.722 0.6918 -373.7196 454.8494)" class="st10" cx="346" cy="665.3" rx="11.4" ry="11.4"/>
<path class="st11" d="M318.5,726.3c-0.9,0.5-1.9,0.7-2.9,0.5c0.5,2.4,2.9,3.9,5.3,3.4c0.4-0.1,0.8-0.2,1.2-0.4
	c56.2-29.9,207.8-127.1,186.6-295.3l-2.9,2.8C522.6,601.6,374,696.7,318.5,726.3z"/>
<path class="st5" d="M391.6,554.4c0,0-8.1,92.3-72.5,171c-1.6,1.9-1.3,4.7,0.6,6.3c1.4,1.2,3.3,1.3,4.9,0.5
	c56.2-30,207.8-127.1,186.6-295.3"/>
<path class="st7" d="M341.1,722.4c19.7-20.1,34.9-46.3,46.3-71.8c5.8-13.1,10.7-26,14.7-37.8c12.5-36.9,33.7-70.3,61.9-97.1
	c16.3-15.6,34.4-33.2,50-49.5c1.4-16.5,4.8-14.9,2.5-33.1L397,550.7c0,0-8.1,92.3-72.5,171c-0.8,1-1.2,2.2-1,3.5"/>
<path class="st2" d="M411.3,649c-1-1-1-2.5-0.1-3.5s2.5-1,3.5-0.1c1,1,1,2.5,0.1,3.5l0,0C413.8,649.9,412.3,650,411.3,649z
	 M413.7,646.5c-0.4-0.4-1.1-0.4-1.5,0c-0.4,0.4-0.4,1.1,0,1.5c0.4,0.4,1.1,0.4,1.5,0C414.1,647.5,414.1,646.9,413.7,646.5
	L413.7,646.5z"/>
<path class="st3" d="M409.8,650.6c-1.8-1.8-1.9-4.7-0.1-6.5c1.8-1.8,4.7-1.9,6.5-0.1c1.8,1.8,1.9,4.7,0.1,6.5
	C414.5,652.3,411.6,652.4,409.8,650.6L409.8,650.6z M414.2,646c-0.7-0.7-1.8-0.7-2.5,0.1c-0.7,0.7-0.7,1.8,0.1,2.5
	c0.7,0.7,1.8,0.7,2.5-0.1l0,0C414.9,647.8,414.9,646.6,414.2,646z"/>
<rect x="306" y="598.8" transform="matrix(0.6918 -0.722 0.722 0.6918 -302.1222 492.5809)" class="st2" width="240.1" height="2.8"/>
<rect x="320.6" y="589.4" transform="matrix(0.6918 -0.722 0.722 0.6918 -293.7643 493.3494)" class="st3" width="220.9" height="2.8"/>
<rect x="309.1" y="603.4" transform="matrix(0.6918 -0.722 0.722 0.6918 -305.5202 493.6831)" class="st4" width="233" height="2.8"/>
<rect x="335.6" y="559.8" transform="matrix(0.6918 -0.722 0.722 0.6918 -269.4185 491.2111)" class="st2" width="210.3" height="2.8"/>
<rect x="339.6" y="555.3" transform="matrix(0.6918 -0.722 0.722 0.6918 -266.0205 490.1089)" class="st3" width="203.2" height="2.8"/>
<rect x="337.7" y="561.8" transform="matrix(0.6918 -0.722 0.722 0.6918 -270.2057 493.298)" class="st4" width="210.3" height="2.8"/>
<path class="st12" d="M319.2,731.7c-0.3-0.3-0.6-0.6-0.8-0.9c-3-3.6-3-8.8,0-12.4c62.7-76.4,71.3-167.1,71.4-168l10.6,0.9
	c-0.1,1-2.2,24-12.3,57.1c-9.1,29.7-26.6,73-58.7,113.4c28-15.2,77-46.1,117-92.5c50.7-58.9,71.9-124.7,63-195.4l10.6-1.3
	c5.1,38.9,0.8,78.5-12.6,115.4c-11.2,30.9-29,60.6-52.9,88.3c-43,50-96.1,82.2-123.9,97C326.8,735.3,322.2,734.7,319.2,731.7z"/>
<path class="st13" d="M68.6,612.9c-26.1-24.9-27.1-66.2-2.3-92.3c13.3-14,32.1-21.3,51.3-20.1l-0.9,15.6
	c-27.4-1.6-51,19.3-52.6,46.7c-1.6,27.4,19.3,51,46.7,52.6c14.6,0.9,28.8-4.7,38.9-15.2l85-88.7l11.3,10.8l-85,88.7
	C136,637,94.7,637.8,68.6,612.9L68.6,612.9L68.6,612.9z"/>
<path class="st14" d="M134.3,717.3c-14.5-14-15-37.1-1.1-51.7l83.8-87.5l11.3,10.8l-83.8,87.5c-8,8.4-7.7,21.6,0.7,29.6
	c8.4,8,21.6,7.7,29.6-0.7c4.2-4.4,6.3-10.5,5.7-16.6l15.5-1.6c2.1,20.1-12.6,38.1-32.7,40.1c-9.7,1-19.3-1.9-26.8-8
	C135.8,718.6,135,718,134.3,717.3z"/>
<rect x="231.1" y="545.2" transform="matrix(0.6918 -0.722 0.722 0.6918 -322.28 350.8741)" class="st15" width="37.6" height="15.6"/>
<path class="st16" d="M93.3,593c-1.2-1.2-2.4-2.4-3.4-3.8l12.3-9.6c6.3,8.1,18,9.6,26.1,3.2s9.6-18,3.2-26.1c-3-3.9-7.5-6.4-12.4-7
	l1.9-15.5c18.8,2.3,32.1,19.5,29.7,38.2c-2.3,18.8-19.5,32.1-38.2,29.7C105.4,601.3,98.6,598.1,93.3,593L93.3,593z"/>
<path class="st17" d="M202.9,668.8c-9.9-9.5-10.2-25.2-0.8-35.1c9.5-9.9,25.2-10.2,35.1-0.8c9.9,9.5,10.2,25.2,0.8,35.1l0,0
	C228.6,678,212.8,678.3,202.9,668.8z M226.5,644.2c-3.7-3.5-9.5-3.4-13.1,0.3c-3.5,3.7-3.4,9.5,0.3,13.1c3.7,3.5,9.5,3.4,13.1-0.3
	C230.3,653.6,230.2,647.7,226.5,644.2z"/>
<circle class="st18" cx="193" cy="743.9" r="5.7"/>
<path class="st12" d="M69.1,491.1c-3.1-2.9-3.9-7.5-2-11.3c13.6-28.4,43.6-82.8,91.7-127.9c26.7-25,55.6-44.1,85.9-56.6
	c36.3-14.9,75.7-20.9,114.8-17.5l-0.9,10.6c-71.1-5.9-135.9,18.1-192.5,71.3c-44.7,42-73.3,92.3-87.4,120.8
	c38.9-33.8,81.5-53.1,110.8-63.5c32.6-11.5,55.6-14.6,56.5-14.7l1.4,10.6l0,0c-0.3,0.1-23.1,3.1-54.6,14.3
	c-29.1,10.3-71.8,29.8-110.2,64.1c-3.5,3.2-8.7,3.4-12.4,0.5C69.7,491.7,69.4,491.4,69.1,491.1z"/>
<path class="st5" d="M737.4,63.1c0.3-8.7-6.4-16.1-15.2-16.4c-0.6,0-1.3,0-1.9,0C668.9,51,513.7,74.2,393.6,199.5
	C276.1,322.1,249.9,402.7,244.2,429.4c-1.2,5.7,1.4,12.7,6.7,17.7l106.6,102.1c5.3,5.1,12.3,7.4,18,5.9
	c26.5-6.9,105.9-36.4,223.4-159.1C718.8,270.8,735.3,114.6,737.4,63.1z"/>
<rect x="232.5" y="326.1" transform="matrix(0.6918 -0.722 0.722 0.6918 -92.6319 438.0884)" class="st2" width="468.8" height="2.8"/>
<rect x="230.5" y="324.2" transform="matrix(0.6918 -0.722 0.722 0.6918 -91.8448 436.0014)" class="st3" width="468.8" height="2.8"/>
<rect x="234.6" y="328.1" transform="matrix(0.6918 -0.722 0.722 0.6918 -93.4191 440.1753)" class="st4" width="468.8" height="2.8"/>
<path class="st0" d="M700.3,220.6L562.4,88.4c27.8-12.2,56.4-22.3,85.7-30.3c2.6-0.7,5.1-1.4,7.5-2c47.9-10.6,78.3-12.2,78.3-12.2
	s-0.4,42.4-14.3,106.3l-0.2,0.9C714.6,172.3,708.4,195.7,700.3,220.6z"/>
<path class="st1" d="M700.7,218.1l-6.5-8.3c5-30.2,6.2-100.3-36.4-151c2.4-0.8,9.1-0.8,11.5-1.5c17.6-4.7,31-6.3,42.9-8.6
	c11.1-2.2,21.9,5.1,24.1,16.2c0.4,2.2,0.5,4.4,0.2,6.5c-3,24.6-7.6,48.9-13.9,72.9c-0.1,0.3,0.9,1.6,0.8,1.9
	C718,166.7,723.7,188,700.7,218.1z"/>
<path class="st11" d="M595.7,95.2c-1.4-1.4-1.5-3.6-0.1-5c0.4-0.4,0.9-0.7,1.5-0.9c6.9-2.2,14.1-4.2,21.1-6
	c6.8-1.9,13.7-3.7,20.4-5.8c1.9-0.5,3.8,0.6,4.4,2.5c0.5,1.8-0.5,3.7-2.2,4.3c-6.8,2.2-13.8,4.1-20.7,5.9s-14,3.8-20.8,5.9
	C598,96.4,596.6,96.1,595.7,95.2z"/>
<g class="st19">
	<path class="st20" d="M569.1,272.9c8.4-2.2,15.1-4.5,15.3-4c0.2,0.5-6.3,3.5-14.9,5.7c-8.5,2.2-15.7,2.8-15.8,2.3
		S560.7,275.1,569.1,272.9z"/>
	
		<ellipse transform="matrix(0.9634 -0.2681 0.2681 0.9634 -54.8744 163.226)" class="st20" cx="570.2" cy="282.5" rx="10.5" ry="0.9"/>
	<path class="st20" d="M567,277.7c3,6.6,5.7,11.8,5.2,12c-0.5,0.2-3.9-4.6-6.9-11.3s-4.3-12.5-3.9-12.6
		C561.9,265.7,564,271.1,567,277.7z"/>
	<path class="st20" d="M572.8,280.7c2.4,6.2,4.9,11.1,4.4,11.3c-0.4,0.3-3.6-4.3-6.1-10.7c-2.5-6.4-3.2-11.9-2.7-12
		C568.8,269.4,570.4,274.6,572.8,280.7z"/>
</g>
<path class="st21" d="M268.6,469.1l-18.7-17.9c-5.3-5.1-7.9-12-6.6-17.7C249,406.7,275.3,326,393.1,203
	C508.5,82.7,656.1,56.2,713.5,50.4c-51.8,5.5-177.1,31.2-291.9,151l72.1-13.7C491.5,188.8,256.1,310.1,268.6,469.1z"/>
<path class="st22" d="M258.3,454.7l-5.1-4.9c-5.3-5.1-7.9-12-6.6-17.7c5.8-26.8,32.1-107.5,149.9-230.4
	C511.7,81.3,659.3,54.8,716.7,49.1c-29.4,3.1-82.7,12.8-144.3,42.6l0,0c-55.6,22.7-116.8,58.5-170.9,114.9
	C283.7,329.5,257.4,410.2,251.7,437C250.4,442.8,253,449.7,258.3,454.7z"/>
<path class="st23" d="M334.1,526.9l18.7,17.9c5.3,5.1,12.3,7.4,18,5.9c26.5-6.9,105.8-36.4,223.3-159
	c115-120,134.9-268.4,138.1-325.9c-3.2,51.9-17.7,183.4-132.2,302.9l14.6-68.6C613.6,302.3,493.3,532.8,334.1,526.9z"/>
<g class="st24">
	<path class="st11" d="M528.2,133.5c4.2-2.6,8.5-5,12.9-7.1c3.6-1.7,7.3-3.3,11.1-4.6c6.4-2.2,10.8-2.8,11.3-1.7s-2.9,3.8-8.5,7.4
		c-2.8,1.8-6.2,3.9-9.9,6.2l-12.1,7.4l-12.1,7.6c-3.7,2.4-7,4.4-9.9,6.2c-5.7,3.4-9.6,5.3-10.4,4.3c-0.8-1,1.6-4.5,6.5-9.4
		c2.9-2.8,5.9-5.5,9-7.9C520,138.9,524,136.1,528.2,133.5z"/>
</g>
<g class="st24">
	
		<ellipse transform="matrix(0.8091 -0.5877 0.5877 0.8091 -5.8277 317.0651)" class="st11" cx="485.1" cy="167.5" rx="10.7" ry="4.5"/>
</g>
<g class="st25">
	<path class="st20" d="M690.2,63.5c7.2,1,13.7,2.1,18.4,3c4.7,0.9,7.6,1.7,7.5,1.9c-0.1,0.3-3-0.1-7.7-0.7L690,65.3l-18.5-2.4
		c-4.7-0.7-7.6-1.2-7.6-1.4c0-0.2,3-0.2,7.7,0.1C676.4,61.9,683,62.6,690.2,63.5z"/>
	<path class="st20" d="M687,70c12.8,5.4,23.2,9.6,23,10.1c-0.1,0.2-2.8-0.5-7.1-2c-4.3-1.5-10.2-3.7-16.6-6.4
		c-6.4-2.7-12.1-5.4-16.2-7.4c-4.1-2.1-6.5-3.5-6.4-3.7C663.9,60.1,674.2,64.7,687,70z"/>
</g>
<path class="st2" d="M563.9,208.4c-1-1-1-2.5-0.1-3.5c1-1,2.5-1,3.5-0.1c1,1,1,2.5,0.1,3.5l0,0C566.4,209.3,564.9,209.4,563.9,208.4
	z M566.3,205.9c-0.4-0.4-1.1-0.4-1.5,0c-0.4,0.4-0.4,1.1,0,1.5c0.4,0.4,1.1,0.4,1.5,0C566.8,206.9,566.8,206.3,566.3,205.9
	L566.3,205.9z"/>
<path class="st3" d="M562.4,210c-1.8-1.8-1.9-4.7-0.1-6.5c1.8-1.8,4.7-1.9,6.5-0.1c1.8,1.8,1.9,4.7,0.1,6.5
	C567.2,211.7,564.2,211.7,562.4,210L562.4,210z M566.8,205.3c-0.7-0.7-1.8-0.7-2.5,0.1s-0.7,1.8,0.1,2.5c0.7,0.7,1.8,0.7,2.5-0.1
	C567.6,207.2,567.6,206,566.8,205.3C566.9,205.3,566.8,205.3,566.8,205.3L566.8,205.3z"/>
<path class="st2" d="M597.5,173.3c-1-1-1-2.5-0.1-3.5c1-1,2.5-1,3.5-0.1c1,1,1,2.5,0.1,3.5l0,0C600.1,174.2,598.5,174.2,597.5,173.3
	z M600,170.7c-0.4-0.4-1.1-0.4-1.5,0c-0.4,0.4-0.4,1.1,0,1.5c0.4,0.4,1.1,0.4,1.5,0C600.4,171.8,600.4,171.1,600,170.7L600,170.7z"
	/>
<path class="st3" d="M596.1,174.8c-1.8-1.8-1.9-4.7-0.1-6.5c1.8-1.8,4.7-1.9,6.5-0.1c1.8,1.8,1.9,4.7,0.1,6.5
	C600.8,176.5,597.9,176.6,596.1,174.8L596.1,174.8z M600.5,170.2c-0.7-0.7-1.8-0.7-2.5,0.1c-0.7,0.7-0.7,1.8,0.1,2.5
	c0.7,0.7,1.8,0.7,2.5-0.1S601.2,170.9,600.5,170.2C600.5,170.2,600.5,170.2,600.5,170.2L600.5,170.2z"/>
<path class="st2" d="M604.7,201.8c-1-1-1-2.5-0.1-3.5c1-1,2.5-1,3.5-0.1c1,1,1,2.5,0.1,3.5l0,0C607.2,202.7,605.7,202.7,604.7,201.8
	z M607.1,199.2c-0.4-0.4-1.1-0.4-1.5,0c-0.4,0.4-0.4,1.1,0,1.5c0.4,0.4,1.1,0.4,1.5,0C607.6,200.3,607.6,199.6,607.1,199.2
	L607.1,199.2z"/>
<path class="st3" d="M603.2,203.3c-1.8-1.8-1.9-4.7-0.1-6.5c1.8-1.8,4.7-1.9,6.5-0.1c1.8,1.8,1.9,4.7,0.1,6.5
	C608,205,605,205.1,603.2,203.3L603.2,203.3z M607.6,198.7c-0.7-0.7-1.8-0.7-2.5,0.1c-0.7,0.7-0.7,1.8,0.1,2.5s1.8,0.7,2.5-0.1
	C608.3,200.5,608.3,199.4,607.6,198.7L607.6,198.7z"/>
<path class="st2" d="M482.3,329.5c-1-1-1-2.5-0.1-3.5s2.5-1,3.5-0.1c1,1,1,2.5,0.1,3.5l0,0C484.9,330.4,483.3,330.4,482.3,329.5z
	 M484.8,326.9c-0.4-0.4-1.1-0.4-1.5,0c-0.4,0.4-0.4,1.1,0,1.5c0.4,0.4,1.1,0.4,1.5,0C485.2,328,485.2,327.3,484.8,326.9L484.8,326.9
	z"/>
<path class="st3" d="M480.8,331c-1.8-1.8-1.9-4.7-0.1-6.5c1.8-1.8,4.7-1.9,6.5-0.1c1.8,1.8,1.9,4.7,0.1,6.5S482.7,332.8,480.8,331
	L480.8,331z M485.2,326.4c-0.7-0.7-1.8-0.7-2.5,0.1c-0.7,0.7-0.7,1.8,0.1,2.5c0.7,0.7,1.8,0.7,2.5-0.1
	C486,328.2,486,327.1,485.2,326.4C485.3,326.4,485.3,326.4,485.2,326.4L485.2,326.4z"/>
<path class="st2" d="M457.8,356.2c-1-1-1-2.5-0.1-3.5s2.5-1,3.5-0.1c1,1,1,2.5,0.1,3.5l0,0C460.4,357.1,458.8,357.1,457.8,356.2z
	 M460.2,353.6c-0.4-0.4-1.1-0.4-1.5,0c-0.4,0.4-0.4,1.1,0,1.5c0.4,0.4,1.1,0.4,1.5,0S460.7,354,460.2,353.6L460.2,353.6z"/>
<path class="st3" d="M456.3,357.7c-1.8-1.8-1.9-4.7-0.1-6.5c1.8-1.8,4.7-1.9,6.5-0.1c1.8,1.8,1.9,4.7,0.1,6.5
	C461.1,359.4,458.2,359.5,456.3,357.7L456.3,357.7z M460.7,353.1c-0.7-0.7-1.8-0.7-2.5,0.1c-0.7,0.7-0.7,1.8,0.1,2.5
	s1.8,0.7,2.5-0.1C461.5,354.9,461.4,353.8,460.7,353.1L460.7,353.1z"/>
<path class="st2" d="M469.7,303.6c-1-1-1-2.5-0.1-3.5s2.5-1,3.5-0.1c1,1,1,2.5,0.1,3.5l0,0C472.2,304.5,470.6,304.6,469.7,303.6z
	 M472.1,301c-0.4-0.4-1.1-0.4-1.5,0c-0.4,0.4-0.4,1.1,0,1.5c0.4,0.4,1.1,0.4,1.5,0C472.6,302.1,472.5,301.5,472.1,301L472.1,301z"/>
<path class="st3" d="M468.2,305.1c-1.8-1.8-1.9-4.7-0.1-6.5c1.8-1.8,4.7-1.9,6.5-0.1c1.8,1.8,1.9,4.7,0.1,6.5S470,306.9,468.2,305.1
	L468.2,305.1z M472.6,300.5c-0.7-0.7-1.8-0.7-2.5,0.1c-0.7,0.7-0.7,1.8,0.1,2.5c0.7,0.7,1.8,0.7,2.5-0.1
	C473.3,302.3,473.3,301.2,472.6,300.5L472.6,300.5z"/>
<path class="st2" d="M444.6,329.8c-1-1-1-2.5-0.1-3.5s2.5-1,3.5-0.1c1,1,1,2.5,0.1,3.5l0,0C447.2,330.7,445.6,330.7,444.6,329.8z
	 M447.1,327.2c-0.4-0.4-1.1-0.4-1.5,0c-0.4,0.4-0.4,1.1,0,1.5c0.4,0.4,1.1,0.4,1.5,0C447.5,328.3,447.5,327.6,447.1,327.2
	L447.1,327.2z"/>
<path class="st3" d="M443.1,331.3c-1.8-1.8-1.9-4.7-0.1-6.5s4.7-1.9,6.5-0.1c1.8,1.8,1.9,4.7,0.1,6.5C447.9,333,445,333,443.1,331.3
	L443.1,331.3z M447.6,326.7c-0.7-0.7-1.8-0.7-2.5,0.1s-0.7,1.8,0.1,2.5c0.7,0.7,1.8,0.7,2.5-0.1
	C448.3,328.5,448.2,327.4,447.6,326.7L447.6,326.7z"/>
<path class="st2" d="M530.2,243.6c-1-1-1-2.5-0.1-3.5c1-1,2.5-1,3.5-0.1c1,1,1,2.5,0.1,3.5l0,0C532.8,244.5,531.2,244.5,530.2,243.6
	z M532.7,241c-0.4-0.4-1.1-0.4-1.5,0c-0.4,0.4-0.4,1.1,0,1.5c0.4,0.4,1.1,0.4,1.5,0C533.1,242.1,533.1,241.4,532.7,241L532.7,241z"
	/>
<path class="st3" d="M528.7,245.1c-1.8-1.8-1.9-4.7-0.1-6.5c1.8-1.8,4.7-1.9,6.5-0.1c1.8,1.8,1.9,4.7,0.1,6.5
	C533.5,246.8,530.6,246.9,528.7,245.1L528.7,245.1z M533.2,240.5c-0.7-0.7-1.8-0.7-2.5,0.1s-0.7,1.8,0.1,2.5
	c0.7,0.7,1.8,0.7,2.5-0.1C533.9,242.3,533.9,241.2,533.2,240.5L533.2,240.5z"/>
<path class="st2" d="M674,175.7c-1-1-1-2.5-0.1-3.5c1-1,2.5-1,3.5-0.1c1,1,1,2.5,0.1,3.5c0,0,0,0,0,0
	C676.5,176.6,674.9,176.6,674,175.7z M676.4,173.1c-0.4-0.4-1.1-0.4-1.5,0c-0.4,0.4-0.4,1.1,0,1.5c0.4,0.4,1.1,0.4,1.5,0
	C676.8,174.2,676.8,173.5,676.4,173.1L676.4,173.1z"/>
<path class="st3" d="M672.5,177.2c-1.8-1.8-1.9-4.7-0.1-6.5c1.8-1.8,4.7-1.9,6.5-0.1c1.8,1.8,1.9,4.7,0.1,6.5
	C677.2,178.9,674.3,179,672.5,177.2L672.5,177.2z M676.9,172.6c-0.7-0.7-1.8-0.7-2.5,0.1c-0.7,0.7-0.7,1.8,0.1,2.5
	c0.7,0.7,1.8,0.7,2.5-0.1S677.6,173.3,676.9,172.6L676.9,172.6z"/>
<path class="st2" d="M609.3,113.8c-1-1-1-2.5-0.1-3.5c1-1,2.5-1,3.5-0.1c1,1,1,2.5,0.1,3.5c0,0,0,0,0,0
	C611.9,114.7,610.3,114.7,609.3,113.8z M611.8,111.2c-0.4-0.4-1.1-0.4-1.5,0c-0.4,0.4-0.4,1.1,0,1.5c0.4,0.4,1.1,0.4,1.5,0
	C612.2,112.3,612.2,111.6,611.8,111.2L611.8,111.2z"/>
<path class="st3" d="M607.9,115.3c-1.8-1.8-1.9-4.7-0.1-6.5c1.8-1.8,4.7-1.9,6.5-0.1c1.8,1.8,1.9,4.7,0.1,6.5
	S609.7,117.1,607.9,115.3L607.9,115.3z M612.3,110.7c-0.7-0.7-1.8-0.7-2.5,0.1c-0.7,0.7-0.7,1.8,0.1,2.5c0.7,0.7,1.8,0.7,2.5-0.1
	S613,111.4,612.3,110.7L612.3,110.7z"/>
<path class="st2" d="M641.6,144.7c-1-1-1-2.5-0.1-3.5c1-1,2.5-1,3.5-0.1c1,1,1,2.5,0.1,3.5c0,0,0,0,0,0
	C644.2,145.6,642.6,145.7,641.6,144.7z M644.1,142.2c-0.4-0.4-1.1-0.4-1.5,0c-0.4,0.4-0.4,1.1,0,1.5c0.4,0.4,1.1,0.4,1.5,0
	C644.5,143.2,644.5,142.6,644.1,142.2L644.1,142.2z"/>
<path class="st3" d="M640.2,146.3c-1.8-1.8-1.9-4.7-0.1-6.5c1.8-1.8,4.7-1.9,6.5-0.1c1.8,1.8,1.9,4.7,0.1,6.5
	C644.9,148,642,148,640.2,146.3L640.2,146.3z M644.6,141.6c-0.7-0.7-1.8-0.7-2.5,0.1c-0.7,0.7-0.7,1.8,0.1,2.5s1.8,0.7,2.5-0.1
	S645.3,142.3,644.6,141.6L644.6,141.6z"/>
<path class="st2" d="M408.8,370.3c-1-1-1-2.5-0.1-3.5c1-1,2.5-1,3.5-0.1c1,1,1,2.5,0.1,3.5l0,0C411.4,371.2,409.8,371.2,408.8,370.3
	z M411.3,367.7c-0.4-0.4-1.1-0.4-1.5,0c-0.4,0.4-0.4,1.1,0,1.5c0.4,0.4,1.1,0.4,1.5,0C411.7,368.8,411.7,368.1,411.3,367.7
	L411.3,367.7z"/>
<path class="st3" d="M407.3,371.8c-1.8-1.8-1.9-4.7-0.1-6.5c1.8-1.8,4.7-1.9,6.5-0.1c1.8,1.8,1.9,4.7,0.1,6.5
	C412.1,373.5,409.2,373.6,407.3,371.8L407.3,371.8z M411.8,367.2c-0.7-0.7-1.8-0.7-2.5,0.1c-0.7,0.7-0.7,1.8,0.1,2.5
	s1.8,0.7,2.5-0.1C412.5,369,412.5,367.9,411.8,367.2L411.8,367.2z"/>
<path class="st2" d="M372.8,407.9c-1-1-1-2.5-0.1-3.5s2.5-1,3.5-0.1c1,1,1,2.5,0.1,3.5l0,0C375.4,408.8,373.8,408.8,372.8,407.9z
	 M375.2,405.3c-0.4-0.4-1.1-0.4-1.5,0c-0.4,0.4-0.4,1.1,0,1.5c0.4,0.4,1.1,0.4,1.5,0C375.7,406.4,375.6,405.7,375.2,405.3
	L375.2,405.3z"/>
<path class="st3" d="M371.3,409.4c-1.8-1.8-1.9-4.7-0.1-6.5c1.8-1.8,4.7-1.9,6.5-0.1c1.8,1.8,1.9,4.7,0.1,6.5
	C376.1,411.1,373.1,411.2,371.3,409.4L371.3,409.4z M375.7,404.8c-0.7-0.7-1.8-0.7-2.5,0.1c-0.7,0.7-0.7,1.8,0.1,2.5
	s1.8,0.7,2.5-0.1C376.5,406.6,376.4,405.5,375.7,404.8L375.7,404.8z"/>
<path class="st2" d="M336.7,445.5c-1-1-1-2.5-0.1-3.5c1-1,2.5-1,3.5-0.1c1,1,1,2.5,0.1,3.5l0,0C339.3,446.4,337.7,446.4,336.7,445.5
	z M339.2,442.9c-0.4-0.4-1.1-0.4-1.5,0c-0.4,0.4-0.4,1.1,0,1.5c0.4,0.4,1.1,0.4,1.5,0C339.6,444,339.6,443.3,339.2,442.9
	L339.2,442.9z"/>
<path class="st3" d="M335.3,447c-1.8-1.8-1.9-4.7-0.1-6.5c1.8-1.8,4.7-1.9,6.5-0.1c1.8,1.8,1.9,4.7,0.1,6.5
	C340,448.7,337.1,448.8,335.3,447L335.3,447z M339.7,442.4c-0.7-0.7-1.8-0.7-2.5,0.1c-0.7,0.7-0.7,1.8,0.1,2.5s1.8,0.7,2.5-0.1
	C340.4,444.2,340.4,443.1,339.7,442.4L339.7,442.4z"/>
<path class="st2" d="M300.7,483.1c-1-1-1-2.5-0.1-3.5c1-1,2.5-1,3.5-0.1c1,1,1,2.5,0.1,3.5l0,0C303.3,484,301.7,484,300.7,483.1z
	 M303.2,480.5c-0.4-0.4-1.1-0.4-1.5,0c-0.4,0.4-0.4,1.1,0,1.5c0.4,0.4,1.1,0.4,1.5,0C303.6,481.6,303.6,480.9,303.2,480.5
	L303.2,480.5z"/>
<path class="st3" d="M299.2,484.7c-1.8-1.8-1.9-4.7-0.1-6.5s4.7-1.9,6.5-0.1c1.8,1.8,1.9,4.7,0.1,6.5S301,486.4,299.2,484.7
	L299.2,484.7z M303.6,480.1c-0.7-0.7-1.8-0.7-2.5,0.1c-0.7,0.7-0.7,1.8,0.1,2.5c0.7,0.7,1.8,0.7,2.5-0.1
	C304.4,481.9,304.4,480.8,303.6,480.1C303.7,480,303.6,480,303.6,480.1L303.6,480.1z"/>
<ellipse transform="matrix(0.7071 -0.7071 0.7071 0.7071 -29.824 454.6455)" class="st26" cx="533.9" cy="263.3" rx="60" ry="60"/>
<circle class="st27" cx="549.6" cy="247.9" r="60"/>
<path class="st3" d="M510,288.2c-20.8-20-21.5-53-1.6-73.8s53-21.5,73.8-1.6c20.8,20,21.5,53,1.6,73.8
	C563.9,307.4,530.9,308.1,510,288.2z M579.8,215.4c-19.4-18.6-50.2-17.9-68.8,1.5c-18.6,19.4-17.9,50.2,1.5,68.8
	c19.4,18.6,50.2,17.9,68.8-1.5C599.9,264.8,599.2,234,579.8,215.4L579.8,215.4z"/>
<path class="st11" d="M601.2,223.2l-104.3,59.4c-4.7-7.7-7.6-16.5-8.4-25.5l95.1-54.1C590.9,208.3,596.9,215.2,601.2,223.2z"/>
<path class="st11" d="M607.7,243.9l-96.5,54.9c-1.6-1.2-3.1-2.6-4.6-4c-1.8-1.7-3.4-3.5-4.9-5.3l102.9-58.5
	C606.1,235.1,607.2,239.4,607.7,243.9z"/>
<path class="st28" d="M506.9,230.4c-0.5-0.5-0.6-1.3-0.2-1.8c7.5-10.8,18.5-18.7,31.2-22.4c7.1-2,12.9-1.8,17.3,0.8
	c0.7,0.3,1,1.2,0.7,1.9c-0.3,0.7-1.2,1-1.9,0.7c-0.1,0-0.1-0.1-0.2-0.1c-3.6-2.2-8.7-2.3-15-0.5c-12,3.5-22.5,11-29.6,21.3
	c-0.4,0.6-1.3,0.8-2,0.4c0,0,0,0,0,0L506.9,230.4z"/>
<path class="st2" d="M573.3,281.8c-1-1-1-2.5-0.1-3.5c1-1,2.5-1,3.5-0.1c1,1,1,2.5,0.1,3.5l0,0C575.8,282.7,574.2,282.8,573.3,281.8
	z M575.7,279.2c-0.4-0.4-1.1-0.4-1.5,0s-0.4,1.1,0,1.5c0.4,0.4,1.1,0.4,1.5,0C576.1,280.3,576.1,279.7,575.7,279.2L575.7,279.2z"/>
<path class="st3" d="M571.7,283.4c-1.8-1.8-1.9-4.7-0.1-6.5c1.8-1.8,4.7-1.9,6.5-0.1c1.8,1.8,1.9,4.7,0.1,6.5
	C576.5,285.1,573.6,285.1,571.7,283.4L571.7,283.4z M576.2,278.8c-0.7-0.7-1.8-0.7-2.5,0.1c-0.7,0.7-0.7,1.8,0.1,2.5
	c0.7,0.7,1.8,0.7,2.5-0.1C576.9,280.6,576.9,279.4,576.2,278.8C576.2,278.8,576.2,278.8,576.2,278.8L576.2,278.8z"/>
<path class="st29" d="M499.5,299.2c-26.9-25.8-27.8-68.5-2-95.4c25.8-26.9,68.5-27.8,95.4-2c26.9,25.8,27.8,68.5,2,95.4
	C569.1,324.1,526.4,325,499.5,299.2z M582.6,212.5c-21-20.1-54.2-19.4-74.3,1.6c-20.1,21-19.4,54.2,1.6,74.3s54.2,19.4,74.3-1.6
	C604.2,265.9,603.5,232.6,582.6,212.5L582.6,212.5z"/>
<path class="st0" d="M281.1,472.2l71.7-74.8c24.2-25.3,57.1-40.6,92.1-42.7l0,0c-0.9,34.7-14.7,67.8-38.7,92.9L334,522.7"/>
<path class="st11" d="M438.9,368.1c-32.2,3.1-62.2,17.7-84.6,41.1l-70.5,73.6l-6.2-5.9l70.5-73.6c23.9-25,56.5-39.8,91-41.5l0,0
	C439.2,363.9,439.1,366,438.9,368.1z"/>
<path class="st1" d="M396.7,447l-70.9,74l-21.3-20.3c57.8-20.8,102.8-80.3,124.9-111.4C423.5,411,412.3,430.8,396.7,447z"/>
<g class="st19">
	<path class="st20" d="M387.7,319.5c8.4-2.2,15.1-4.5,15.3-4c0.2,0.5-6.3,3.5-14.9,5.7c-8.5,2.2-15.7,2.8-15.8,2.3
		C372.3,323,379.3,321.7,387.7,319.5z"/>
	<ellipse transform="matrix(0.9623 -0.272 0.272 0.9623 -74.2627 118.2607)" class="st20" cx="389.5" cy="327" rx="10.5" ry="0.9"/>
	<path class="st20" d="M385.6,324.3c3,6.6,5.7,11.8,5.2,12c-0.5,0.2-3.9-4.6-6.9-11.3s-4.3-12.5-3.9-12.6
		C380.5,312.2,382.6,317.7,385.6,324.3z"/>
	<path class="st20" d="M391.4,327.3c2.4,6.2,4.9,11.1,4.4,11.3c-0.4,0.3-3.6-4.3-6.1-10.7c-2.5-6.4-3.2-11.9-2.7-12
		S389,321.1,391.4,327.3z"/>
</g>
<path class="st2" d="M386.2,394.9c-1-1-1-2.5-0.1-3.5s2.5-1,3.5-0.1c1,1,1,2.5,0.1,3.5l0,0C388.8,395.8,387.2,395.8,386.2,394.9z
	 M388.7,392.3c-0.4-0.4-1.1-0.4-1.5,0c-0.4,0.4-0.4,1.1,0,1.5c0.4,0.4,1.1,0.4,1.5,0C389.1,393.4,389.1,392.7,388.7,392.3
	L388.7,392.3z"/>
<path class="st3" d="M384.8,396.4c-1.8-1.8-1.9-4.7-0.1-6.5c1.8-1.8,4.7-1.9,6.5-0.1c1.8,1.8,1.9,4.7,0.1,6.5
	S386.6,398.2,384.8,396.4L384.8,396.4z M389.2,391.8c-0.7-0.7-1.8-0.7-2.5,0.1c-0.7,0.7-0.7,1.8,0.1,2.5c0.7,0.7,1.8,0.7,2.5-0.1
	C389.9,393.6,389.9,392.5,389.2,391.8C389.2,391.8,389.2,391.8,389.2,391.8L389.2,391.8z"/>
<path class="st2" d="M314.5,469.7c-1-1-1-2.5-0.1-3.5c1-1,2.5-1,3.5-0.1c1,1,1,2.5,0.1,3.5l0,0C317,470.7,315.5,470.7,314.5,469.7z
	 M316.9,467.2c-0.4-0.4-1.1-0.4-1.5,0s-0.4,1.1,0,1.5c0.4,0.4,1.1,0.4,1.5,0C317.4,468.3,317.4,467.6,316.9,467.2L316.9,467.2z"/>
<path class="st3" d="M313,471.3c-1.8-1.8-1.9-4.7-0.1-6.5s4.7-1.9,6.5-0.1c1.8,1.8,1.9,4.7,0.1,6.5C317.8,473,314.8,473,313,471.3
	L313,471.3z M317.4,466.7c-0.7-0.7-1.8-0.7-2.5,0.1c-0.7,0.7-0.7,1.8,0.1,2.5c0.7,0.7,1.8,0.7,2.5-0.1
	C318.2,468.5,318.1,467.3,317.4,466.7L317.4,466.7z"/>
<path class="st2" d="M350.3,432.3c-1-1-1-2.5-0.1-3.5s2.5-1,3.5-0.1c1,1,1,2.5,0.1,3.5l0,0C352.9,433.2,351.3,433.3,350.3,432.3z
	 M352.8,429.7c-0.4-0.4-1.1-0.4-1.5,0c-0.4,0.4-0.4,1.1,0,1.5c0.4,0.4,1.1,0.4,1.5,0C353.2,430.8,353.2,430.1,352.8,429.7
	L352.8,429.7z"/>
<path class="st3" d="M348.9,433.8c-1.8-1.8-1.9-4.7-0.1-6.5c1.8-1.8,4.7-1.9,6.5-0.1c1.8,1.8,1.9,4.7,0.1,6.5
	S350.7,435.6,348.9,433.8L348.9,433.8z M353.3,429.2c-0.7-0.7-1.8-0.7-2.5,0.1c-0.7,0.7-0.7,1.8,0.1,2.5c0.7,0.7,1.8,0.7,2.5-0.1
	C354,431,354,429.9,353.3,429.2L353.3,429.2z"/>
<path class="st2" d="M402.6,410.6c-1-1-1-2.5-0.1-3.5s2.5-1,3.5-0.1s1,2.5,0.1,3.5l0,0C405.2,411.5,403.6,411.5,402.6,410.6z
	 M405.1,408c-0.4-0.4-1.1-0.4-1.5,0c-0.4,0.4-0.4,1.1,0,1.5c0.4,0.4,1.1,0.4,1.5,0C405.5,409.1,405.5,408.4,405.1,408L405.1,408z"/>
<path class="st3" d="M401.2,412.1c-1.8-1.8-1.9-4.7-0.1-6.5c1.8-1.8,4.7-1.9,6.5-0.1c1.8,1.8,1.9,4.7,0.1,6.5
	C405.9,413.8,403,413.9,401.2,412.1L401.2,412.1z M405.6,407.5c-0.7-0.7-1.8-0.7-2.5,0.1c-0.7,0.7-0.7,1.8,0.1,2.5
	c0.7,0.7,1.8,0.7,2.5-0.1C406.3,409.3,406.3,408.2,405.6,407.5C405.6,407.5,405.6,407.5,405.6,407.5L405.6,407.5z"/>
<path class="st2" d="M330.9,485.5c-1-1-1-2.5-0.1-3.5s2.5-1,3.5-0.1c1,1,1,2.5,0.1,3.5l0,0C333.5,486.4,331.9,486.4,330.9,485.5z
	 M333.3,482.9c-0.4-0.4-1.1-0.4-1.5,0c-0.4,0.4-0.4,1.1,0,1.5c0.4,0.4,1.1,0.4,1.5,0C333.8,484,333.8,483.3,333.3,482.9L333.3,482.9
	z"/>
<path class="st3" d="M329.4,487c-1.8-1.8-1.9-4.7-0.1-6.5c1.8-1.8,4.7-1.9,6.5-0.1c1.8,1.8,1.9,4.7,0.1,6.5
	C334.2,488.7,331.3,488.8,329.4,487L329.4,487z M333.8,482.4c-0.7-0.7-1.8-0.7-2.5,0.1c-0.7,0.7-0.7,1.8,0.1,2.5s1.8,0.7,2.5-0.1
	C334.6,484.2,334.5,483.1,333.8,482.4L333.8,482.4z"/>
<path class="st2" d="M366.8,448c-1-1-1-2.5-0.1-3.5s2.5-1,3.5-0.1c1,1,1,2.5,0.1,3.5l0,0C369.3,448.9,367.8,449,366.8,448z
	 M369.2,445.5c-0.4-0.4-1.1-0.4-1.5,0c-0.4,0.4-0.4,1.1,0,1.5c0.4,0.4,1.1,0.4,1.5,0S369.6,445.9,369.2,445.5L369.2,445.5z"/>
<path class="st3" d="M365.3,449.6c-1.8-1.8-1.9-4.7-0.1-6.5c1.8-1.8,4.7-1.9,6.5-0.1c1.8,1.8,1.9,4.7,0.1,6.5
	C370.1,451.3,367.1,451.3,365.3,449.6L365.3,449.6z M369.7,444.9c-0.7-0.7-1.8-0.7-2.5,0.1c-0.7,0.7-0.7,1.8,0.1,2.5
	s1.8,0.7,2.5-0.1C370.4,446.8,370.4,445.6,369.7,444.9L369.7,444.9z"/>
<rect x="275.1" y="425.9" transform="matrix(0.6918 -0.722 0.722 0.6918 -194.1205 399.8102)" class="st2" width="192.5" height="2.8"/>
<rect x="276.4" y="426.2" transform="matrix(0.6918 -0.722 0.722 0.6918 -195.3482 397.5517)" class="st3" width="183.3" height="2.8"/>
<rect x="281.2" y="429.9" transform="matrix(0.6918 -0.722 0.722 0.6918 -196.6604 401.8244)" class="st28" width="182.6" height="2.8"/>
<path class="st29" d="M307.3,558.8l-65.1-62.4c-14.9-14.3-15.4-37.9-1.1-52.7l3.7-3.8l119,114l-3.7,3.8
	C345.8,572.5,322.2,573,307.3,558.8z M245.5,455.3c-6.7,10.7-5,24.7,4.1,33.4l65.1,62.4c9.1,8.7,23.2,9.9,33.6,2.7L245.5,455.3z"/>
<path class="st30" d="M657.9,237.2L657.9,237.2c9.2,5.3,12.3,17.1,6.9,26.3l-9.8,16.8c-5.3,9.2-17.1,12.3-26.3,6.9l0,0
	c-9.2-5.3-12.3-17.1-6.9-26.3l9.8-16.8C637,235,648.8,231.9,657.9,237.2z"/>
<path class="st30" d="M651.4,219.4L651.4,219.4c10.5,1.8,17.5,11.7,15.7,22.2l0,0c-1.8,10.5-11.7,17.5-22.2,15.7l0,0
	c-10.5-1.8-17.5-11.7-15.7-22.2l0,0C631,224.6,640.9,217.6,651.4,219.4z"/>
<g class="st19">
	<path class="st20" d="M561.9,335.9c8.4-2.2,15.1-4.5,15.3-4c0.2,0.5-6.3,3.5-14.9,5.7c-8.5,2.2-15.7,2.8-15.8,2.3
		C546.5,339.4,553.5,338.1,561.9,335.9z"/>
	
		<ellipse transform="matrix(0.9623 -0.272 0.272 0.9623 -72.1509 166.2561)" class="st20" cx="563.6" cy="343.4" rx="10.5" ry="0.9"/>
	<path class="st20" d="M559.8,340.6c3,6.6,5.7,11.8,5.2,12c-0.5,0.2-3.9-4.6-6.9-11.3s-4.3-12.5-3.9-12.6
		C554.6,328.6,556.8,334.1,559.8,340.6z"/>
	<path class="st20" d="M565.6,343.7c2.4,6.2,4.9,11.1,4.4,11.3c-0.4,0.3-3.6-4.3-6.1-10.7s-3.2-11.9-2.7-12
		C561.6,332.3,563.2,337.5,565.6,343.7z"/>
</g>
<g class="st19">
	<path class="st20" d="M671.7,138.1c8.4-2.2,15.1-4.5,15.3-4c0.2,0.5-6.3,3.5-14.9,5.7c-8.5,2.2-15.7,2.8-15.8,2.3
		C656.4,141.6,663.3,140.3,671.7,138.1z"/>
	
		<ellipse transform="matrix(0.9623 -0.272 0.272 0.9623 -14.2128 188.6688)" class="st20" cx="673.4" cy="145.6" rx="10.5" ry="0.9"/>
	<path class="st20" d="M669.6,142.9c3,6.6,5.7,11.8,5.2,12c-0.5,0.2-3.9-4.6-6.9-11.3c-3-6.7-4.3-12.5-3.9-12.6
		S666.7,136.3,669.6,142.9z"/>
	<path class="st20" d="M675.4,145.9c2.4,6.2,4.9,11.1,4.4,11.3c-0.4,0.3-3.6-4.3-6.1-10.7c-2.5-6.4-3.2-11.9-2.7-12
		C671.5,134.5,673,139.7,675.4,145.9z"/>
</g>
<rect x="629.4" y="59.7" transform="matrix(0.6918 -0.722 0.722 0.6918 87.2983 501.4787)" class="st1" width="3.6" height="177.6"/>
<polygon class="st12" points="698.9,228.9 555.6,91.7 564.8,85.6 705.4,220.4 "/>
<path class="st12" d="M352.7,552.1L246.1,450c-6.7-6.4-9.8-15.1-8.2-22.7c6.3-29.1,33.5-110.1,150.9-232.6
	C503.9,74.6,651.5,47.2,709.6,41.1c15.9-1.7,30.1,9.8,31.8,25.7c0.2,1.6,0.2,3.3,0.1,4.9l0,0c-3.7,58.3-24.7,206.9-139.8,327
	c-117.4,122.5-197.2,153.2-226,160.7C368.2,561.3,359.4,558.5,352.7,552.1z M725.2,56.6c-3.1-3-7.2-4.7-11.4-5c-1-0.1-2.1,0-3.1,0.1
	c-56.9,6-201.5,32.8-314.2,150.4c-50.4,52.6-89.4,103-115.9,150c-21.9,38.7-29.6,65.2-32.3,77.5c-0.8,3.9,1.2,9,5.1,12.7
	l106.6,102.1c3.9,3.8,9.1,5.6,12.9,4.6c12.2-3.2,38.4-12.1,76.1-35.5c45.8-28.5,94.5-69.7,144.9-122.2
	C706.6,273.6,727.2,128.1,730.8,70.9l0,0c0.3-4.8-1.3-9.6-4.5-13.2C726,57.3,725.6,57,725.2,56.6z"/>
<path class="st29" d="M281.8,475l-7.7-7.4l70.5-73.6c24.8-26,58.7-41.5,94.6-43.2l5.7-0.3l-0.1,5.7c-0.4,35.6-14.4,69.7-39.1,95.3
	l-70.9,74l-7.7-7.4l70.9-74c21.4-22.3,34.1-51.5,35.9-82.3c-31.1,2.9-60.1,16.9-81.6,39.5L281.8,475z"/>
<path class="st2" d="M471.5,576.9c-1-1-1-2.5-0.1-3.5s2.5-1,3.5-0.1c1,1,1,2.5,0.1,3.5l0,0C474.1,577.8,472.5,577.9,471.5,576.9z
	 M474,574.3c-0.4-0.4-1.1-0.4-1.5,0c-0.4,0.4-0.4,1.1,0,1.5c0.4,0.4,1.1,0.4,1.5,0C474.4,575.4,474.4,574.8,474,574.3L474,574.3z"/>
<path class="st3" d="M470,578.5c-1.8-1.8-1.9-4.7-0.1-6.5c1.8-1.8,4.7-1.9,6.5-0.1c1.8,1.8,1.9,4.7,0.1,6.5
	C474.8,580.2,471.9,580.2,470,578.5L470,578.5z M474.5,573.8c-0.7-0.7-1.8-0.7-2.5,0.1c-0.7,0.7-0.7,1.8,0.1,2.5s1.8,0.7,2.5-0.1
	C475.2,575.6,475.2,574.5,474.5,573.8L474.5,573.8z"/>
</svg>
