<?xml version="1.0" encoding="utf-8"?>
<!-- Generator: Adobe Illustrator 25.1.0, SVG Export Plug-In . SVG Version: 6.00 Build 0)  -->
<svg version="1.1" id="Capa_1" xmlns="http://www.w3.org/2000/svg" xmlns:xlink="http://www.w3.org/1999/xlink" x="0px" y="0px"
	 viewBox="0 0 197 144" style="enable-background:new 0 0 197 144;" xml:space="preserve">
<style type="text/css">
	.st0{fill:url(#SVGID_1_);}
	.st1{fill:url(#SVGID_2_);}
	.st2{fill:none;stroke:url(#SVGID_3_);}
	.st3{fill-rule:evenodd;clip-rule:evenodd;fill:url(#SVGID_4_);}
	.st4{fill-rule:evenodd;clip-rule:evenodd;fill:#FFFFFF;}
	.st5{fill:url(#SVGID_5_);}
</style>
<g>
	
		<linearGradient id="SVGID_1_" gradientUnits="userSpaceOnUse" x1="42.2348" y1="138.0896" x2="190.2138" y2="14.5257" gradientTransform="matrix(1 0 0 -1 0 144)">
		<stop  offset="0" style="stop-color:#D4B3FF"/>
		<stop  offset="1" style="stop-color:#70A9FF"/>
	</linearGradient>
	<path class="st0" d="M48,2h130c8.3,0,15,6.7,15,15v96c0,8.3-6.7,15-15,15H48c-8.3,0-15-6.7-15-15V17C33,8.7,39.7,2,48,2z"/>
</g>
<g>
	
		<linearGradient id="SVGID_2_" gradientUnits="userSpaceOnUse" x1="16.0942" y1="125.5371" x2="158.0942" y2="1.0371" gradientTransform="matrix(1 0 0 -1 0 144)">
		<stop  offset="0" style="stop-color:#E4F9FF;stop-opacity:0.1"/>
		<stop  offset="1" style="stop-color:#E4F9FF;stop-opacity:0.8"/>
	</linearGradient>
	<path shape-rendering="crispEdges" class="st1" d="M19,18h130c8.3,0,15,6.7,15,15v90c0,8.3-6.7,15-15,15H19c-8.3,0-15-6.7-15-15V33
		C4,24.7,10.7,18,19,18z"/>
	
		<linearGradient id="SVGID_3_" gradientUnits="userSpaceOnUse" x1="33.2688" y1="112.2328" x2="134.7688" y2="19.7328" gradientTransform="matrix(1 0 0 -1 0 144)">
		<stop  offset="0" style="stop-color:#25CED1;stop-opacity:0.1"/>
		<stop  offset="4.514152e-02" style="stop-color:#22C1C9;stop-opacity:0.1316"/>
		<stop  offset="0.1444" style="stop-color:#1CAABB;stop-opacity:0.2011"/>
		<stop  offset="0.259" style="stop-color:#1798B0;stop-opacity:0.2813"/>
		<stop  offset="0.3964" style="stop-color:#148BA8;stop-opacity:0.3775"/>
		<stop  offset="0.58" style="stop-color:#1384A3;stop-opacity:0.506"/>
		<stop  offset="1" style="stop-color:#1282A2;stop-opacity:0.8"/>
	</linearGradient>
	<path shape-rendering="crispEdges" class="st2" d="M19,18.5h130c8,0,14.5,6.5,14.5,14.5v90c0,8-6.5,14.5-14.5,14.5H19
		c-8,0-14.5-6.5-14.5-14.5V33C4.5,25,11,18.5,19,18.5z"/>
</g>
<g>
	
		<linearGradient id="SVGID_4_" gradientUnits="userSpaceOnUse" x1="85.6922" y1="75.158" x2="85.6922" y2="6" gradientTransform="matrix(1 0 0 -1 0 144)">
		<stop  offset="0" style="stop-color:#70A9FF;stop-opacity:0.1"/>
		<stop  offset="1" style="stop-color:#70A9FF;stop-opacity:0.8"/>
	</linearGradient>
	<path class="st3" d="M163.4,127.4c-1.9,6.2-7.6,10.6-14.4,10.6H19c-4.3,0-8.2-1.8-11-4.8l37.7-62c2-3.3,6.7-3.2,8.6,0.1l33.1,57.9
		l35.3-58c2-3.3,6.7-3.2,8.6,0.1L163.4,127.4z"/>
</g>
<g>
	<path class="st4" d="M110,92.2l12.8-21c2-3.3,6.7-3.2,8.6,0.1l12.4,21.7c-4.7,3.1-10.3,4.9-16.3,4.9C120.9,98,114.9,95.9,110,92.2z
		"/>
</g>
<g>
	<path class="st4" d="M32.2,93.4l13.5-22.2c2-3.3,6.7-3.2,8.6,0.1l12.5,22C62,96.9,56,99,49.5,99C43.1,99,37.1,96.9,32.2,93.4z"/>
</g>
<g>
	
		<linearGradient id="SVGID_5_" gradientUnits="userSpaceOnUse" x1="87.8074" y1="99.1469" x2="100.8074" y2="73.6469" gradientTransform="matrix(1 0 0 -1 0 144)">
		<stop  offset="0.1458" style="stop-color:#FFBE5A"/>
		<stop  offset="0.5938" style="stop-color:#FF861A"/>
		<stop  offset="1" style="stop-color:#FF600D"/>
	</linearGradient>
	<circle class="st5" cx="94" cy="57" r="14"/>
</g>
</svg>
