<?xml version="1.0" encoding="utf-8"?>
<!-- Generator: Adobe Illustrator 25.1.0, SVG Export Plug-In . SVG Version: 6.00 Build 0)  -->
<svg version="1.1" id="Capa_1" xmlns="http://www.w3.org/2000/svg" xmlns:xlink="http://www.w3.org/1999/xlink" x="0px" y="0px"
	 viewBox="0 0 166 181" style="enable-background:new 0 0 166 181;" xml:space="preserve">
<style type="text/css">
	.st0{fill:none;stroke:#1282A2;stroke-width:5;}
	.st1{fill:url(#SVGID_1_);}
	.st2{fill:none;stroke:url(#SVGID_2_);}
	.st3{fill:url(#SVGID_3_);}
	.st4{fill:url(#SVGID_4_);}
	.st5{fill:url(#SVGID_5_);}
	.st6{fill:url(#SVGID_6_);}
</style>
<path class="st0" d="M45,45.5c-1-49.8,69-63,76,0"/>
<g>
	
		<linearGradient id="SVGID_1_" gradientUnits="userSpaceOnUse" x1="24.3605" y1="124.326" x2="142.8605" y2="6.326" gradientTransform="matrix(1 0 0 -1 0 182)">
		<stop  offset="0" style="stop-color:#25CED1;stop-opacity:0.1"/>
		<stop  offset="1" style="stop-color:#25CED1;stop-opacity:0.8"/>
	</linearGradient>
	<path shape-rendering="crispEdges" class="st1" d="M17.4,53.8c0.6-5,4.9-8.8,9.9-8.8h112.2c5.1,0,9.4,3.8,9.9,8.9l12.3,110
		c0.7,5.9-4,11.1-9.9,11.1H14.3c-6,0-10.6-5.2-9.9-11.2L17.4,53.8z"/>
	
		<linearGradient id="SVGID_2_" gradientUnits="userSpaceOnUse" x1="26.2803" y1="120.9678" x2="148.2803" y2="2.9678" gradientTransform="matrix(1 0 0 -1 0 182)">
		<stop  offset="0" style="stop-color:#E4F9FF;stop-opacity:0.1"/>
		<stop  offset="1" style="stop-color:#E4F9FF;stop-opacity:0.8"/>
	</linearGradient>
	<path shape-rendering="crispEdges" class="st2" d="M27.4,45.5h112.2c4.8,0,8.9,3.6,9.4,8.4l12.3,110c0.6,5.6-3.8,10.6-9.4,10.6
		H14.3c-5.7,0-10.1-5-9.4-10.6l13.1-110C18.5,49.1,22.6,45.5,27.4,45.5z"/>
</g>
<g>
	
		<linearGradient id="SVGID_3_" gradientUnits="userSpaceOnUse" x1="49.8115" y1="63.7142" x2="71.8115" y2="38.7142" gradientTransform="matrix(1 0 0 -1 0 182)">
		<stop  offset="0" style="stop-color:#FF62C0"/>
		<stop  offset="0.5156" style="stop-color:#BE35FF"/>
		<stop  offset="1" style="stop-color:#7926FF"/>
	</linearGradient>
	<path class="st3" d="M54,116h14c4.4,0,8,3.6,8,8v14c0,4.4-3.6,8-8,8H54c-4.4,0-8-3.6-8-8v-14C46,119.6,49.6,116,54,116z"/>
</g>
<g>
	
		<linearGradient id="SVGID_4_" gradientUnits="userSpaceOnUse" x1="95.714" y1="103.1807" x2="114.714" y2="80.6807" gradientTransform="matrix(1 0 0 -1 0 182)">
		<stop  offset="0" style="stop-color:#E4F9FF"/>
		<stop  offset="0.4896" style="stop-color:#70A9FF"/>
		<stop  offset="1" style="stop-color:#4C74FF"/>
	</linearGradient>
	<path class="st4" d="M99,76h14c4.4,0,8,3.6,8,8v14c0,4.4-3.6,8-8,8H99c-4.4,0-8-3.6-8-8V84C91,79.6,94.6,76,99,76z"/>
</g>
<g>
	
		<linearGradient id="SVGID_5_" gradientUnits="userSpaceOnUse" x1="89.5355" y1="66.5664" x2="117.0355" y2="40.5664" gradientTransform="matrix(1 0 0 -1 0 182)">
		<stop  offset="0" style="stop-color:#FFFFFF"/>
		<stop  offset="0.3802" style="stop-color:#D4B2FF"/>
		<stop  offset="1" style="stop-color:#70A9FF"/>
	</linearGradient>
	<path class="st5" d="M99,116h14c4.4,0,8,3.6,8,8v14c0,4.4-3.6,8-8,8H99c-4.4,0-8-3.6-8-8v-14C91,119.6,94.6,116,99,116z"/>
</g>
<g>
	
		<linearGradient id="SVGID_6_" gradientUnits="userSpaceOnUse" x1="54.2613" y1="103.6999" x2="67.2613" y2="79.1999" gradientTransform="matrix(1 0 0 -1 0 182)">
		<stop  offset="0" style="stop-color:#FFE092"/>
		<stop  offset="0.5052" style="stop-color:#FF9820"/>
		<stop  offset="1" style="stop-color:#FF3D00"/>
	</linearGradient>
	<path class="st6" d="M54,76h14c4.4,0,8,3.6,8,8v14c0,4.4-3.6,8-8,8H54c-4.4,0-8-3.6-8-8V84C46,79.6,49.6,76,54,76z"/>
</g>
</svg>
