<?xml version="1.0" encoding="utf-8"?>
<!-- Generator: Adobe Illustrator 25.1.0, SVG Export Plug-In . SVG Version: 6.00 Build 0)  -->
<svg version="1.1" id="Layer_1" xmlns="http://www.w3.org/2000/svg" xmlns:xlink="http://www.w3.org/1999/xlink" x="0px" y="0px"
	 viewBox="0 0 108.6 110.4" style="enable-background:new 0 0 108.6 110.4;" xml:space="preserve" stroke-width="2" stroke="#292929" fill="#292929" stroke-linecap="round" stroke-linejoin="round">
<g>
	<g>
		<path d="M93.8,92.8L63.4,48.7c-0.3-0.5-0.3-1.2,0.1-1.6l31.7-36.9C96,9.3,95.4,8,94.2,8h-4.3c-0.4,0-0.8,0.2-1,0.5l-6.3,7.3
			L60.5,41.4c-0.6,0.7-1.6,0.6-2.1-0.1L37.2,10.6l-1.4-2.1C35.6,8.2,35.1,8,34.7,8H10.8c-1.1,0-1.7,1.2-1.1,2.1l5.2,7.5l28.8,41.9
			c0.3,0.5,0.3,1.2-0.1,1.6L10,100.2c-0.7,0.9-0.1,2.2,1,2.2h4.3c0.4,0,0.8-0.2,1-0.5l30.3-35.2c0.6-0.7,1.6-0.6,2.1,0.1l22.6,32.9
			l1.4,2.1c0.3,0.4,0.7,0.6,1.1,0.6h23.9c1.1,0,1.7-1.2,1.1-2.1L93.8,92.8z M77.2,96.3c-0.4,0-0.9-0.2-1.1-0.6L51.9,60.6l-3.5-5.1
			l-27-39.3c-0.6-0.9,0-2.1,1.1-2.1h9c0.4,0,0.9,0.2,1.1,0.6l22.6,32.9l3.5,5.1l28.6,41.5c0.6,0.9,0,2.1-1.1,2.1H77.2z"/>
	</g>
</g>
</svg>
