<?xml version="1.0" encoding="utf-8"?>
<!-- Generator: Adobe Illustrator 25.1.0, SVG Export Plug-In . SVG Version: 6.00 Build 0)  -->
<svg version="1.1" id="Capa_1" xmlns="http://www.w3.org/2000/svg" xmlns:xlink="http://www.w3.org/1999/xlink" x="0px" y="0px"
	 viewBox="0 0 196 163" style="enable-background:new 0 0 196 163;" xml:space="preserve">
<style type="text/css">
	.st0{fill-rule:evenodd;clip-rule:evenodd;fill:url(#SVGID_1_);}
	.st1{fill:url(#SVGID_2_);}
	.st2{fill:none;stroke:url(#SVGID_3_);}
	.st3{fill:#FF6E0B;}
	.st4{fill:url(#SVGID_4_);}
	.st5{fill:none;stroke:url(#SVGID_5_);}
	.st6{fill-rule:evenodd;clip-rule:evenodd;fill:#FF6E0B;}
</style>
<g>
	
		<linearGradient id="SVGID_1_" gradientUnits="userSpaceOnUse" x1="58.1642" y1="-107.923" x2="136.1642" y2="24.5769" gradientTransform="matrix(1 0 0 1 0 124)">
		<stop  offset="0" style="stop-color:#1282A2"/>
		<stop  offset="0.5052" style="stop-color:#70A9FF"/>
		<stop  offset="1" style="stop-color:#25CED1"/>
	</linearGradient>
	<path class="st0" d="M100.1,144.1c-2.5,2.7-4,2.9-4.6,2.9s-2.1-0.2-4.6-2.9c-2.3-2.5-4.8-6.5-7.2-12.1h23.4
		C104.9,137.6,102.4,141.6,100.1,144.1z M110.7,122H80.4c-2.9-10.3-4.9-23-5.3-37h40.8C115.5,99,113.6,111.7,110.7,122z M80.4,37
		c-3,10.6-5,23.6-5.3,38H116c-0.3-14.4-2.3-27.4-5.3-38H80.4z M83.8,27c2.3-5.6,4.8-9.6,7.2-12.1c2.5-2.7,4-2.9,4.6-2.9
		s2.1,0.2,4.6,2.9c2.3,2.5,4.8,6.5,7.2,12.1H83.8z M121,37c2.9,11,4.6,24,4.9,38h36.9c-0.9-14.4-6.4-27.5-14.9-38H121z M137.9,27
		h-20c-1.8-5-3.9-9.4-6.1-13C121.5,16.4,130.4,20.9,137.9,27z M73.1,27h-20c7.5-6.1,16.4-10.6,26.1-13C76.9,17.6,74.9,22,73.1,27z
		 M43.1,37H70c-2.9,11-4.6,24-4.9,38h-37C29.1,60.6,34.5,47.5,43.1,37z M121,122c2.8-10.8,4.5-23.4,4.9-37h36.9
		c-1.1,14-6.5,26.7-14.8,37H121z M65.1,85H28.2c1.1,14,6.5,26.7,14.8,37h27C67.2,111.2,65.5,98.6,65.1,85z M117.9,132
		c-1.8,5-3.9,9.4-6.1,13c9.7-2.4,18.6-6.9,26.1-13H117.9z M53.1,132c7.5,6.1,16.4,10.6,26.1,13c-2.3-3.6-4.3-8-6.1-13H53.1z
		 M173,79.5C173,36.7,138.3,2,95.5,2S18,36.7,18,79.5S52.7,157,95.5,157S173,122.3,173,79.5z"/>
</g>
<g>
	
		<linearGradient id="SVGID_2_" gradientUnits="userSpaceOnUse" x1="128.4296" y1="-116.4916" x2="175.4296" y2="-79.4916" gradientTransform="matrix(1 0 0 1 0 124)">
		<stop  offset="0" style="stop-color:#E4F9FF;stop-opacity:0.1"/>
		<stop  offset="1" style="stop-color:#1282A2"/>
	</linearGradient>
	<path shape-rendering="crispEdges" class="st1" d="M137,15h40c8.3,0,15,6.7,15,15l0,0c0,8.3-6.7,15-15,15h-40c-8.3,0-15-6.7-15-15
		l0,0C122,21.7,128.7,15,137,15z"/>
	
		<linearGradient id="SVGID_3_" gradientUnits="userSpaceOnUse" x1="144.8579" y1="-108.0101" x2="170.8579" y2="-78.0102" gradientTransform="matrix(1 0 0 1 0 124)">
		<stop  offset="0" style="stop-color:#E4F9FF;stop-opacity:0.1"/>
		<stop  offset="1" style="stop-color:#E4F9FF;stop-opacity:0.8"/>
	</linearGradient>
	<path shape-rendering="crispEdges" class="st2" d="M137,15.5h40c8,0,14.5,6.5,14.5,14.5l0,0c0,8-6.5,14.5-14.5,14.5h-40
		c-8,0-14.5-6.5-14.5-14.5l0,0C122.5,22,129,15.5,137,15.5z"/>
</g>
<g>
	<circle class="st3" cx="139" cy="30" r="4"/>
</g>
<g>
	<circle class="st3" cx="175" cy="30" r="4"/>
</g>
<g>
	<circle class="st3" cx="157" cy="30" r="4"/>
</g>
<g>
	
		<linearGradient id="SVGID_4_" gradientUnits="userSpaceOnUse" x1="10.8456" y1="-15.3624" x2="47.8456" y2="26.1376" gradientTransform="matrix(1 0 0 1 0 124)">
		<stop  offset="0" style="stop-color:#E4F9FF;stop-opacity:0.1"/>
		<stop  offset="1" style="stop-color:#1282A2;stop-opacity:0.8"/>
	</linearGradient>
	<path shape-rendering="crispEdges" class="st4" d="M9,104h40c2.8,0,5,2.2,5,5v40c0,2.8-2.2,5-5,5H9c-2.8,0-5-2.2-5-5v-40
		C4,106.2,6.2,104,9,104z"/>
	
		<linearGradient id="SVGID_5_" gradientUnits="userSpaceOnUse" x1="7.509" y1="-17.0088" x2="49.009" y2="25.4912" gradientTransform="matrix(1 0 0 1 0 124)">
		<stop  offset="0" style="stop-color:#E4F9FF;stop-opacity:0.1"/>
		<stop  offset="1" style="stop-color:#E4F9FF;stop-opacity:0.8"/>
	</linearGradient>
	<path shape-rendering="crispEdges" class="st5" d="M9,104.5h40c2.5,0,4.5,2,4.5,4.5v40c0,2.5-2,4.5-4.5,4.5H9c-2.5,0-4.5-2-4.5-4.5
		v-40C4.5,106.5,6.5,104.5,9,104.5z"/>
</g>
<g>
	<path class="st6" d="M34.6,132.1c3.5-4.7,3.1-11.4-1.2-15.6c-4.7-4.7-12.3-4.7-17,0s-4.7,12.3,0,17c3.9,3.9,9.8,4.6,14.4,2l7.7,7.7
		c1,1,2.6,1,3.5,0c1-1,1-2.6,0-3.5L34.6,132.1z M30.6,119.3c3.1,3.1,3.1,8.2,0,11.3s-8.2,3.1-11.3,0c-3.1-3.1-3.1-8.2,0-11.3
		S27.5,116.2,30.6,119.3z"/>
</g>
</svg>
