<?xml version="1.0" encoding="utf-8"?>
<!-- Generator: Adobe Illustrator 25.1.0, SVG Export Plug-In . SVG Version: 6.00 Build 0)  -->
<svg version="1.1" id="Capa_1" xmlns="http://www.w3.org/2000/svg" xmlns:xlink="http://www.w3.org/1999/xlink" x="0px" y="0px"
	 viewBox="0 0 306.5 164.8" style="enable-background:new 0 0 306.5 164.8;" xml:space="preserve">
<style type="text/css">
	.st0{display:none;}
	.st1{display:inline;fill:url(#SVGID_1_);}
	.st2{display:inline;fill:url(#SVGID_2_);}
	.st3{display:inline;fill:url(#SVGID_3_);}
	.st4{display:inline;fill:url(#SVGID_4_);}
	.st5{fill:url(#SVGID_5_);}
	.st6{fill:url(#SVGID_6_);}
	.st7{fill:url(#SVGID_7_);}
	.st8{fill:url(#SVGID_8_);}
</style>
<g class="st0">
	
		<linearGradient id="SVGID_1_" gradientUnits="userSpaceOnUse" x1="-14.7037" y1="63.95" x2="102.0037" y2="63.95" gradientTransform="matrix(1 0 0 -1 0 128)">
		<stop  offset="0" style="stop-color:#144175"/>
		<stop  offset="0.1563" style="stop-color:#164678"/>
		<stop  offset="0.3454" style="stop-color:#1D5582"/>
		<stop  offset="0.5514" style="stop-color:#276D92"/>
		<stop  offset="0.7694" style="stop-color:#368FA8"/>
		<stop  offset="0.9948" style="stop-color:#4ABBC4"/>
		<stop  offset="1" style="stop-color:#4ABCC5"/>
	</linearGradient>
	<path class="st1" d="M-6.3,120.2l-0.2-0.2c-10.1-9-11-24.5-2-34.6L59,9.9c9-10.1,24.5-11,34.6-2l0.2,0.2c10.1,9,11,24.5,2,34.6
		l-67.4,75.5C19.3,128.3,3.8,129.2-6.3,120.2z"/>
	
		<linearGradient id="SVGID_2_" gradientUnits="userSpaceOnUse" x1="52.5254" y1="95.45" x2="101.8" y2="95.45" gradientTransform="matrix(1 0 0 -1 0 128)">
		<stop  offset="0" style="stop-color:#144175"/>
		<stop  offset="4.843509e-02" style="stop-color:#1B5280"/>
		<stop  offset="0.1589" style="stop-color:#2A7295"/>
		<stop  offset="0.2784" style="stop-color:#368DA7"/>
		<stop  offset="0.4082" style="stop-color:#3FA2B4"/>
		<stop  offset="0.5533" style="stop-color:#45B1BE"/>
		<stop  offset="0.7264" style="stop-color:#49B9C3"/>
		<stop  offset="1" style="stop-color:#4ABCC5"/>
	</linearGradient>
	<path class="st2" d="M77.4,63.2L60.3,44.4l0,0L59,43l1.2,1.3C50.6,35.2,49.9,20,58.7,10l0.1-0.1c0.3-0.3,0.6-0.6,0.8-0.9
		c4.9-4.7,11.3-7.1,17.6-7.1C83,1.9,88.9,4,93.6,8.2c5.4,4.9,8.2,11.6,8.2,18.4c0,5.5-1.8,11-5.5,15.5c-0.2,0.3-0.5,0.5-0.7,0.8
		L95.5,43L77.4,63.2z"/>
</g>
<g class="st0">
	
		<linearGradient id="SVGID_3_" gradientUnits="userSpaceOnUse" x1="80.0093" y1="123.8998" x2="250.9551" y2="123.8998" gradientTransform="matrix(0.9382 -0.346 0.346 0.9382 -25.0767 46.0226)">
		<stop  offset="0" style="stop-color:#144175"/>
		<stop  offset="0.1563" style="stop-color:#164678"/>
		<stop  offset="0.3454" style="stop-color:#1D5582"/>
		<stop  offset="0.5514" style="stop-color:#276D92"/>
		<stop  offset="0.7694" style="stop-color:#368FA8"/>
		<stop  offset="0.9948" style="stop-color:#4ABBC4"/>
		<stop  offset="1" style="stop-color:#4ABCC5"/>
	</linearGradient>
	<path class="st3" d="M230.3,13.1c-0.3,1.1-0.6,2.1-1,3.2l-54,141.5l-1.5,4c-1.2,3.2-2.8,6.2-4.8,8.8c-9.7,13.4-27.6,19.2-43.8,13
		l-0.4-0.2c-19.2-7.3-29-28.6-22.1-47.9c0.1-0.3,0.2-0.5,0.3-0.8l33.1-86.9L230.3,13.1z"/>
	
		<linearGradient id="SVGID_4_" gradientUnits="userSpaceOnUse" x1="78.3471" y1="132.0791" x2="154.128" y2="132.0791" gradientTransform="matrix(-0.9342 0.3568 0.3568 0.9342 196.6251 -25.652)">
		<stop  offset="0" style="stop-color:#144175"/>
		<stop  offset="4.843509e-02" style="stop-color:#1B5280"/>
		<stop  offset="0.1589" style="stop-color:#2A7295"/>
		<stop  offset="0.2784" style="stop-color:#368DA7"/>
		<stop  offset="0.4082" style="stop-color:#3FA2B4"/>
		<stop  offset="0.5533" style="stop-color:#45B1BE"/>
		<stop  offset="0.7264" style="stop-color:#49B9C3"/>
		<stop  offset="1" style="stop-color:#4ABCC5"/>
	</linearGradient>
	<path class="st4" d="M118,95.3l34.9,17.6l0,0l2.6,1.3l-2.4-1.2c18.8,7.8,28.1,29.3,21,48.5l-0.1,0.2c-0.3,0.6-0.5,1.2-0.7,1.7
		c-4.5,9.4-12.3,16.4-21.4,19.9c-8.3,3.2-18,3.4-27-0.1c-10.4-4.1-18.1-12.2-21.9-21.9c-3-7.9-3.5-16.8-0.6-25.3
		c0.1-0.5,0.4-1,0.6-1.5l0.1-0.2L118,95.3z"/>
</g>
<g>
	<g>
		
			<linearGradient id="SVGID_5_" gradientUnits="userSpaceOnUse" x1="193.6105" y1="162.4818" x2="364.5563" y2="162.4818" gradientTransform="matrix(-0.9999 1.443337e-02 -1.443337e-02 -0.9999 369.0649 225.5432)">
			<stop  offset="0" style="stop-color:#144175"/>
			<stop  offset="0.1563" style="stop-color:#164678"/>
			<stop  offset="0.3454" style="stop-color:#1D5582"/>
			<stop  offset="0.5514" style="stop-color:#276D92"/>
			<stop  offset="0.7694" style="stop-color:#368FA8"/>
			<stop  offset="0.9948" style="stop-color:#4ABBC4"/>
			<stop  offset="1" style="stop-color:#4ABCC5"/>
		</linearGradient>
		<path class="st5" d="M3.2,134.8c0.6-0.9,1.3-1.8,2-2.6l98-115.5l2.8-3.3c2.2-2.6,4.7-4.9,7.4-6.7C127-2.8,145.8-2.3,159,8.9
			l0.3,0.3c15.7,13.3,17.8,36.6,5,52.5c-0.2,0.2-0.3,0.4-0.5,0.6l-60.1,71L3.2,134.8z"/>
		
			<linearGradient id="SVGID_6_" gradientUnits="userSpaceOnUse" x1="-29.6682" y1="175.2191" x2="46.1128" y2="175.2191" gradientTransform="matrix(0.9186 -4.512317e-03 -4.693194e-03 -0.9554 127.8725 214.8884)">
			<stop  offset="0" style="stop-color:#144175"/>
			<stop  offset="4.843509e-02" style="stop-color:#1B5280"/>
			<stop  offset="0.1589" style="stop-color:#2A7295"/>
			<stop  offset="0.2784" style="stop-color:#368DA7"/>
			<stop  offset="0.4082" style="stop-color:#3FA2B4"/>
			<stop  offset="0.5533" style="stop-color:#45B1BE"/>
			<stop  offset="0.7264" style="stop-color:#49B9C3"/>
			<stop  offset="1" style="stop-color:#4ABCC5"/>
		</linearGradient>
		<path class="st6" d="M135.2,92.5L110.9,65l0,0l-1.8-2l1.7,1.9C97.1,51.5,96,29.2,108.4,14.4l0.1-0.1c0.4-0.4,0.8-0.9,1.1-1.3
			c6.9-6.9,15.9-10.5,24.8-10.6c8.2,0,16.5,3,23.2,9.1c7.7,7.2,11.7,17,11.7,27c0,8.1-2.5,16.2-7.7,22.8c-0.3,0.4-0.7,0.7-1,1.2
			l-0.1,0.1L135.2,92.5z"/>
	</g>
	<g>
		
			<linearGradient id="SVGID_7_" gradientUnits="userSpaceOnUse" x1="209.6717" y1="115.2174" x2="380.6175" y2="115.2174" gradientTransform="matrix(0.9996 -2.743396e-02 2.743396e-02 0.9996 -78.473 -9.984)">
			<stop  offset="0" style="stop-color:#144175"/>
			<stop  offset="0.1563" style="stop-color:#164678"/>
			<stop  offset="0.3454" style="stop-color:#1D5582"/>
			<stop  offset="0.5514" style="stop-color:#276D92"/>
			<stop  offset="0.7694" style="stop-color:#368FA8"/>
			<stop  offset="0.9948" style="stop-color:#4ABBC4"/>
			<stop  offset="1" style="stop-color:#4ABCC5"/>
		</linearGradient>
		<path class="st7" d="M303.3,28.3c-0.6,0.9-1.3,1.8-2,2.7l-96.4,116.7l-2.8,3.3c-2.2,2.7-4.7,4.9-7.4,6.8
			c-13.5,9.6-32.3,9.4-45.7-1.7l-0.3-0.3c-15.9-13.1-18.3-36.4-5.6-52.4c0.1-0.2,0.3-0.4,0.5-0.6l59.2-71.8L303.3,28.3z"/>
		
			<linearGradient id="SVGID_8_" gradientUnits="userSpaceOnUse" x1="-46.6621" y1="125.5916" x2="29.1189" y2="125.5916" gradientTransform="matrix(-0.9184 1.645641e-02 1.711614e-02 0.9553 162.8376 -2.4664)">
			<stop  offset="0" style="stop-color:#144175"/>
			<stop  offset="4.843509e-02" style="stop-color:#1B5280"/>
			<stop  offset="0.1589" style="stop-color:#2A7295"/>
			<stop  offset="0.2784" style="stop-color:#368DA7"/>
			<stop  offset="0.4082" style="stop-color:#3FA2B4"/>
			<stop  offset="0.5533" style="stop-color:#45B1BE"/>
			<stop  offset="0.7264" style="stop-color:#49B9C3"/>
			<stop  offset="1" style="stop-color:#4ABCC5"/>
		</linearGradient>
		<path class="st8" d="M171.9,72.3l24.6,27.2l0,0l1.9,2l-1.7-1.9c13.8,13.1,15.2,35.4,3,50.4l-0.1,0.1c-0.4,0.4-0.8,0.9-1.1,1.3
			c-6.8,7-15.8,10.7-24.7,10.9c-8.2,0.1-16.6-2.8-23.3-8.8c-7.8-7.1-11.9-16.8-12.1-26.8c-0.1-8.1,2.3-16.2,7.4-22.9
			c0.3-0.4,0.7-0.7,1-1.2l0.1-0.1L171.9,72.3z"/>
	</g>
</g>
</svg>
