<?xml version="1.0" encoding="utf-8"?>
<!-- Generator: Adobe Illustrator 25.1.0, SVG Export Plug-In . SVG Version: 6.00 Build 0)  -->
<svg version="1.1" id="Capa_1" xmlns="http://www.w3.org/2000/svg" xmlns:xlink="http://www.w3.org/1999/xlink" x="0px" y="0px"
	 viewBox="0 0 225.4 150.6" style="enable-background:new 0 0 225.4 150.6;" xml:space="preserve">
<style type="text/css">
	.st0{display:none;}
	.st1{display:inline;fill:url(#SVGID_1_);}
	.st2{display:inline;fill:url(#SVGID_2_);}
	.st3{display:inline;fill:url(#SVGID_3_);}
	.st4{display:inline;fill:url(#SVGID_4_);}
	.st5{fill:url(#SVGID_5_);}
	.st6{fill:url(#SVGID_6_);}
</style>
<g class="st0">
	
		<linearGradient id="SVGID_1_" gradientUnits="userSpaceOnUse" x1="11.9963" y1="-147.85" x2="128.7037" y2="-147.85" gradientTransform="matrix(1 0 0 1 0 232)">
		<stop  offset="0" style="stop-color:#144175"/>
		<stop  offset="0.1563" style="stop-color:#164678"/>
		<stop  offset="0.3454" style="stop-color:#1D5582"/>
		<stop  offset="0.5514" style="stop-color:#276D92"/>
		<stop  offset="0.7694" style="stop-color:#368FA8"/>
		<stop  offset="0.9948" style="stop-color:#4ABBC4"/>
		<stop  offset="1" style="stop-color:#4ABCC5"/>
	</linearGradient>
	<path class="st1" d="M20.4,140.3l-0.2-0.2c-10.1-9-11-24.5-2-34.6L85.7,30c9-10.1,24.5-11,34.6-2l0.2,0.2c10.1,9,11,24.5,2,34.6
		l-67.4,75.5C46,148.4,30.5,149.3,20.4,140.3z"/>
	
		<linearGradient id="SVGID_2_" gradientUnits="userSpaceOnUse" x1="79.1403" y1="-179.35" x2="128.4149" y2="-179.35" gradientTransform="matrix(1 0 0 1 0 232)">
		<stop  offset="0" style="stop-color:#144175"/>
		<stop  offset="4.843509e-02" style="stop-color:#1B5280"/>
		<stop  offset="0.1589" style="stop-color:#2A7295"/>
		<stop  offset="0.2784" style="stop-color:#368DA7"/>
		<stop  offset="0.4082" style="stop-color:#3FA2B4"/>
		<stop  offset="0.5533" style="stop-color:#45B1BE"/>
		<stop  offset="0.7264" style="stop-color:#49B9C3"/>
		<stop  offset="1" style="stop-color:#4ABCC5"/>
	</linearGradient>
	<path class="st2" d="M104.1,83.3L87,64.5l0,0l-1.3-1.4l1.2,1.3c-9.6-9.1-10.3-24.3-1.5-34.3l0.1-0.1c0.3-0.3,0.6-0.6,0.8-0.9
		c4.9-4.7,11.3-7.1,17.6-7.1c5.8,0,11.7,2.1,16.4,6.3c5.4,4.9,8.2,11.6,8.2,18.4c0,5.5-1.8,11-5.5,15.5c-0.2,0.3-0.5,0.5-0.7,0.8
		l-0.1,0.1L104.1,83.3z"/>
</g>
<g class="st0">
	
		<linearGradient id="SVGID_3_" gradientUnits="userSpaceOnUse" x1="201.0751" y1="320.076" x2="371.9272" y2="320.076" gradientTransform="matrix(0.9382 -0.346 -0.346 -0.9382 41.7873 524.5022)">
		<stop  offset="0" style="stop-color:#144175"/>
		<stop  offset="0.1563" style="stop-color:#164678"/>
		<stop  offset="0.3454" style="stop-color:#1D5582"/>
		<stop  offset="0.5514" style="stop-color:#276D92"/>
		<stop  offset="0.7694" style="stop-color:#368FA8"/>
		<stop  offset="0.9948" style="stop-color:#4ABBC4"/>
		<stop  offset="1" style="stop-color:#4ABCC5"/>
	</linearGradient>
	<path class="st3" d="M257,33.2c-0.3,1.1-0.6,2.1-1,3.2l-54,141.5l-1.5,4c-1.2,3.2-2.8,6.2-4.8,8.8c-9.7,13.4-27.6,19.2-43.8,13
		l-0.4-0.2c-19.2-7.3-29-28.6-22.1-47.9c0.1-0.3,0.2-0.5,0.3-0.8l33.1-86.9L257,33.2z"/>
	
		<linearGradient id="SVGID_4_" gradientUnits="userSpaceOnUse" x1="750.9022" y1="315.0497" x2="826.7285" y2="315.0497" gradientTransform="matrix(-0.9342 0.3568 -0.3568 -0.9342 1011.174 172.1927)">
		<stop  offset="0" style="stop-color:#144175"/>
		<stop  offset="4.843509e-02" style="stop-color:#1B5280"/>
		<stop  offset="0.1589" style="stop-color:#2A7295"/>
		<stop  offset="0.2784" style="stop-color:#368DA7"/>
		<stop  offset="0.4082" style="stop-color:#3FA2B4"/>
		<stop  offset="0.5533" style="stop-color:#45B1BE"/>
		<stop  offset="0.7264" style="stop-color:#49B9C3"/>
		<stop  offset="1" style="stop-color:#4ABCC5"/>
	</linearGradient>
	<path class="st4" d="M144.7,115.4l34.9,17.6l0,0l2.6,1.3l-2.4-1.2c18.8,7.8,28.1,29.3,21,48.5l-0.1,0.2c-0.3,0.6-0.5,1.2-0.7,1.7
		c-4.5,9.4-12.3,16.4-21.4,19.9c-8.3,3.2-18,3.4-27-0.1c-10.4-4.1-18.1-12.2-21.9-21.9c-3-7.9-3.5-16.8-0.6-25.3
		c0.1-0.5,0.4-1,0.6-1.5l0.1-0.2L144.7,115.4z"/>
</g>
<g>
	
		<linearGradient id="SVGID_5_" gradientUnits="userSpaceOnUse" x1="429.1168" y1="435.054" x2="581.6443" y2="435.054" gradientTransform="matrix(-0.7822 0.8614 -0.9641 -0.8754 965.295 21.7984)">
		<stop  offset="0" style="stop-color:#144175"/>
		<stop  offset="4.843509e-02" style="stop-color:#1B5280"/>
		<stop  offset="0.3137" style="stop-color:#2A7295"/>
		<stop  offset="1" style="stop-color:#4ABCC5"/>
	</linearGradient>
	<path class="st5" d="M88.6,94.9l74.4-82c12.4-13.6,33.5-14.6,47.1-2.3l0,0c13.6,12.4,14.6,33.5,2.3,47.1l-74.4,82
		c-12.4,13.6-33.5,14.6-47.1,2.3l0,0C77.2,129.6,76.2,108.5,88.6,94.9z"/>
	
		<linearGradient id="SVGID_6_" gradientUnits="userSpaceOnUse" x1="365.1865" y1="-1.0244" x2="517.7141" y2="-1.0244" gradientTransform="matrix(0.7822 -0.8614 0.9641 0.8754 -269.5 457.449)">
		<stop  offset="0" style="stop-color:#144175"/>
		<stop  offset="4.843509e-02" style="stop-color:#1B5280"/>
		<stop  offset="0.3137" style="stop-color:#2A7295"/>
		<stop  offset="1" style="stop-color:#4ABCC5"/>
	</linearGradient>
	<path class="st6" d="M136.7,57.7l-74.4,82c-12.4,13.6-33.5,14.6-47.1,2.3l0,0c-13.6-12.4-14.6-33.5-2.3-47.1l74.4-82
		c12.4-13.6,33.5-14.6,47.1-2.3l0,0C148.1,23,149.1,44.1,136.7,57.7z"/>
</g>
</svg>
