<?xml version="1.0" standalone="no"?>
<svg xmlns:xlink="http://www.w3.org/1999/xlink" id="wave" style="transform:rotate(0deg); transition: 0.3s" viewBox="0 0 1440 400" version="1.1" xmlns="http://www.w3.org/2000/svg"><defs><linearGradient id="sw-gradient-0" x1="0" x2="0" y1="1" y2="0"><stop stop-color="rgba(243, 106, 62, 1)" offset="0%"/><stop stop-color="rgba(255, 179, 11, 1)" offset="100%"/></linearGradient></defs><path style="transform:translate(0, 0px); opacity:1" fill="url(#sw-gradient-0)" d="M0,360L1440,0L2880,360L4320,240L5760,360L7200,80L8640,120L10080,0L11520,160L12960,0L14400,40L15840,120L17280,320L18720,320L20160,280L21600,120L23040,320L24480,200L25920,320L27360,80L28800,240L30240,280L31680,160L33120,280L34560,160L34560,400L33120,400L31680,400L30240,400L28800,400L27360,400L25920,400L24480,400L23040,400L21600,400L20160,400L18720,400L17280,400L15840,400L14400,400L12960,400L11520,400L10080,400L8640,400L7200,400L5760,400L4320,400L2880,400L1440,400L0,400Z"/></svg>